<?xml version="1.0" standalone="no"?>
<!DOCTYPE svg PUBLIC "-//W3C//DTD SVG 20010904//EN"
 "http://www.w3.org/TR/2001/REC-SVG-20010904/DTD/svg10.dtd">
<svg version="1.0" xmlns="http://www.w3.org/2000/svg"
 width="512.000000pt" height="512.000000pt" viewBox="0 0 512.000000 512.000000"
 preserveAspectRatio="xMidYMid meet">

<g transform="translate(0.000000,512.000000) scale(0.100000,-0.100000)"
fill="#000000" stroke="none">
<path d="M700 5111 c-83 -26 -151 -93 -174 -172 -10 -32 -16 -91 -16 -150 l0
-97 -97 -4 c-86 -3 -107 -8 -167 -37 -77 -37 -148 -102 -189 -172 -60 -103
-58 -5 -55 -1860 3 -1644 4 -1695 22 -1739 55 -130 153 -223 273 -260 64 -20
91 -20 1397 -20 l1331 0 53 -84 c299 -477 922 -651 1427 -398 201 100 383 278
486 475 160 307 169 669 24 983 -70 153 -202 316 -336 415 l-69 51 -2 1157 -3
1156 -23 57 c-70 173 -223 278 -407 278 l-72 0 -5 118 c-7 161 -36 221 -137
280 -39 23 -57 27 -121 27 -64 0 -82 -4 -121 -27 -101 -59 -130 -119 -137
-280 l-5 -118 -253 0 -254 0 0 108 c0 130 -16 185 -69 240 -56 57 -104 77
-186 77 -78 -1 -118 -17 -173 -69 -63 -58 -76 -97 -80 -233 l-4 -123 -254 0
-254 0 0 98 c0 122 -19 189 -67 243 -119 131 -322 112 -410 -39 -26 -43 -28
-58 -33 -172 l-5 -125 -255 0 -255 0 -5 125 c-5 114 -7 129 -33 172 -58 99
-182 151 -287 119z m109 -176 c16 -8 31 -22 35 -30 3 -9 6 -145 6 -301 l0
-285 -25 -24 c-45 -46 -125 -24 -140 38 -3 12 -5 145 -3 295 l3 274 28 24 c32
28 56 30 96 9z m1038 -9 l28 -24 3 -285 3 -284 -26 -32 c-34 -40 -84 -43 -120
-6 l-25 24 0 289 c0 302 1 306 45 330 32 18 62 14 92 -12z m1006 12 c46 -24
46 -29 47 -331 l0 -288 -25 -24 c-15 -15 -36 -25 -54 -25 -87 0 -91 14 -91
345 l0 277 29 29 c31 31 59 36 94 17z m1042 -12 c13 -13 27 -39 30 -57 3 -19
5 -150 3 -291 -3 -256 -3 -257 -27 -282 -18 -19 -35 -26 -61 -26 -26 0 -43 7
-61 26 -24 25 -24 26 -27 282 -2 141 0 272 3 291 9 45 46 81 85 81 19 0 40 -9
55 -24z m-3385 -503 c0 -116 10 -155 53 -219 60 -89 176 -126 291 -92 55 16
138 99 154 154 7 23 12 89 12 148 l0 106 260 0 260 0 0 -106 c0 -138 12 -177
75 -239 56 -56 102 -75 184 -75 93 0 170 47 216 132 26 48 29 64 33 171 l4
117 254 0 254 0 0 -103 c0 -162 38 -239 142 -291 97 -48 228 -26 300 50 52 56
68 108 68 232 l0 112 254 0 253 0 5 -112 c5 -129 20 -173 76 -232 52 -54 104
-76 182 -76 78 0 130 22 182 76 56 59 71 103 76 232 l5 112 60 0 c89 0 135
-18 194 -75 76 -74 83 -107 83 -382 l0 -223 -2135 0 -2135 0 0 228 c0 132 5
243 11 266 22 79 92 154 165 176 16 4 59 9 97 9 l67 1 0 -97z m3930 -1518 c0
-421 -3 -765 -7 -765 -5 0 -42 11 -83 24 -41 13 -96 27 -121 31 l-46 7 -6 54
c-12 115 -89 223 -195 272 -48 23 -71 27 -142 27 -102 0 -169 -27 -238 -94
-67 -65 -96 -138 -97 -236 0 -44 4 -90 8 -102 7 -19 2 -25 -40 -47 -136 -68
-294 -216 -391 -364 -51 -78 -55 -82 -72 -67 -24 21 -104 51 -161 60 -63 9
-160 -17 -226 -60 -56 -37 -105 -101 -129 -167 -20 -58 -19 -174 2 -229 35
-89 111 -169 190 -200 51 -19 135 -29 176 -20 28 7 40 6 42 -2 2 -7 11 -57 19
-112 9 -55 20 -110 23 -122 l6 -23 -1284 0 c-948 0 -1294 3 -1319 12 -61 20
-114 64 -144 120 l-30 53 -3 1358 -2 1357 2135 0 2135 0 0 -765z m-543 -526
c53 -20 113 -95 113 -142 0 -9 -31 -16 -107 -25 -60 -7 -132 -19 -162 -27 -30
-8 -58 -12 -63 -9 -4 3 -8 20 -8 39 0 118 120 205 227 164z m233 -339 c345
-43 654 -294 767 -625 52 -153 65 -306 38 -459 -90 -514 -573 -859 -1078 -771
-202 35 -360 118 -507 265 -232 232 -322 537 -255 861 75 367 394 666 770 725
103 16 161 16 265 4z m-1233 -526 c12 -8 31 -23 42 -35 18 -20 19 -24 4 -72
-8 -28 -20 -83 -27 -122 l-11 -70 -45 -11 c-77 -19 -141 7 -187 76 -44 63 -23
174 40 220 53 39 135 45 184 14z"/>
<path d="M1688 3396 c-100 -36 -167 -97 -210 -193 -31 -67 -31 -197 0 -266 30
-66 104 -142 171 -174 47 -23 69 -27 141 -27 71 -1 94 4 141 26 119 55 190
160 197 293 3 66 0 91 -19 140 -30 81 -112 164 -192 193 -66 25 -171 29 -229
8z m179 -172 c86 -41 119 -153 69 -238 -28 -48 -90 -86 -142 -86 -36 0 -103
30 -126 56 -24 27 -48 88 -48 121 0 14 9 46 21 70 39 81 142 116 226 77z"/>
<path d="M2693 3390 c-219 -87 -285 -367 -129 -547 79 -90 224 -132 340 -99
304 89 342 488 61 634 -70 36 -197 41 -272 12z m196 -165 c96 -49 125 -176 59
-260 -26 -33 -91 -65 -133 -65 -45 0 -109 34 -135 70 -24 34 -37 110 -26 154
9 35 54 86 91 102 40 18 109 17 144 -1z"/>
<path d="M3730 3395 c-96 -31 -193 -136 -221 -240 -17 -60 -6 -163 23 -226 31
-67 96 -132 168 -167 47 -23 68 -27 140 -27 73 0 93 4 142 28 72 35 134 97
167 167 22 46 26 69 26 145 0 85 -2 94 -36 155 -82 148 -248 215 -409 165z
m190 -174 c97 -51 118 -179 43 -262 -131 -145 -362 16 -273 191 18 36 55 70
90 83 33 12 107 6 140 -12z"/>
<path d="M663 2542 c-147 -53 -232 -171 -233 -324 0 -130 72 -248 188 -305 50
-25 68 -28 152 -28 84 0 101 3 148 28 70 37 128 97 160 166 22 47 27 70 26
141 0 72 -4 94 -27 141 -32 67 -109 142 -173 171 -66 29 -175 34 -241 10z
m176 -170 c19 -9 48 -34 65 -55 26 -32 30 -47 31 -96 0 -105 -77 -177 -180
-169 -93 8 -155 76 -155 170 1 120 134 204 239 150z"/>
<path d="M1700 2547 c-91 -26 -182 -105 -222 -195 -33 -72 -31 -198 4 -273 32
-69 90 -129 160 -166 47 -25 64 -28 148 -28 84 0 102 3 152 28 72 35 140 110
168 185 29 76 24 194 -11 267 -68 144 -247 225 -399 182z m171 -180 c148 -78
102 -301 -65 -315 -151 -12 -242 162 -143 275 58 66 132 80 208 40z"/>
<path d="M2723 2546 c-172 -56 -268 -209 -241 -383 33 -209 253 -336 455 -262
79 29 172 123 199 199 75 218 -73 443 -300 456 -44 2 -87 -1 -113 -10z m163
-175 c106 -48 132 -176 53 -266 -36 -41 -86 -59 -146 -52 -52 6 -88 29 -121
78 -20 29 -23 44 -20 94 5 74 33 119 92 146 52 23 90 23 142 0z"/>
<path d="M690 1696 c-78 -23 -99 -35 -151 -83 -73 -68 -101 -129 -107 -228 -5
-103 21 -177 87 -248 170 -182 453 -135 560 92 21 46 26 70 26 136 0 93 -27
164 -90 234 -75 83 -223 127 -325 97z m133 -170 c50 -18 76 -42 98 -91 24 -51
23 -89 0 -142 -60 -131 -259 -125 -310 10 -35 92 11 189 106 222 47 17 59 17
106 1z"/>
<path d="M1722 1700 c-102 -22 -193 -96 -241 -199 -21 -46 -26 -70 -26 -136 0
-71 4 -89 33 -147 60 -123 169 -191 308 -190 234 0 394 236 313 459 -28 77
-122 172 -194 196 -63 22 -138 28 -193 17z m110 -170 c44 -13 93 -52 113 -91
18 -33 19 -96 4 -136 -51 -135 -250 -141 -310 -10 -23 53 -24 91 0 142 22 49
48 73 98 91 47 16 49 16 95 4z"/>
<path d="M3959 1601 c-23 -19 -24 -24 -29 -213 l-5 -193 -193 -5 c-189 -5
-194 -6 -213 -29 -26 -32 -24 -74 5 -108 l24 -28 191 -3 191 -3 0 -189 0 -189
26 -20 c37 -29 85 -27 115 5 23 25 24 31 27 209 l3 184 184 3 c178 3 184 4
209 27 32 30 34 78 5 115 l-20 26 -189 0 -189 0 -3 191 -3 191 -28 24 c-34 29
-76 31 -108 5z"/>
</g>
</svg>
