<?xml version="1.0" standalone="no"?>
<!DOCTYPE svg PUBLIC "-//W3C//DTD SVG 20010904//EN"
 "http://www.w3.org/TR/2001/REC-SVG-20010904/DTD/svg10.dtd">
<svg version="1.0" xmlns="http://www.w3.org/2000/svg"
 width="512.000000pt" height="512.000000pt" viewBox="0 0 512.000000 512.000000"
 preserveAspectRatio="xMidYMid meet">

<g transform="translate(0.000000,512.000000) scale(0.100000,-0.100000)"
fill="#000000" stroke="none">
<path d="M1470 5002 c-67 -25 -101 -46 -144 -88 -52 -51 -92 -115 -107 -175
-12 -48 -14 -49 -68 -65 -31 -8 -74 -26 -96 -39 -58 -33 -132 -116 -163 -183
l-27 -57 -5 -315 c-5 -302 -6 -316 -27 -345 -37 -53 -56 -129 -51 -203 9 -121
75 -219 183 -273 l63 -31 11 -62 c40 -228 185 -462 364 -585 46 -31 47 -33 47
-84 l0 -52 -102 -102 c-57 -56 -115 -106 -129 -112 -14 -5 -183 -51 -375 -101
-192 -51 -371 -103 -399 -117 -67 -33 -137 -103 -170 -170 -21 -43 -54 -192
-152 -687 -109 -552 -124 -640 -119 -699 10 -135 97 -262 221 -323 l60 -29
1660 0 1660 0 55 26 c84 40 144 99 186 184 48 98 54 171 25 314 -11 57 -21
109 -21 116 0 8 28 14 88 17 143 8 169 30 222 186 36 104 38 108 80 128 l44
22 109 -54 c61 -30 122 -54 136 -54 14 0 44 9 66 19 48 23 269 244 284 284 20
52 12 92 -40 198 -48 98 -50 106 -39 139 19 53 25 58 130 90 174 54 190 80
190 320 0 24 241 -12 260 -197 321 l-103 33 -17 44 -17 44 52 102 c54 106 62 148
41 202 -12 34 -232 260 -273 281 -55 29 -113 20 -221 -34 l-100 -50 -42 15
c-43 16 -43 16 -78 123 -62 184 -70 189 -327 189 -245 0 -255 -6 -314 -189
-29 -92 -32 -97 -73 -118 l-43 -22 -101 51 c-111 55 -168 64 -223 35 -42 -22
-261 -247 -273 -280 -21 -56 -13 -100 39 -207 l51 -103 -16 -41 c-16 -42 -17
-43 -118 -75 -56 -18 -116 -44 -133 -56 l-31 -24 -81 82 c-81 81 -82 83 -82
132 l0 51 66 49 c116 87 233 240 293 384 13 30 33 99 45 154 22 96 24 101 54
111 48 17 118 71 152 117 76 106 79 268 7 378 -24 37 -25 42 -30 287 -4 219
-7 258 -26 323 -80 271 -249 470 -495 586 -165 78 -163 78 -601 81 -348 3
-395 1 -435 -14z m885 -175 c205 -72 358 -211 449 -409 50 -108 66 -200 66
-384 l0 -156 -31 6 c-17 3 -39 6 -49 6 -15 0 -18 11 -22 68 -9 155 -122 276
-284 302 -33 6 -124 10 -204 10 -232 0 -460 25 -690 76 -138 31 -180 27 -252
-23 -76 -52 -143 -192 -178 -370 -12 -62 -13 -63 -45 -63 -18 0 -47 -3 -64 -6
l-32 -7 3 245 3 245 30 49 c43 69 106 105 196 113 88 9 103 24 113 112 10 96
65 175 146 208 16 7 162 10 395 8 l370 -2 80 -28z m-735 -650 c196 -41 357
-58 600 -64 247 -5 284 -11 330 -49 49 -42 60 -73 60 -174 0 -101 16 -154 49
-165 12 -4 50 -4 84 0 71 8 108 -3 150 -43 40 -38 57 -74 57 -122 0 -90 -63
-164 -149 -176 -72 -9 -87 -30 -100 -136 -21 -181 -95 -333 -220 -458 -88 -88
-169 -140 -280 -180 -361 -132 -760 31 -936 381 -43 83 -63 155 -75 259 -11
93 -33 130 -79 130 -35 1 -101 32 -128 61 -65 71 -56 179 20 246 44 38 96 50
154 35 104 -28 116 -15 154 166 16 79 39 169 51 200 26 70 78 126 111 119 12
-2 78 -16 147 -30z m2401 -1129 c20 -61 46 -119 60 -134 13 -15 53 -40 89 -57
96 -45 142 -42 257 16 51 26 98 47 105 47 8 0 56 -43 108 -95 l95 -95 -53
-105 c-61 -123 -64 -156 -26 -248 42 -101 68 -121 214 -166 l85 -27 0 -143 0
-144 -108 -37 c-128 -44 -154 -66 -191 -158 -39 -100 -36 -130 26 -250 l53
-102 -100 -100 -101 -100 -99 52 c-83 43 -108 52 -150 52 -59 -1 -167 -47
-204 -87 -13 -15 -40 -75 -60 -134 l-36 -108 -85 0 -85 0 -61 302 -61 303 41
-8 c80 -14 207 -6 276 17 217 74 360 272 360 499 0 229 -142 427 -361 503 -90
32 -238 32 -329 0 -184 -63 -324 -227 -353 -411 -9 -56 -15 -70 -27 -67 -8 2
-124 33 -257 68 -134 35 -243 67 -243 70 0 4 26 14 59 23 32 9 74 26 92 39 42
27 99 137 107 203 4 42 -1 58 -49 155 l-53 109 98 99 99 100 101 -52 c122 -61
168 -65 261 -23 89 40 110 65 146 175 48 145 29 132 187 129 l137 -3 36 -107z
m-2311 -612 c135 -34 244 -41 365 -22 55 8 120 22 144 30 24 9 47 16 52 16 5
0 9 -34 9 -75 0 -106 -28 -174 -99 -246 -129 -129 -325 -134 -460 -13 -73 66
-104 135 -109 246 -3 48 -3 88 0 88 2 0 46 -11 98 -24z m2260 -51 c202 -71
299 -311 203 -506 -39 -79 -102 -140 -181 -177 -48 -23 -71 -27 -147 -27 -76
0 -97 4 -139 25 -45 23 -51 30 -66 82 -23 74 -49 115 -111 173 l-51 48 4 71
c16 235 260 391 488 311z m-2409 -325 c38 -48 134 -118 194 -143 138 -56 285
-49 424 20 79 40 171 135 213 220 l33 70 62 -56 c33 -31 83 -67 109 -79 27
-12 204 -63 394 -112 190 -50 365 -101 390 -113 28 -14 57 -40 76 -69 29 -42
39 -89 152 -661 67 -338 122 -630 122 -648 0 -90 -56 -174 -140 -213 -40 -18
-69 -21 -269 -24 -122 -2 -227 0 -231 5 -5 4 27 301 71 658 43 358 78 673 78
700 1 65 -31 122 -84 152 l-40 23 -1169 0 -1169 0 -43 -25 c-48 -28 -84 -91
-84 -146 0 -19 36 -333 80 -698 44 -366 80 -666 80 -669 0 -2 -105 -2 -232 0
-195 4 -240 7 -276 22 -77 33 -142 129 -142 212 0 16 55 309 123 651 111 559
126 626 152 663 15 22 42 49 60 60 18 11 194 63 392 115 393 103 449 125 528
205 l49 50 31 -64 c18 -35 47 -82 66 -106z m1519 -452 c0 -13 -36 -322 -80
-687 -44 -366 -80 -666 -80 -668 0 -8 -1939 -2 -1945 6 -5 9 -165 1317 -165
1354 0 16 61 17 1135 17 l1135 0 0 -22z"/>
<path d="M1852 1183 c-23 -8 -62 -34 -86 -59 -161 -160 -48 -434 178 -434 147
0 255 108 256 256 0 178 -175 298 -348 237z m159 -172 c38 -39 39 -87 3 -130
-54 -65 -164 -22 -164 64 0 27 8 44 29 66 41 40 91 40 132 0z"/>
</g>
</svg>
