<?xml version="1.0" standalone="no"?>
<!DOCTYPE svg PUBLIC "-//W3C//DTD SVG 20010904//EN"
 "http://www.w3.org/TR/2001/REC-SVG-20010904/DTD/svg10.dtd">
<svg version="1.0" xmlns="http://www.w3.org/2000/svg"
 width="512.000000pt" height="512.000000pt" viewBox="0 0 512.000000 512.000000"
 preserveAspectRatio="xMidYMid meet">

<g transform="translate(0.000000,512.000000) scale(0.100000,-0.100000)"
fill="#000000" stroke="none">
<path d="M1029 5011 l-24 -19 -3 -676 -2 -675 -436 -3 -436 -3 -19 -24 c-19
-23 -19 -65 -19 -1750 l0 -1728 23 -21 23 -22 2425 0 2426 0 21 23 22 23 0
1726 c0 1684 0 1726 -19 1749 l-19 24 -436 3 -436 3 -2 675 -3 676 -24 19
c-23 19 -61 19 -1531 19 -1470 0 -1508 0 -1531 -19z m2949 -1617 l-3 -1497
-51 -16 c-149 -49 -259 -166 -299 -316 -38 -148 1 -297 110 -411 l50 -53 -60
-22 c-33 -11 -89 -36 -125 -55 -35 -19 -68 -34 -72 -34 -4 0 -8 362 -8 804 l0
805 -22 15 c-20 14 -126 16 -940 16 -905 0 -918 0 -938 -20 -20 -20 -20 -33
-20 -820 0 -440 -4 -800 -8 -800 -4 0 -37 15 -72 34 -36 19 -92 44 -125 55
l-60 22 50 52 c228 237 128 624 -189 728 l-51 16 -3 1497 -2 1496 1420 0 1420
0 -2 -1496z m-2978 -698 l0 -803 -37 -7 c-205 -34 -370 -279 -333 -496 15 -88
61 -180 121 -240 42 -42 47 -51 32 -56 -126 -41 -232 -97 -328 -174 -74 -59
-108 -96 -174 -183 l-51 -68 0 1415 0 1416 385 0 385 0 0 -804z m3890 -613 l0
-1416 -31 44 c-124 173 -273 289 -466 364 l-71 28 48 48 c93 93 143 246 121
371 -30 172 -148 308 -309 358 l-57 18 -3 801 -2 801 385 0 385 0 0 -1417z
m-2400 259 l0 -148 -72 -21 c-178 -53 -310 -193 -353 -375 -41 -172 11 -345
143 -476 39 -38 58 -64 50 -66 -173 -51 -330 -137 -455 -251 l-63 -57 0 771 0
771 375 0 375 0 0 -148z m890 -623 l0 -771 -62 57 c-126 114 -283 200 -456
251 -8 2 11 28 50 66 131 131 184 304 143 476 -43 181 -176 323 -352 375 l-73
21 0 148 0 148 375 0 375 0 0 -771z m-683 309 c73 -27 155 -104 193 -181 119
-242 -59 -527 -330 -527 -164 0 -303 104 -352 264 -38 126 -7 254 88 356 102
109 253 143 401 88z m-1524 -288 c73 -27 130 -79 164 -148 24 -48 28 -69 28
-137 0 -67 -5 -88 -27 -131 -28 -52 -86 -112 -135 -138 -120 -61 -291 -21
-375 89 -97 128 -81 296 39 405 86 79 197 101 306 60z m2975 5 c34 -10 69 -32
105 -65 224 -205 49 -563 -252 -518 -64 10 -99 27 -152 75 -66 59 -93 123 -93
218 -1 97 21 153 87 218 78 78 192 105 305 72z m-1378 -612 c397 -80 735 -447
776 -841 l7 -62 -993 0 -993 0 7 63 c19 192 120 398 270 555 242 252 579 356
926 285z m-1496 -163 c39 -10 97 -30 129 -44 81 -36 197 -114 197 -133 0 -9
-25 -66 -55 -127 -59 -119 -101 -260 -111 -368 l-7 -68 -598 0 -598 0 6 38
c61 436 442 751 877 725 50 -2 122 -13 160 -23z m2985 -1 c329 -84 575 -360
624 -701 l6 -38 -600 0 -599 0 0 34 c0 102 -57 295 -126 425 -24 46 -44 91
-44 101 0 21 110 98 193 135 170 75 363 91 546 44z"/>
<path d="M1399 4599 c-43 -16 -51 -51 -47 -219 3 -146 4 -153 27 -171 23 -18
56 -19 1181 -19 1125 0 1158 1 1181 19 23 18 24 25 27 171 4 172 -3 203 -50
219 -41 14 -2281 14 -2319 0z m2229 -201 l3 -68 -1071 0 -1070 0 0 63 c0 35 3
67 7 70 3 4 484 6 1067 5 l1061 -3 3 -67z"/>
<path d="M1370 3993 c-20 -26 -21 -37 -18 -184 3 -138 5 -160 22 -178 19 -21
25 -21 442 -21 422 0 423 0 444 22 18 20 20 35 20 185 0 150 -2 165 -20 183
-19 19 -33 20 -444 20 l-425 0 -21 -27z m770 -178 l0 -65 -325 0 -325 0 0 65
0 65 325 0 325 0 0 -65z"/>
<path d="M2860 4000 c-18 -18 -20 -33 -20 -183 0 -158 1 -164 23 -185 23 -22
26 -22 439 -22 394 0 417 1 439 19 23 18 24 25 27 178 3 149 2 160 -18 186
l-21 27 -425 0 c-411 0 -425 -1 -444 -20z m770 -185 l0 -65 -325 0 -325 0 0
65 0 65 325 0 325 0 0 -65z"/>
<path d="M1379 3421 c-23 -18 -24 -25 -27 -178 -3 -149 -2 -160 18 -186 l21
-27 425 0 c411 0 425 1 444 20 18 18 20 33 20 183 0 150 -2 165 -20 185 -21
22 -22 22 -439 22 -397 0 -420 -1 -442 -19z m761 -186 l0 -65 -325 0 -325 0 0
65 0 65 325 0 325 0 0 -65z"/>
<path d="M2862 3417 c-21 -22 -22 -33 -22 -185 0 -149 2 -164 20 -182 19 -19
33 -20 444 -20 l425 0 21 27 c20 26 21 37 18 186 -3 153 -4 160 -27 178 -22
18 -45 19 -440 19 l-418 0 -21 -23z m768 -182 l0 -65 -325 0 -325 0 0 65 0 65
325 0 325 0 0 -65z"/>
<path d="M410 3220 c-19 -19 -20 -33 -20 -349 l0 -330 26 -20 c25 -19 40 -21
204 -21 160 0 180 2 201 19 l24 19 0 332 0 332 -24 19 c-21 17 -41 19 -207 19
-171 0 -185 -1 -204 -20z m300 -350 l0 -230 -90 0 -90 0 0 230 0 230 90 0 90
0 0 -230z"/>
<path d="M4299 3221 l-24 -19 0 -332 0 -332 24 -19 c21 -17 41 -19 201 -19
164 0 179 2 204 21 l26 20 0 330 c0 316 -1 330 -20 349 -19 19 -33 20 -204 20
-166 0 -186 -2 -207 -19z m291 -351 l0 -230 -90 0 -90 0 0 230 0 230 90 0 90
0 0 -230z"/>
</g>
</svg>
