<?xml version="1.0" standalone="no"?>
<!DOCTYPE svg PUBLIC "-//W3C//DTD SVG 20010904//EN"
 "http://www.w3.org/TR/2001/REC-SVG-20010904/DTD/svg10.dtd">
<svg version="1.0" xmlns="http://www.w3.org/2000/svg"
 width="512.000000pt" height="512.000000pt" viewBox="0 0 512.000000 512.000000"
 preserveAspectRatio="xMidYMid meet">

<g transform="translate(0.000000,512.000000) scale(0.100000,-0.100000)"
fill="#000000" stroke="none">
<path d="M640 4547 c-49 -16 -133 -102 -148 -153 -9 -30 -12 -186 -12 -578 0
-502 -1 -537 -17 -542 -96 -30 -154 -76 -195 -154 -18 -36 -23 -61 -23 -120 0
-82 22 -138 74 -193 30 -33 111 -77 141 -77 19 0 20 -6 20 -191 l0 -191 -53
-57 c-107 -116 -190 -271 -233 -436 -23 -85 -27 -122 -28 -245 -1 -196 25
-312 109 -480 201 -402 645 -628 1090 -555 150 24 315 91 430 173 111 80 236
215 299 324 l28 48 1315 0 c1004 0 1325 3 1357 12 55 16 138 99 154 154 17 59
17 3048 0 3106 -6 22 -31 62 -55 88 -79 88 125 80 -2177 79 -1458 -1 -2051 -4
-2076 -12z m4135 -172 l25 -24 0 -1511 0 -1511 -25 -24 -24 -25 -1282 0
c-1216 0 -1281 1 -1274 17 45 118 54 408 17 546 -73 270 -223 481 -443 626
-308 203 -708 225 -1034 57 -44 -22 -83 -42 -87 -44 -5 -2 -8 56 -8 130 l0
133 47 35 c90 68 135 199 100 298 l-15 43 182 161 c99 89 191 170 202 181 21
17 24 18 54 2 44 -23 121 -30 174 -16 l46 11 172 -137 c111 -87 172 -142 170
-152 -22 -137 -4 -210 73 -286 79 -79 177 -103 284 -68 110 35 184 137 185
253 1 36 -2 79 -6 95 -7 29 -1 35 222 218 l229 188 41 -21 c128 -65 297 -9
362 120 37 73 44 133 24 203 -21 74 -69 133 -136 171 -48 27 -64 31 -130 31
-91 -1 -158 -31 -214 -97 -59 -69 -74 -144 -54 -269 2 -11 -78 -83 -227 -207
l-229 -190 -41 21 c-58 31 -173 30 -233 -1 l-43 -23 -155 122 c-85 68 -158
127 -160 131 -3 5 2 25 11 45 27 55 31 141 10 204 -24 70 -101 149 -169 172
-98 33 -200 15 -275 -50 -82 -69 -120 -198 -88 -291 l15 -43 -201 -180 c-111
-98 -206 -178 -212 -176 -6 2 -11 197 -13 556 l-2 552 24 24 25 25 2031 0
2031 0 24 -25z m-1771 -494 c26 -27 31 -39 31 -81 0 -43 -5 -54 -33 -82 -28
-28 -39 -33 -82 -33 -43 0 -54 5 -82 33 -28 28 -33 39 -33 81 0 52 25 92 70
112 37 16 96 3 129 -30z m-1600 -80 c26 -27 31 -39 31 -81 0 -43 -5 -54 -33
-82 -28 -28 -39 -33 -82 -33 -43 0 -54 5 -82 33 -28 28 -33 39 -33 81 0 52 25
92 70 112 37 16 96 3 129 -30z m720 -640 c26 -27 31 -39 31 -81 0 -43 -5 -54
-33 -82 -28 -28 -39 -33 -82 -33 -43 0 -54 5 -82 33 -28 28 -33 39 -33 81 0
52 25 92 70 112 37 16 96 3 129 -30z m-1520 -80 c26 -27 31 -39 31 -81 0 -43
-5 -54 -33 -82 -28 -28 -39 -33 -82 -33 -43 0 -54 5 -82 33 -28 28 -33 39 -33
81 0 52 25 92 70 112 37 16 96 3 129 -30z m504 -1436 c-27 -25 -710 -385 -718
-380 -13 8 -47 126 -60 205 -69 445 228 883 667 984 37 9 79 17 93 18 l25 3 3
-410 c2 -319 -1 -412 -10 -420z m332 801 c331 -99 576 -375 628 -708 l9 -58
-399 0 -398 0 0 398 0 399 58 -9 c31 -5 77 -15 102 -22z m628 -983 c-46 -295
-254 -560 -527 -672 -125 -52 -194 -65 -341 -65 -99 0 -153 5 -204 18 -199 53
-372 164 -486 311 -23 30 -41 57 -39 59 2 3 171 94 374 205 l370 200 431 0
431 1 -9 -57z"/>
<path d="M3465 4055 c-16 -15 -25 -36 -25 -55 0 -19 9 -40 25 -55 15 -16 36
-25 55 -25 19 0 40 9 55 25 16 15 25 36 25 55 0 19 -9 40 -25 55 -15 16 -36
25 -55 25 -19 0 -40 -9 -55 -25z"/>
<path d="M3705 4055 c-16 -15 -25 -36 -25 -55 0 -19 9 -40 25 -55 l24 -25 391
0 391 0 24 25 c16 15 25 36 25 55 0 19 -9 40 -25 55 l-24 25 -391 0 -391 0
-24 -25z"/>
<path d="M3465 3735 c-16 -15 -25 -36 -25 -55 0 -19 9 -40 25 -55 15 -16 36
-25 55 -25 19 0 40 9 55 25 16 15 25 36 25 55 0 19 -9 40 -25 55 -15 16 -36
25 -55 25 -19 0 -40 -9 -55 -25z"/>
<path d="M3705 3735 c-16 -15 -25 -36 -25 -55 0 -19 9 -40 25 -55 l24 -25 391
0 391 0 24 25 c16 15 25 36 25 55 0 19 -9 40 -25 55 l-24 25 -391 0 -391 0
-24 -25z"/>
<path d="M3465 3415 c-16 -15 -25 -36 -25 -55 0 -19 9 -40 25 -55 15 -16 36
-25 55 -25 19 0 40 9 55 25 16 15 25 36 25 55 0 19 -9 40 -25 55 -15 16 -36
25 -55 25 -19 0 -40 -9 -55 -25z"/>
<path d="M3705 3415 c-16 -15 -25 -36 -25 -55 0 -19 9 -40 25 -55 l24 -25 391
0 391 0 24 25 c16 15 25 36 25 55 0 19 -9 40 -25 55 l-24 25 -391 0 -391 0
-24 -25z"/>
<path d="M2585 3015 l-25 -24 0 -672 c0 -498 3 -682 12 -713 16 -55 99 -138
154 -154 31 -9 266 -12 953 -12 l912 0 24 25 c33 32 33 78 0 110 -22 23 -32
25 -119 25 l-95 0 -3 349 c-3 335 -4 351 -24 377 -47 64 -63 69 -214 69 -151
0 -167 -5 -214 -69 -20 -26 -21 -42 -24 -377 l-3 -349 -39 0 -40 0 -2 589 c-3
578 -3 590 -24 617 -47 64 -63 69 -214 69 -151 0 -167 -5 -214 -69 -21 -27
-21 -39 -24 -617 l-2 -589 -40 0 -39 0 -3 469 c-3 456 -4 470 -24 497 -47 64
-63 69 -214 69 -151 0 -167 -5 -214 -69 -20 -27 -21 -41 -24 -497 -3 -512 -1
-501 -57 -444 l-25 24 0 671 0 671 -25 24 c-15 16 -36 25 -55 25 -19 0 -40 -9
-55 -25z m1095 -855 l0 -560 -80 0 -80 0 0 560 0 560 80 0 80 0 0 -560z m-560
-120 l0 -440 -80 0 -80 0 0 440 0 440 80 0 80 0 0 -440z m1120 -120 l0 -320
-80 0 -80 0 0 320 0 320 80 0 80 0 0 -320z"/>
</g>
</svg>
