<svg xmlns="http://www.w3.org/2000/svg" viewBox="0 0 161.33 157.35" xmlns:v="https://vecta.io/nano"><defs><clipPath id="A"><path d="M54.67 55.42h58.67v32H54.67z" fill="none"/></clipPath><clipPath id="B"><path d="M38.67 35.42h122.67v121.94H38.67z" fill="none"/></clipPath><clipPath id="C"><path d="M0 35.42h122.67v121.94H0z" fill="none"/></clipPath><clipPath id="D"><path d="M16 0h129.33v130.08H16z" fill="none"/></clipPath></defs><g clip-path="url(#A)"><path d="M57.05 67.61v-7.75h1.65v7.75zm8.92 0h-1.6v-3.46c0-.43-.08-.75-.23-.96-.16-.22-.4-.33-.73-.33-.46 0-.79.16-1 .46-.2.31-.29.81-.29 1.5v2.79h-1.6v-5.92h1.23l.21.75h.1a1.64 1.64 0 0 1 .73-.65c.32-.15.68-.23 1.08-.23.69 0 1.21.19 1.56.56.36.38.54.92.54 1.63v3.85zm5.8-1.75c0 .6-.22 1.06-.65 1.38-.42.32-1.04.48-1.88.48a6.8 6.8 0 0 1-1.1-.08 3.66 3.66 0 0 1-.85-.25v-1.35c.3.16.65.28 1.02.38.38.08.7.13.98.13.59 0 .9-.17.9-.5 0-.13-.04-.23-.13-.31a1.91 1.91 0 0 0-.42-.27l-.75-.35c-.46-.19-.8-.36-1.02-.52-.21-.17-.36-.35-.46-.56s-.15-.46-.15-.77q0-.795.6-1.23c.42-.29 1-.44 1.75-.44.71 0 1.4.16 2.08.48l-.48 1.17a5.6 5.6 0 0 0-.85-.31 2.54 2.54 0 0 0-.77-.13c-.49 0-.73.13-.73.38 0 .16.07.29.23.4.17.1.51.25 1.02.46.46.18.79.35 1 .52.22.17.38.35.48.56.11.21.17.47.17.77zm3.7-3.14c-.33 0-.6.11-.79.33-.2.22-.31.53-.33.92h2.27c-.02-.39-.13-.69-.33-.92q-.3-.33-.81-.33zm.23 5c-.95 0-1.69-.26-2.23-.79s-.81-1.27-.81-2.23.25-1.77.75-2.31 1.19-.81 2.06-.81 1.48.24 1.94.73c.47.47.71 1.13.71 1.96v.79h-3.81c.01.46.15.82.4 1.08.26.25.63.38 1.08.38a4.52 4.52 0 0 0 1-.1c.32-.07.65-.19 1-.35v1.25c-.28.14-.58.24-.9.31s-.72.1-1.19.1zm7.04-6.15a2.23 2.23 0 0 1 .56.06l-.13 1.5c-.14-.03-.3-.04-.48-.04-.52 0-.92.14-1.21.4-.29.27-.44.64-.44 1.1v3.02h-1.6v-5.92h1.21l.25.98h.08c.18-.33.42-.59.73-.79a1.82 1.82 0 0 1 1.02-.31zm1.55-1.42c0-.53.3-.79.9-.79s.88.27.88.79c0 .25-.08.45-.23.58-.14.14-.35.21-.65.21-.6 0-.9-.26-.9-.79m1.69 7.46h-1.6v-5.92h1.6zm5-6.04a2.23 2.23 0 0 1 .56.06l-.13 1.5c-.14-.03-.3-.04-.48-.04-.52 0-.92.14-1.21.4-.29.27-.44.64-.44 1.1v3.02h-1.6v-5.92h1.21l.25.98h.08c.18-.33.42-.59.73-.79a1.82 1.82 0 0 1 1.02-.31zm8.64 6.04l-.21-.75h-.08c-.18.27-.43.47-.75.63-.32.15-.68.23-1.08.23-.7 0-1.22-.19-1.58-.56-.35-.38-.52-.91-.52-1.6v-3.85h1.63v3.46c0 .42.07.74.23.96.15.21.4.31.73.31.44 0 .76-.15.96-.44.21-.3.31-.81.31-1.52v-2.77h1.63v5.92h-1.25zm8.23 0h-1.6v-3.46c0-.43-.08-.75-.23-.96-.14-.22-.36-.33-.67-.33-.42 0-.72.16-.92.46q-.27.465-.27 1.5v2.79h-1.6v-5.92h1.23l.21.75h.1c.15-.28.38-.49.67-.65.3-.15.65-.23 1.04-.23.89 0 1.49.29 1.81.88h.15c.15-.28.38-.49.69-.65.32-.15.67-.23 1.06-.23.67 0 1.17.18 1.52.52.34.35.52.91.52 1.67v3.85h-1.63v-3.46c0-.43-.08-.75-.23-.96-.14-.22-.36-.33-.67-.33-.39 0-.69.15-.9.44-.2.28-.29.72-.29 1.33v2.98zM72.62 81.55c.28 0 .61-.06 1-.19v1.21c-.41.18-.9.27-1.48.27-.64 0-1.11-.16-1.42-.48-.29-.33-.44-.82-.44-1.48v-2.85h-.77v-.69l.9-.54.46-1.25h1.04v1.27h1.65v1.21h-1.65v2.85c0 .22.06.39.19.5s.3.17.52.17m3.82 1.18h-1.6v-5.92h1.6zm-1.71-6.58V76c.61-.69 1.03-1.22 1.25-1.58h1.81v.1c-.18.18-.49.46-.94.83l-1.04.79h-1.08zm5.91 5.4c.28 0 .61-.06 1-.19v1.21c-.41.18-.9.27-1.48.27-.64 0-1.11-.16-1.42-.48-.29-.33-.44-.82-.44-1.48v-2.85h-.77v-.69l.9-.54.46-1.25h1.04v1.27h1.65v1.21h-1.65v2.85c0 .22.06.39.19.5s.3.17.52.17m6.4 1.18l-.21-.75h-.08c-.18.27-.43.47-.75.63-.32.15-.68.23-1.08.23-.7 0-1.22-.19-1.58-.56-.35-.38-.52-.91-.52-1.6v-3.85h1.63v3.46c0 .42.07.74.23.96.15.21.4.31.73.31.44 0 .76-.15.96-.44.21-.3.31-.81.31-1.52v-2.77h1.63v5.92h-1.25zm4.55 0h-1.6v-8.25h1.6zm3-2.98q0 .9.27 1.35c.19.29.51.44.96.44s.73-.15.92-.44c.19-.3.29-.76.29-1.35s-.1-1.02-.29-1.31c-.2-.29-.51-.44-.94-.44s-.74.15-.94.44c-.18.29-.27.73-.27 1.31m4.08 0c0 .97-.26 1.73-.77 2.27q-.75.81-2.1.81c-.57 0-1.08-.13-1.52-.38a2.5 2.5 0 0 1-1-1.06c-.24-.47-.35-1.02-.35-1.65q0-1.44.75-2.25c.51-.54 1.23-.81 2.15-.81.57 0 1.07.13 1.5.38a2.38 2.38 0 0 1 1 1.08c.23.46.35.99.35 1.6z"/></g><g fill="#be1e2d"><path d="M131.65 157.35 39.73 65.52l29.69-29.66 91.91 91.83-19.39 9.56-10.3 20.11Z" clip-path="url(#B)"/><path d="m29.69 157.35 91.91-91.83-29.69-29.66L0 127.69l19.4 9.56 10.3 20.11Z" clip-path="url(#C)"/></g><path d="M145.2 64.47l-.31 6.32-.93 6.26a61.92 61.92 0 0 1-1.54 6.14l-2.14 5.95-2.7 5.72-3.26 5.43a62 62 0 0 1-3.77 5.08 63.06 63.06 0 0 1-4.25 4.69 63 63 0 0 1-4.69 4.24l-5.09 3.77-5.43 3.26a60.86 60.86 0 0 1-5.72 2.7l-5.96 2.13-6.15 1.54-6.26.93c-2.1.21-4.21.31-6.33.31s-4.22-.1-6.32-.31l-6.27-.93-6.14-1.54c-2.03-.61-4.01-1.32-5.96-2.13l-5.72-2.7a60.95 60.95 0 0 1-5.43-3.26 64 64 0 0 1-5.09-3.77l-4.69-4.24a68 68 0 0 1-4.26-4.69 65 65 0 0 1-3.77-5.08 68 68 0 0 1-3.26-5.43 66 66 0 0 1-2.71-5.72 66 66 0 0 1-2.14-5.95 65 65 0 0 1-1.54-6.14l-.93-6.26-.31-6.32.31-6.32c.2-2.1.52-4.19.93-6.26s.93-4.11 1.54-6.14c.61-2.02 1.33-4.01 2.14-5.96l2.71-5.72c.99-1.86 2.08-3.67 3.26-5.43l3.77-5.08a61.06 61.06 0 0 1 4.26-4.69A64.325 64.325 0 0 1 50.26 7.6a63.56 63.56 0 0 1 5.72-2.71c1.95-.81 3.94-1.52 5.96-2.13a65 65 0 0 1 6.14-1.54q3.105-.615 6.27-.93L80.67 0 87 .31l6.26.93 6.15 1.54c2.02.61 4.01 1.32 5.96 2.13l5.72 2.71a64.325 64.325 0 0 1 15.21 11.27l4.25 4.69a62 62 0 0 1 3.77 5.08 63.4 63.4 0 0 1 5.96 11.15l2.14 5.96a61.23 61.23 0 0 1 1.54 6.14c.42 2.07.72 4.16.93 6.26a63.52 63.52 0 0 1 .31 6.32z" fill="#bc8d2f" clip-path="url(#D)"/><path d="M142.87 64.47a61.8 61.8 0 0 1-1.2 12.12l-1.48 5.92c-.59 1.95-1.28 3.86-2.06 5.74A62 62 0 0 1 132.38 99l-3.64 4.9-4.1 4.52a62.5 62.5 0 0 1-9.43 7.73 66 66 0 0 1-5.23 3.14l-5.52 2.6-5.75 2.06-5.92 1.48a61.06 61.06 0 0 1-6.04.9l-6.1.3a61.77 61.77 0 0 1-6.09-.3l-6.04-.9-5.92-1.48c-1.95-.59-3.86-1.28-5.74-2.06l-5.52-2.6a62.137 62.137 0 0 1-10.13-6.78 65 65 0 0 1-4.53-4.09A62.6 62.6 0 0 1 28.94 99a61.805 61.805 0 0 1-7.8-16.49l-1.48-5.92-.9-6.03a62 62 0 0 1 0-12.18 58.64 58.64 0 0 1 .9-6.04l1.48-5.92a64 64 0 0 1 2.05-5.74q1.17-2.82 2.61-5.52l3.14-5.23 3.64-4.9 4.1-4.52 4.53-4.1a62.931 62.931 0 0 1 10.13-6.77q2.7-1.44 5.52-2.61A62.2 62.2 0 0 1 68.52 3.5l6.04-.9a62 62 0 0 1 18.23.9 62.422 62.422 0 0 1 11.67 3.53q2.82 1.17 5.52 2.61c1.8.96 3.54 2.01 5.23 3.14a62 62 0 0 1 4.91 3.63l4.52 4.1 4.1 4.52 3.64 4.9 3.14 5.23q1.44 2.7 2.61 5.52l2.06 5.74c.6 1.95 1.08 3.92 1.48 5.92s.69 4.01.9 6.04q.3 3.03.3 6.09" fill="#ffc33e"/><path d="M76.4 122.76h-.1c-1.16-.09-1.76-1.52-2.44-3.17-.32-.76-.84-2.02-1.17-2.22-.39.1-1.3 1.2-1.8 1.8-1.14 1.37-2.11 2.55-3.24 2.3-1.13-.26-1.51-1.76-1.94-3.5-.19-.74-.53-2.11-.82-2.38-.4.04-1.46.99-2.05 1.51-1.33 1.19-2.47 2.21-3.55 1.79s-1.22-1.96-1.39-3.74c-.07-.77-.2-2.18-.46-2.48h-.01c-.41 0-1.59.77-2.23 1.19-1.49.97-2.79 1.81-3.79 1.24-1-.58-.92-2.13-.82-3.91.04-.77.13-2.19-.08-2.52-.39-.07-1.68.52-2.39.84-1.63.74-3.03 1.38-3.93.66-.91-.72-.59-2.23-.23-3.98.16-.76.45-2.15.29-2.51-.38-.13-1.74.27-2.48.47-1.72.49-3.2.92-3.99.07-.78-.84-.25-2.29.37-3.96.27-.73.76-2.06.66-2.44-.35-.18-1.76 0-2.53.1-1.77.23-3.31.43-3.96-.52s.09-2.3.95-3.86c.38-.68 1.06-1.92 1.02-2.32-.32-.23-1.74-.26-2.51-.27-1.79-.03-3.33-.07-3.84-1.1-.5-1.04.44-2.26 1.52-3.68.47-.61 1.34-1.75 1.35-2.15-.29-.28-1.68-.52-2.44-.64-1.77-.31-3.29-.56-3.63-1.67-.34-1.1.77-2.17 2.05-3.4.56-.54 1.58-1.53 1.66-1.92-.24-.32-1.58-.76-2.31-1-1.7-.56-3.18-1.05-3.35-2.2-.17-1.14 1.09-2.02 2.54-3.05.64-.45 1.81-1.28 1.94-1.65-.19-.34-1.4-.96-2.13-1.33-1.6-.81-2.98-1.51-2.98-2.67s1.39-1.86 2.98-2.67c.73-.38 1.94-.98 2.13-1.33-.13-.38-1.3-1.21-1.94-1.66-1.45-1.03-2.7-1.92-2.54-3.05.17-1.15 1.65-1.63 3.35-2.2.73-.24 2.07-.69 2.31-1-.08-.39-1.1-1.38-1.66-1.92-1.29-1.23-2.39-2.3-2.05-3.4s1.86-1.36 3.63-1.67c.76-.13 2.15-.37 2.44-.65-.02-.4-.88-1.53-1.35-2.15-1.08-1.41-2.02-2.64-1.52-3.67.5-1.04 2.05-1.07 3.84-1.11.77-.02 2.19-.04 2.51-.27.04-.4-.64-1.64-1.02-2.32-.86-1.56-1.6-2.91-.95-3.86s2.18-.75 3.95-.52c.77.1 2.17.29 2.53.1.1-.38-.4-1.72-.66-2.44-.62-1.67-1.16-3.12-.37-3.96.78-.84 2.27-.42 3.99.07.74.21 2.11.61 2.48.48.15-.36-.14-1.76-.29-2.51-.36-1.75-.68-3.26.22-3.98s2.31-.08 3.93.66c.7.32 1.99.91 2.39.84.21-.34.13-1.76.08-2.53-.1-1.79-.19-3.33.81-3.9 1-.58 2.29.26 3.79 1.23.65.42 1.84 1.21 2.24 1.19.26-.3.39-1.71.46-2.48.17-1.78.31-3.32 1.39-3.74 1.07-.42 2.22.6 3.55 1.79.58.52 1.65 1.47 2.04 1.51.3-.26.64-1.63.83-2.38.43-1.74.81-3.24 1.94-3.5 1.11-.25 2.1.93 3.23 2.3.49.6 1.41 1.7 1.79 1.8.33-.21.85-1.47 1.17-2.22.69-1.66 1.29-3.08 2.44-3.17 1.15-.08 1.94 1.23 2.85 2.75.41.67 1.15 1.9 1.52 2.06.36-.16 1.11-1.39 1.52-2.06.92-1.52 1.7-2.83 2.85-2.75 1.16.09 1.76 1.52 2.44 3.17.32.76.84 2.01 1.17 2.22.38-.1 1.3-1.21 1.79-1.8 1.14-1.37 2.12-2.55 3.24-2.3 1.13.26 1.51 1.76 1.94 3.5.19.74.53 2.11.83 2.38.4-.04 1.46-.99 2.04-1.51 1.33-1.19 2.48-2.21 3.55-1.79 1.08.42 1.22 1.96 1.39 3.74.07.77.21 2.18.46 2.48h.01c.41 0 1.59-.77 2.23-1.19 1.49-.97 2.79-1.81 3.79-1.23s.91 2.12.81 3.9c-.04.77-.13 2.19.08 2.52.39.07 1.68-.52 2.39-.84 1.63-.74 3.03-1.38 3.93-.66.91.72.59 2.23.23 3.98-.16.76-.45 2.15-.29 2.51.38.13 1.74-.26 2.48-.47 1.72-.49 3.2-.92 3.99-.07.78.84.25 2.29-.37 3.96-.27.73-.76 2.06-.66 2.44.35.18 1.76 0 2.53-.1 1.78-.23 3.31-.43 3.96.52s-.09 2.3-.95 3.86c-.38.68-1.06 1.92-1.02 2.32.32.23 1.74.26 2.51.27 1.79.04 3.33.07 3.84 1.11.5 1.04-.44 2.26-1.52 3.67-.47.61-1.34 1.75-1.35 2.15.29.28 1.68.52 2.44.65 1.77.3 3.29.56 3.63 1.67.34 1.1-.77 2.17-2.05 3.4-.56.54-1.58 1.53-1.66 1.92.24.32 1.58.76 2.31 1 1.7.56 3.18 1.05 3.35 2.2.17 1.14-1.08 2.02-2.54 3.05-.64.45-1.81 1.28-1.94 1.66.19.34 1.4.96 2.13 1.33 1.6.81 2.98 1.51 2.98 2.67s-1.39 1.86-2.98 2.67c-.73.37-1.94.98-2.13 1.33.13.38 1.3 1.21 1.94 1.66 1.45 1.03 2.7 1.92 2.54 3.05-.17 1.15-1.65 1.64-3.35 2.2-.73.24-2.07.69-2.31 1 .08.39 1.1 1.39 1.66 1.92 1.29 1.23 2.39 2.3 2.05 3.4s-1.86 1.36-3.63 1.67c-.76.13-2.15.36-2.44.64.02.4.88 1.53 1.35 2.15 1.08 1.42 2.02 2.64 1.52 3.68-.51 1.04-2.05 1.07-3.84 1.1-.77.02-2.19.04-2.51.28-.04.4.64 1.64 1.02 2.32.86 1.56 1.6 2.92.95 3.86-.65.96-2.19.76-3.96.52-.77-.1-2.17-.28-2.53-.1-.1.39.4 1.72.66 2.44.62 1.68 1.16 3.12.37 3.96s-2.27.42-3.99-.07c-.74-.21-2.11-.61-2.48-.48-.16.36.13 1.76.29 2.51.36 1.75.68 3.26-.23 3.98-.9.72-2.3.08-3.93-.66-.7-.32-2-.91-2.39-.84-.21.34-.13 1.76-.08 2.52.1 1.79.19 3.33-.82 3.91-1 .57-2.29-.27-3.79-1.24-.65-.42-1.82-1.19-2.23-1.19h-.01c-.26.3-.39 1.71-.46 2.48-.17 1.78-.31 3.32-1.39 3.74-1.07.42-2.22-.6-3.55-1.79-.58-.52-1.65-1.46-2.04-1.51-.3.26-.64 1.63-.83 2.38-.43 1.74-.81 3.24-1.94 3.5-1.12.25-2.1-.93-3.24-2.3-.49-.6-1.41-1.7-1.79-1.8-.33.21-.85 1.47-1.17 2.22-.69 1.66-1.29 3.08-2.44 3.17-1.14.08-1.94-1.23-2.85-2.75-.41-.67-1.15-1.9-1.52-2.05-.36.15-1.11 1.39-1.52 2.05-.89 1.47-1.66 2.76-2.75 2.76zm4.27-6.31c1.11 0 1.89 1.29 2.79 2.78.42.69 1.11 1.83 1.47 2.02.34-.23.88-1.53 1.18-2.24.67-1.59 1.24-2.97 2.32-3.13 1.1-.17 2.06.99 3.17 2.33.48.58 1.36 1.65 1.76 1.78.3-.28.64-1.64.82-2.39.42-1.68.78-3.13 1.83-3.45 1.06-.32 2.18.68 3.48 1.83.57.51 1.6 1.43 2.01 1.5.25-.33.38-1.72.45-2.48.16-1.72.3-3.21 1.29-3.69s2.26.34 3.71 1.29c.64.42 1.8 1.17 2.21 1.18.2-.36.12-1.76.08-2.52-.1-1.72-.18-3.22.73-3.84.91-.63 2.28 0 3.85.72.69.32 1.95.89 2.37.84.14-.39-.15-1.75-.3-2.5-.35-1.69-.66-3.16.15-3.91.81-.76 2.25-.34 3.92.14.73.21 2.08.59 2.47.48.08-.4-.4-1.71-.67-2.42-.6-1.63-1.12-3.04-.43-3.9s2.17-.67 3.89-.44c.76.1 2.15.28 2.52.11.02-.41-.65-1.63-1.02-2.3-.84-1.52-1.56-2.83-1.01-3.79.55-.95 2.05-.98 3.78-1.01.77-.02 2.16-.04 2.51-.27-.04-.41-.89-1.52-1.35-2.12-1.05-1.38-1.97-2.57-1.56-3.6.4-1.02 1.88-1.27 3.58-1.57.76-.13 2.14-.36 2.44-.64-.1-.4-1.1-1.36-1.65-1.89-1.25-1.21-2.33-2.25-2.09-3.33.24-1.07 1.66-1.54 3.3-2.08.73-.24 2.06-.68 2.32-1.01-.16-.38-1.29-1.18-1.91-1.61-1.42-1.01-2.65-1.88-2.57-2.98.08-1.09 1.41-1.77 2.95-2.54.69-.35 1.95-.99 2.16-1.34-.2-.36-1.46-.99-2.16-1.35-1.54-.78-2.87-1.45-2.95-2.54-.08-1.1 1.15-1.97 2.57-2.98.66-.47 1.75-1.24 1.91-1.61-.26-.32-1.59-.76-2.32-1.01-1.65-.54-3.06-1.01-3.3-2.08-.24-1.08.83-2.12 2.09-3.33.55-.53 1.55-1.49 1.65-1.89-.3-.28-1.69-.51-2.44-.64-1.7-.29-3.18-.55-3.58-1.57-.41-1.03.51-2.22 1.56-3.6.46-.6 1.31-1.71 1.35-2.11-.35-.23-1.74-.26-2.51-.27-1.73-.03-3.23-.06-3.78-1.01s.17-2.27 1.01-3.79c.37-.67 1.04-1.89 1.02-2.3-.38-.17-1.76.01-2.52.11-1.72.23-3.2.42-3.89-.44s-.17-2.27.43-3.9c.27-.71.75-2.02.67-2.42-.4-.11-1.73.27-2.47.48-1.67.48-3.11.89-3.92.14s-.5-2.21-.15-3.91c.15-.75.44-2.11.3-2.5-.41-.05-1.68.53-2.37.84-1.58.72-2.94 1.34-3.85.72s-.83-2.11-.73-3.84c.04-.77.12-2.16-.08-2.52-.41.01-1.58.77-2.21 1.18-1.46.95-2.71 1.77-3.71 1.29-.99-.47-1.13-1.96-1.29-3.69-.07-.76-.2-2.15-.45-2.48-.41.07-1.44.99-2.01 1.49-1.3 1.16-2.42 2.16-3.48 1.83-1.05-.32-1.41-1.77-1.83-3.45-.19-.74-.53-2.1-.82-2.39-.39.13-1.28 1.2-1.76 1.78-1.11 1.34-2.08 2.49-3.17 2.33-1.08-.16-1.66-1.54-2.32-3.13-.3-.71-.83-2.01-1.18-2.24-.36.19-1.05 1.32-1.47 2.02-.9 1.49-1.68 2.78-2.79 2.78s-1.89-1.29-2.79-2.78c-.42-.7-1.1-1.83-1.47-2.02-.34.23-.88 1.53-1.18 2.24-.66 1.59-1.24 2.97-2.32 3.13-1.09.16-2.05-.99-3.17-2.33-.48-.58-1.37-1.65-1.76-1.78-.3.29-.64 1.65-.83 2.39-.42 1.68-.78 3.13-1.83 3.45-1.06.33-2.18-.67-3.48-1.83-.57-.51-1.6-1.43-2.01-1.49-.25.32-.39 1.72-.45 2.48-.16 1.72-.31 3.21-1.3 3.69s-2.25-.34-3.71-1.29c-.64-.42-1.8-1.18-2.21-1.18-.2.36-.12 1.75-.08 2.52.1 1.73.18 3.22-.73 3.84s-2.27 0-3.85-.72c-.69-.31-1.96-.89-2.37-.84-.14.39.15 1.75.3 2.49.35 1.7.66 3.17-.15 3.92s-2.25.33-3.92-.14c-.73-.21-2.08-.6-2.47-.48-.08.41.4 1.71.67 2.43.6 1.63 1.12 3.03.43 3.89s-2.17.67-3.89.44c-.76-.1-2.15-.28-2.52-.11-.03.41.65 1.63 1.02 2.29.83 1.52 1.56 2.83 1.01 3.79-.55.95-2.05.98-3.78 1.02-.77.01-2.16.04-2.51.27.04.41.88 1.51 1.34 2.11 1.05 1.38 1.97 2.57 1.56 3.6-.4 1.03-1.88 1.28-3.58 1.57-.76.13-2.14.36-2.44.64.1.4 1.1 1.36 1.65 1.89 1.25 1.21 2.33 2.25 2.09 3.33-.24 1.07-1.66 1.54-3.3 2.08-.73.24-2.06.68-2.32 1 .16.38 1.24 1.15 1.91 1.61 1.43 1.01 2.65 1.88 2.57 2.98-.08 1.09-1.41 1.77-2.95 2.55-.69.35-1.95.98-2.16 1.34.2.35 1.46.99 2.16 1.34 1.54.78 2.87 1.45 2.95 2.54.08 1.11-1.15 1.98-2.57 2.99-.66.46-1.74 1.24-1.91 1.61.26.32 1.59.76 2.32 1 1.65.55 3.06 1.01 3.3 2.08.24 1.08-.83 2.12-2.09 3.33-.55.53-1.55 1.49-1.65 1.89.31.28 1.69.52 2.44.65 1.7.29 3.18.54 3.58 1.56.41 1.03-.51 2.22-1.56 3.6-.46.6-1.31 1.7-1.34 2.11.34.22 1.74.25 2.51.27 1.73.03 3.23.06 3.78 1.02s-.17 2.27-1.01 3.79c-.37.67-1.04 1.89-1.02 2.29.37.17 1.76-.01 2.52-.11 1.72-.22 3.2-.42 3.89.44s.17 2.27-.43 3.9c-.27.71-.75 2.02-.67 2.43.4.11 1.74-.27 2.47-.48 1.67-.47 3.11-.89 3.92-.14s.51 2.21.15 3.91c-.15.75-.44 2.11-.3 2.5.41.05 1.68-.53 2.37-.84 1.58-.72 2.95-1.34 3.85-.72.91.62.83 2.11.73 3.84-.04.76-.11 2.16.08 2.52.41-.01 1.58-.77 2.21-1.18 1.46-.95 2.71-1.77 3.71-1.29.99.48 1.14 1.97 1.3 3.69.07.76.2 2.16.45 2.48.4-.07 1.44-.99 2.01-1.5 1.3-1.16 2.42-2.16 3.48-1.83 1.05.32 1.41 1.77 1.83 3.45.19.74.53 2.1.83 2.39.39-.14 1.27-1.2 1.76-1.78 1.11-1.34 2.07-2.5 3.17-2.33 1.08.16 1.66 1.54 2.32 3.13.3.71.84 2.01 1.18 2.24.36-.19 1.05-1.32 1.47-2.02.9-1.49 1.68-2.79 2.79-2.79zm49.29-51.98q0 2.415-.24 4.83l-.71 4.78c-.31 1.58-.71 3.15-1.18 4.69a47 47 0 0 1-1.63 4.55l-2.07 4.36a51 51 0 0 1-2.49 4.15l-2.88 3.89-3.25 3.58a47.77 47.77 0 0 1-3.58 3.24 47.65 47.65 0 0 1-3.89 2.88l-4.15 2.48-4.37 2.07-4.56 1.63-4.69 1.18-4.79.71c-1.61.16-3.22.23-4.83.23s-3.22-.08-4.83-.23l-4.79-.71-4.69-1.18-4.55-1.63q-2.235-.93-4.38-2.07l-4.15-2.48-3.88-2.88a47.77 47.77 0 0 1-6.83-6.82 50 50 0 0 1-2.89-3.89c-.9-1.34-1.72-2.72-2.48-4.15l-2.07-4.36c-.62-1.49-1.16-3.01-1.63-4.55s-.86-3.11-1.18-4.69l-.71-4.78a48.51 48.51 0 0 1-.23-4.83l.23-4.83.71-4.78 1.18-4.69a49.3 49.3 0 0 1 3.7-8.92l2.48-4.15 2.89-3.88a47.8 47.8 0 0 1 6.83-6.82 48.357 48.357 0 0 1 8.03-5.36c1.42-.76 2.88-1.45 4.38-2.06 1.49-.62 3.01-1.16 4.55-1.63s3.11-.86 4.69-1.17a48.509 48.509 0 0 1 9.62-.94l4.83.23 4.79.71 4.69 1.17 4.56 1.63a49.414 49.414 0 0 1 8.52 4.54 49.4 49.4 0 0 1 7.47 6.12l3.25 3.58a49.514 49.514 0 0 1 7.44 12.4l1.63 4.55 1.18 4.69c.32 1.58.55 3.17.71 4.78l.24 4.83" fill="#bc8d2f"/><path d="M65.71 50.58V32.23h29.93v64.48H75.07V50.58h-9.35Z" fill="#fff"/></svg>