<svg xmlns="http://www.w3.org/2000/svg" xmlns:xlink="http://www.w3.org/1999/xlink" width="162" zoomAndPan="magnify" viewBox="0 0 121.5 121.499994" height="162" preserveAspectRatio="xMidYMid meet" version="1.0"><defs><g/><clipPath id="3cfa53b7db"><rect x="0" width="44" y="0" height="24"/></clipPath><clipPath id="2fac05066f"><path d="M 30 28 L 121 28 L 121 119.648438 L 30 119.648438 Z M 30 28 " clip-rule="nonzero"/></clipPath><clipPath id="29f18d993e"><path d="M 0.351562 28 L 92 28 L 92 119.648438 L 0.351562 119.648438 Z M 0.351562 28 " clip-rule="nonzero"/></clipPath><clipPath id="5842af5f33"><path d="M 12 1.632812 L 109 1.632812 L 109 99 L 12 99 Z M 12 1.632812 " clip-rule="nonzero"/></clipPath></defs><g transform="matrix(1, 0, 0, 1, 41, 43)"><g clip-path="url(#3cfa53b7db)"><g fill="#000000" fill-opacity="1"><g transform="translate(1.049653, 9.147261)"><g><path d="M 0.734375 0 L 0.734375 -5.8125 L 1.96875 -5.8125 L 1.96875 0 Z M 0.734375 0 "/></g></g></g><g fill="#000000" fill-opacity="1"><g transform="translate(3.743529, 9.147261)"><g><path d="M 4.734375 0 L 3.53125 0 L 3.53125 -2.59375 C 3.53125 -2.914062 3.472656 -3.15625 3.359375 -3.3125 C 3.242188 -3.476562 3.0625 -3.5625 2.8125 -3.5625 C 2.46875 -3.5625 2.21875 -3.445312 2.0625 -3.21875 C 1.914062 -2.988281 1.84375 -2.613281 1.84375 -2.09375 L 1.84375 0 L 0.640625 0 L 0.640625 -4.4375 L 1.5625 -4.4375 L 1.71875 -3.875 L 1.796875 -3.875 C 1.929688 -4.09375 2.113281 -4.253906 2.34375 -4.359375 C 2.582031 -4.472656 2.851562 -4.53125 3.15625 -4.53125 C 3.675781 -4.53125 4.066406 -4.390625 4.328125 -4.109375 C 4.597656 -3.828125 4.734375 -3.421875 4.734375 -2.890625 Z M 4.734375 0 "/></g></g></g><g fill="#000000" fill-opacity="1"><g transform="translate(9.091548, 9.147261)"><g><path d="M 3.734375 -1.3125 C 3.734375 -0.863281 3.570312 -0.519531 3.25 -0.28125 C 2.9375 -0.0390625 2.46875 0.078125 1.84375 0.078125 C 1.519531 0.078125 1.242188 0.0546875 1.015625 0.015625 C 0.785156 -0.0234375 0.570312 -0.0859375 0.375 -0.171875 L 0.375 -1.1875 C 0.601562 -1.070312 0.859375 -0.976562 1.140625 -0.90625 C 1.421875 -0.84375 1.664062 -0.8125 1.875 -0.8125 C 2.320312 -0.8125 2.546875 -0.9375 2.546875 -1.1875 C 2.546875 -1.28125 2.515625 -1.359375 2.453125 -1.421875 C 2.390625 -1.484375 2.285156 -1.550781 2.140625 -1.625 C 2.003906 -1.695312 1.816406 -1.785156 1.578125 -1.890625 C 1.234375 -2.035156 0.976562 -2.164062 0.8125 -2.28125 C 0.65625 -2.40625 0.539062 -2.546875 0.46875 -2.703125 C 0.394531 -2.859375 0.359375 -3.050781 0.359375 -3.28125 C 0.359375 -3.675781 0.507812 -3.984375 0.8125 -4.203125 C 1.125 -4.421875 1.5625 -4.53125 2.125 -4.53125 C 2.65625 -4.53125 3.175781 -4.410156 3.6875 -4.171875 L 3.328125 -3.296875 C 3.097656 -3.398438 2.882812 -3.476562 2.6875 -3.53125 C 2.5 -3.59375 2.304688 -3.625 2.109375 -3.625 C 1.742188 -3.625 1.5625 -3.53125 1.5625 -3.34375 C 1.5625 -3.226562 1.617188 -3.128906 1.734375 -3.046875 C 1.859375 -2.972656 2.113281 -2.859375 2.5 -2.703125 C 2.84375 -2.566406 3.09375 -2.4375 3.25 -2.3125 C 3.414062 -2.1875 3.535156 -2.046875 3.609375 -1.890625 C 3.691406 -1.734375 3.734375 -1.539062 3.734375 -1.3125 Z M 3.734375 -1.3125 "/></g></g></g><g fill="#000000" fill-opacity="1"><g transform="translate(13.136335, 9.147261)"><g><path d="M 2.46875 -3.671875 C 2.21875 -3.671875 2.019531 -3.585938 1.875 -3.421875 C 1.726562 -3.253906 1.644531 -3.023438 1.625 -2.734375 L 3.328125 -2.734375 C 3.316406 -3.023438 3.234375 -3.253906 3.078125 -3.421875 C 2.929688 -3.585938 2.726562 -3.671875 2.46875 -3.671875 Z M 2.640625 0.078125 C 1.929688 0.078125 1.375 -0.117188 0.96875 -0.515625 C 0.5625 -0.910156 0.359375 -1.46875 0.359375 -2.1875 C 0.359375 -2.9375 0.546875 -3.515625 0.921875 -3.921875 C 1.296875 -4.328125 1.8125 -4.53125 2.46875 -4.53125 C 3.09375 -4.53125 3.578125 -4.347656 3.921875 -3.984375 C 4.273438 -3.628906 4.453125 -3.140625 4.453125 -2.515625 L 4.453125 -1.921875 L 1.59375 -1.921875 C 1.601562 -1.578125 1.703125 -1.304688 1.890625 -1.109375 C 2.085938 -0.921875 2.359375 -0.828125 2.703125 -0.828125 C 2.972656 -0.828125 3.222656 -0.851562 3.453125 -0.90625 C 3.691406 -0.957031 3.941406 -1.046875 4.203125 -1.171875 L 4.203125 -0.234375 C 3.992188 -0.128906 3.769531 -0.0507812 3.53125 0 C 3.289062 0.0507812 2.992188 0.078125 2.640625 0.078125 Z M 2.640625 0.078125 "/></g></g></g><g fill="#000000" fill-opacity="1"><g transform="translate(17.94399, 9.147261)"><g><path d="M 3.109375 -4.53125 C 3.273438 -4.53125 3.414062 -4.515625 3.53125 -4.484375 L 3.4375 -3.359375 C 3.332031 -3.378906 3.210938 -3.390625 3.078125 -3.390625 C 2.691406 -3.390625 2.390625 -3.289062 2.171875 -3.09375 C 1.953125 -2.894531 1.84375 -2.617188 1.84375 -2.265625 L 1.84375 0 L 0.640625 0 L 0.640625 -4.4375 L 1.546875 -4.4375 L 1.734375 -3.703125 L 1.796875 -3.703125 C 1.929688 -3.953125 2.113281 -4.148438 2.34375 -4.296875 C 2.582031 -4.453125 2.835938 -4.53125 3.109375 -4.53125 Z M 3.109375 -4.53125 "/></g></g></g><g fill="#000000" fill-opacity="1"><g transform="translate(21.63913, 9.147261)"><g><path d="M 0.578125 -5.59375 C 0.578125 -5.988281 0.800781 -6.1875 1.25 -6.1875 C 1.6875 -6.1875 1.90625 -5.988281 1.90625 -5.59375 C 1.90625 -5.40625 1.847656 -5.257812 1.734375 -5.15625 C 1.628906 -5.050781 1.46875 -5 1.25 -5 C 0.800781 -5 0.578125 -5.195312 0.578125 -5.59375 Z M 1.84375 0 L 0.640625 0 L 0.640625 -4.4375 L 1.84375 -4.4375 Z M 1.84375 0 "/></g></g></g><g fill="#000000" fill-opacity="1"><g transform="translate(24.122423, 9.147261)"><g><path d="M 3.109375 -4.53125 C 3.273438 -4.53125 3.414062 -4.515625 3.53125 -4.484375 L 3.4375 -3.359375 C 3.332031 -3.378906 3.210938 -3.390625 3.078125 -3.390625 C 2.691406 -3.390625 2.390625 -3.289062 2.171875 -3.09375 C 1.953125 -2.894531 1.84375 -2.617188 1.84375 -2.265625 L 1.84375 0 L 0.640625 0 L 0.640625 -4.4375 L 1.546875 -4.4375 L 1.734375 -3.703125 L 1.796875 -3.703125 C 1.929688 -3.953125 2.113281 -4.148438 2.34375 -4.296875 C 2.582031 -4.453125 2.835938 -4.53125 3.109375 -4.53125 Z M 3.109375 -4.53125 "/></g></g></g><g fill="#000000" fill-opacity="1"><g transform="translate(27.817562, 9.147261)"><g/></g></g><g fill="#000000" fill-opacity="1"><g transform="translate(29.931341, 9.147261)"><g><path d="M 3.78125 0 L 3.625 -0.5625 L 3.5625 -0.5625 C 3.425781 -0.363281 3.238281 -0.207031 3 -0.09375 C 2.757812 0.0195312 2.488281 0.078125 2.1875 0.078125 C 1.664062 0.078125 1.269531 -0.0625 1 -0.34375 C 0.738281 -0.625 0.609375 -1.023438 0.609375 -1.546875 L 0.609375 -4.4375 L 1.828125 -4.4375 L 1.828125 -1.84375 C 1.828125 -1.53125 1.882812 -1.289062 2 -1.125 C 2.113281 -0.96875 2.296875 -0.890625 2.546875 -0.890625 C 2.878906 -0.890625 3.117188 -1 3.265625 -1.21875 C 3.421875 -1.445312 3.5 -1.828125 3.5 -2.359375 L 3.5 -4.4375 L 4.71875 -4.4375 L 4.71875 0 Z M 3.78125 0 "/></g></g></g><g fill="#000000" fill-opacity="1"><g transform="translate(35.279361, 9.147261)"><g><path d="M 4.609375 0 L 3.40625 0 L 3.40625 -2.59375 C 3.40625 -2.914062 3.347656 -3.15625 3.234375 -3.3125 C 3.128906 -3.476562 2.960938 -3.5625 2.734375 -3.5625 C 2.421875 -3.5625 2.191406 -3.445312 2.046875 -3.21875 C 1.910156 -2.988281 1.84375 -2.613281 1.84375 -2.09375 L 1.84375 0 L 0.640625 0 L 0.640625 -4.4375 L 1.5625 -4.4375 L 1.71875 -3.875 L 1.796875 -3.875 C 1.910156 -4.082031 2.078125 -4.242188 2.296875 -4.359375 C 2.523438 -4.472656 2.785156 -4.53125 3.078125 -4.53125 C 3.742188 -4.53125 4.195312 -4.3125 4.4375 -3.875 L 4.546875 -3.875 C 4.660156 -4.082031 4.832031 -4.242188 5.0625 -4.359375 C 5.300781 -4.472656 5.566406 -4.53125 5.859375 -4.53125 C 6.359375 -4.53125 6.738281 -4.398438 7 -4.140625 C 7.257812 -3.878906 7.390625 -3.460938 7.390625 -2.890625 L 7.390625 0 L 6.171875 0 L 6.171875 -2.59375 C 6.171875 -2.914062 6.113281 -3.15625 6 -3.3125 C 5.894531 -3.476562 5.726562 -3.5625 5.5 -3.5625 C 5.207031 -3.5625 4.984375 -3.453125 4.828125 -3.234375 C 4.679688 -3.023438 4.609375 -2.691406 4.609375 -2.234375 Z M 4.609375 0 "/></g></g></g><g fill="#000000" fill-opacity="1"><g transform="translate(10.952023, 20.487622)"><g><path d="M 2.515625 -0.890625 C 2.722656 -0.890625 2.972656 -0.9375 3.265625 -1.03125 L 3.265625 -0.125 C 2.960938 0.0078125 2.59375 0.078125 2.15625 0.078125 C 1.675781 0.078125 1.320312 -0.0390625 1.09375 -0.28125 C 0.875 -0.53125 0.765625 -0.898438 0.765625 -1.390625 L 0.765625 -3.53125 L 0.1875 -3.53125 L 0.1875 -4.046875 L 0.859375 -4.453125 L 1.203125 -5.390625 L 1.984375 -5.390625 L 1.984375 -4.4375 L 3.21875 -4.4375 L 3.21875 -3.53125 L 1.984375 -3.53125 L 1.984375 -1.390625 C 1.984375 -1.222656 2.03125 -1.097656 2.125 -1.015625 C 2.21875 -0.929688 2.347656 -0.890625 2.515625 -0.890625 Z M 2.515625 -0.890625 "/></g></g></g><g fill="#000000" fill-opacity="1"><g transform="translate(14.484258, 20.487622)"><g><path d="M 1.84375 0 L 0.640625 0 L 0.640625 -4.4375 L 1.84375 -4.4375 Z M 0.5625 -4.9375 L 0.5625 -5.046875 C 1.019531 -5.566406 1.332031 -5.960938 1.5 -6.234375 L 2.859375 -6.234375 L 2.859375 -6.15625 C 2.722656 -6.019531 2.488281 -5.8125 2.15625 -5.53125 C 1.820312 -5.257812 1.5625 -5.0625 1.375 -4.9375 Z M 0.5625 -4.9375 "/></g></g></g><g fill="#000000" fill-opacity="1"><g transform="translate(16.967551, 20.487622)"><g><path d="M 2.515625 -0.890625 C 2.722656 -0.890625 2.972656 -0.9375 3.265625 -1.03125 L 3.265625 -0.125 C 2.960938 0.0078125 2.59375 0.078125 2.15625 0.078125 C 1.675781 0.078125 1.320312 -0.0390625 1.09375 -0.28125 C 0.875 -0.53125 0.765625 -0.898438 0.765625 -1.390625 L 0.765625 -3.53125 L 0.1875 -3.53125 L 0.1875 -4.046875 L 0.859375 -4.453125 L 1.203125 -5.390625 L 1.984375 -5.390625 L 1.984375 -4.4375 L 3.21875 -4.4375 L 3.21875 -3.53125 L 1.984375 -3.53125 L 1.984375 -1.390625 C 1.984375 -1.222656 2.03125 -1.097656 2.125 -1.015625 C 2.21875 -0.929688 2.347656 -0.890625 2.515625 -0.890625 Z M 2.515625 -0.890625 "/></g></g></g><g fill="#000000" fill-opacity="1"><g transform="translate(20.499787, 20.487622)"><g><path d="M 3.78125 0 L 3.625 -0.5625 L 3.5625 -0.5625 C 3.425781 -0.363281 3.238281 -0.207031 3 -0.09375 C 2.757812 0.0195312 2.488281 0.078125 2.1875 0.078125 C 1.664062 0.078125 1.269531 -0.0625 1 -0.34375 C 0.738281 -0.625 0.609375 -1.023438 0.609375 -1.546875 L 0.609375 -4.4375 L 1.828125 -4.4375 L 1.828125 -1.84375 C 1.828125 -1.53125 1.882812 -1.289062 2 -1.125 C 2.113281 -0.96875 2.296875 -0.890625 2.546875 -0.890625 C 2.878906 -0.890625 3.117188 -1 3.265625 -1.21875 C 3.421875 -1.445312 3.5 -1.828125 3.5 -2.359375 L 3.5 -4.4375 L 4.71875 -4.4375 L 4.71875 0 Z M 3.78125 0 "/></g></g></g><g fill="#000000" fill-opacity="1"><g transform="translate(25.847806, 20.487622)"><g><path d="M 1.84375 0 L 0.640625 0 L 0.640625 -6.1875 L 1.84375 -6.1875 Z M 1.84375 0 "/></g></g></g><g fill="#000000" fill-opacity="1"><g transform="translate(28.331099, 20.487622)"><g><path d="M 1.609375 -2.234375 C 1.609375 -1.785156 1.675781 -1.445312 1.8125 -1.21875 C 1.957031 -1 2.195312 -0.890625 2.53125 -0.890625 C 2.851562 -0.890625 3.082031 -1 3.21875 -1.21875 C 3.363281 -1.445312 3.4375 -1.785156 3.4375 -2.234375 C 3.4375 -2.671875 3.363281 -3 3.21875 -3.21875 C 3.070312 -3.4375 2.835938 -3.546875 2.515625 -3.546875 C 2.191406 -3.546875 1.957031 -3.4375 1.8125 -3.21875 C 1.675781 -3 1.609375 -2.671875 1.609375 -2.234375 Z M 4.671875 -2.234375 C 4.671875 -1.503906 4.476562 -0.9375 4.09375 -0.53125 C 3.71875 -0.125 3.191406 0.078125 2.515625 0.078125 C 2.085938 0.078125 1.707031 -0.015625 1.375 -0.203125 C 1.050781 -0.390625 0.800781 -0.65625 0.625 -1 C 0.445312 -1.351562 0.359375 -1.765625 0.359375 -2.234375 C 0.359375 -2.953125 0.546875 -3.515625 0.921875 -3.921875 C 1.304688 -4.328125 1.84375 -4.53125 2.53125 -4.53125 C 2.957031 -4.53125 3.332031 -4.4375 3.65625 -4.25 C 3.988281 -4.0625 4.238281 -3.789062 4.40625 -3.4375 C 4.582031 -3.09375 4.671875 -2.691406 4.671875 -2.234375 Z M 4.671875 -2.234375 "/></g></g></g></g></g><g clip-path="url(#2fac05066f)"><path fill="#be1e2d" d="M 98.777344 119.355469 L 30.074219 50.65625 L 52.265625 28.460938 L 120.96875 97.164062 L 106.472656 104.3125 Z M 98.777344 119.355469 " fill-opacity="1" fill-rule="nonzero"/></g><g clip-path="url(#29f18d993e)"><path fill="#be1e2d" d="M 22.566406 119.355469 L 91.269531 50.65625 L 69.078125 28.460938 L 0.375 97.164062 L 14.871094 104.3125 Z M 22.566406 119.355469 " fill-opacity="1" fill-rule="nonzero"/></g><g clip-path="url(#5842af5f33)"><path fill="#ff751f" d="M 108.910156 49.871094 C 108.910156 51.449219 108.832031 53.027344 108.675781 54.597656 C 108.523438 56.171875 108.289062 57.730469 107.984375 59.28125 C 107.675781 60.832031 107.289062 62.363281 106.832031 63.875 C 106.375 65.386719 105.84375 66.871094 105.238281 68.332031 C 104.632812 69.789062 103.957031 71.214844 103.214844 72.609375 C 102.46875 74.003906 101.65625 75.355469 100.78125 76.671875 C 99.902344 77.984375 98.960938 79.25 97.960938 80.472656 C 96.957031 81.695312 95.898438 82.863281 94.78125 83.980469 C 93.664062 85.097656 92.496094 86.15625 91.273438 87.160156 C 90.050781 88.160156 88.785156 89.101562 87.472656 89.980469 C 86.15625 90.855469 84.804688 91.667969 83.410156 92.414062 C 82.019531 93.15625 80.589844 93.832031 79.132812 94.4375 C 77.671875 95.039062 76.1875 95.574219 74.675781 96.03125 C 73.164062 96.488281 71.632812 96.871094 70.082031 97.179688 C 68.535156 97.488281 66.972656 97.722656 65.402344 97.875 C 63.828125 98.03125 62.253906 98.109375 60.671875 98.109375 C 59.09375 98.109375 57.515625 98.03125 55.945312 97.875 C 54.371094 97.722656 52.8125 97.488281 51.261719 97.179688 C 49.710938 96.875 48.183594 96.488281 46.667969 96.03125 C 45.15625 95.574219 43.671875 95.039062 42.210938 94.4375 C 40.753906 93.832031 39.328125 93.15625 37.933594 92.414062 C 36.539062 91.667969 35.1875 90.855469 33.875 89.980469 C 32.558594 89.101562 31.292969 88.160156 30.070312 87.160156 C 28.851562 86.15625 27.679688 85.097656 26.5625 83.980469 C 25.445312 82.863281 24.386719 81.695312 23.382812 80.472656 C 22.382812 79.25 21.441406 77.984375 20.566406 76.671875 C 19.6875 75.355469 18.875 74.003906 18.132812 72.609375 C 17.386719 71.214844 16.710938 69.789062 16.105469 68.332031 C 15.503906 66.871094 14.972656 65.386719 14.511719 63.875 C 14.054688 62.363281 13.671875 60.832031 13.363281 59.28125 C 13.054688 57.730469 12.824219 56.171875 12.667969 54.597656 C 12.511719 53.027344 12.433594 51.449219 12.433594 49.871094 C 12.433594 48.292969 12.511719 46.714844 12.667969 45.144531 C 12.824219 43.570312 13.054688 42.011719 13.363281 40.460938 C 13.671875 38.910156 14.054688 37.378906 14.511719 35.867188 C 14.972656 34.355469 15.503906 32.871094 16.105469 31.410156 C 16.710938 29.953125 17.386719 28.527344 18.132812 27.132812 C 18.875 25.738281 19.6875 24.386719 20.566406 23.070312 C 21.441406 21.757812 22.382812 20.492188 23.382812 19.269531 C 24.386719 18.046875 25.445312 16.878906 26.5625 15.761719 C 27.679688 14.644531 28.851562 13.585938 30.070312 12.582031 C 31.292969 11.582031 32.558594 10.640625 33.875 9.761719 C 35.1875 8.886719 36.539062 8.074219 37.933594 7.328125 C 39.328125 6.585938 40.753906 5.910156 42.210938 5.304688 C 43.671875 4.703125 45.15625 4.167969 46.667969 3.710938 C 48.183594 3.253906 49.710938 2.867188 51.261719 2.5625 C 52.8125 2.253906 54.371094 2.019531 55.945312 1.867188 C 57.515625 1.710938 59.09375 1.632812 60.671875 1.632812 C 62.253906 1.632812 63.828125 1.710938 65.402344 1.867188 C 66.972656 2.019531 68.535156 2.253906 70.082031 2.5625 C 71.632812 2.867188 73.164062 3.253906 74.675781 3.710938 C 76.1875 4.167969 77.671875 4.703125 79.132812 5.304688 C 80.589844 5.910156 82.019531 6.585938 83.410156 7.328125 C 84.804688 8.074219 86.15625 8.886719 87.472656 9.761719 C 88.785156 10.640625 90.050781 11.582031 91.273438 12.582031 C 92.496094 13.585938 93.664062 14.644531 94.78125 15.761719 C 95.898438 16.878906 96.957031 18.046875 97.960938 19.269531 C 98.960938 20.492188 99.902344 21.757812 100.78125 23.070312 C 101.65625 24.386719 102.46875 25.738281 103.214844 27.132812 C 103.957031 28.527344 104.632812 29.953125 105.238281 31.410156 C 105.84375 32.871094 106.375 34.355469 106.832031 35.867188 C 107.289062 37.378906 107.675781 38.910156 107.984375 40.460938 C 108.289062 42.011719 108.523438 43.570312 108.675781 45.144531 C 108.832031 46.714844 108.910156 48.292969 108.910156 49.871094 Z M 108.910156 49.871094 " fill-opacity="1" fill-rule="nonzero"/></g><path fill="#ff914d" d="M 107.167969 49.871094 C 107.167969 51.394531 107.09375 52.914062 106.945312 54.429688 C 106.796875 55.945312 106.570312 57.449219 106.273438 58.941406 C 105.976562 60.433594 105.609375 61.910156 105.164062 63.367188 C 104.722656 64.824219 104.210938 66.257812 103.628906 67.664062 C 103.046875 69.070312 102.394531 70.445312 101.679688 71.789062 C 100.960938 73.132812 100.179688 74.4375 99.332031 75.703125 C 98.484375 76.96875 97.582031 78.191406 96.613281 79.367188 C 95.648438 80.542969 94.625 81.671875 93.550781 82.75 C 92.472656 83.824219 91.347656 84.847656 90.167969 85.8125 C 88.992188 86.777344 87.769531 87.683594 86.503906 88.53125 C 85.238281 89.375 83.933594 90.160156 82.589844 90.875 C 81.246094 91.59375 79.871094 92.246094 78.464844 92.828125 C 77.058594 93.410156 75.625 93.921875 74.167969 94.363281 C 72.710938 94.808594 71.238281 95.175781 69.742188 95.472656 C 68.25 95.769531 66.746094 95.992188 65.230469 96.144531 C 63.714844 96.292969 62.195312 96.367188 60.671875 96.367188 C 59.148438 96.367188 57.628906 96.292969 56.113281 96.144531 C 54.597656 95.992188 53.09375 95.769531 51.601562 95.472656 C 50.109375 95.175781 48.632812 94.808594 47.175781 94.363281 C 45.71875 93.921875 44.285156 93.410156 42.878906 92.828125 C 41.472656 92.246094 40.097656 91.59375 38.753906 90.875 C 37.410156 90.160156 36.105469 89.375 34.839844 88.53125 C 33.574219 87.683594 32.351562 86.777344 31.175781 85.8125 C 30 84.847656 28.871094 83.824219 27.796875 82.75 C 26.71875 81.671875 25.695312 80.542969 24.730469 79.367188 C 23.765625 78.191406 22.859375 76.96875 22.011719 75.703125 C 21.167969 74.4375 20.382812 73.132812 19.667969 71.789062 C 18.949219 70.445312 18.296875 69.070312 17.714844 67.664062 C 17.132812 66.257812 16.621094 64.824219 16.179688 63.367188 C 15.738281 61.910156 15.367188 60.433594 15.070312 58.941406 C 14.773438 57.449219 14.550781 55.945312 14.402344 54.429688 C 14.25 52.914062 14.175781 51.394531 14.175781 49.871094 C 14.175781 48.347656 14.25 46.828125 14.402344 45.3125 C 14.550781 43.796875 14.773438 42.292969 15.070312 40.800781 C 15.367188 39.308594 15.738281 37.832031 16.179688 36.375 C 16.621094 34.917969 17.132812 33.484375 17.714844 32.078125 C 18.296875 30.671875 18.949219 29.296875 19.667969 27.953125 C 20.382812 26.609375 21.167969 25.304688 22.011719 24.039062 C 22.859375 22.773438 23.765625 21.550781 24.730469 20.375 C 25.695312 19.199219 26.71875 18.070312 27.796875 16.992188 C 28.871094 15.917969 30 14.894531 31.175781 13.929688 C 32.351562 12.964844 33.574219 12.058594 34.839844 11.210938 C 36.105469 10.367188 37.410156 9.582031 38.753906 8.867188 C 40.097656 8.148438 41.472656 7.496094 42.878906 6.914062 C 44.285156 6.332031 45.71875 5.820312 47.175781 5.378906 C 48.632812 4.933594 50.109375 4.566406 51.601562 4.269531 C 53.09375 3.972656 54.597656 3.75 56.113281 3.597656 C 57.628906 3.449219 59.148438 3.375 60.671875 3.375 C 62.195312 3.375 63.714844 3.449219 65.230469 3.597656 C 66.746094 3.75 68.25 3.972656 69.742188 4.269531 C 71.238281 4.566406 72.710938 4.933594 74.167969 5.378906 C 75.625 5.820312 77.058594 6.332031 78.464844 6.914062 C 79.871094 7.496094 81.246094 8.148438 82.589844 8.867188 C 83.933594 9.582031 85.238281 10.367188 86.503906 11.210938 C 87.769531 12.058594 88.992188 12.964844 90.167969 13.929688 C 91.347656 14.894531 92.472656 15.917969 93.550781 16.992188 C 94.625 18.070312 95.648438 19.199219 96.613281 20.375 C 97.582031 21.550781 98.484375 22.773438 99.332031 24.039062 C 100.179688 25.304688 100.960938 26.609375 101.679688 27.953125 C 102.394531 29.296875 103.046875 30.671875 103.628906 32.078125 C 104.210938 33.484375 104.722656 34.917969 105.164062 36.375 C 105.609375 37.832031 105.976562 39.308594 106.273438 40.800781 C 106.570312 42.292969 106.796875 43.796875 106.945312 45.3125 C 107.09375 46.828125 107.167969 48.347656 107.167969 49.871094 Z M 107.167969 49.871094 " fill-opacity="1" fill-rule="nonzero"/><path fill="#ff751f" d="M 57.484375 93.476562 C 57.457031 93.476562 57.433594 93.476562 57.40625 93.472656 C 56.539062 93.40625 56.09375 92.339844 55.578125 91.097656 C 55.34375 90.53125 54.953125 89.59375 54.707031 89.4375 C 54.417969 89.515625 53.734375 90.335938 53.363281 90.785156 C 52.515625 91.8125 51.78125 92.695312 50.941406 92.503906 C 50.097656 92.3125 49.816406 91.191406 49.492188 89.886719 C 49.351562 89.332031 49.09375 88.304688 48.875 88.109375 C 48.578125 88.144531 47.78125 88.855469 47.347656 89.242188 C 46.351562 90.128906 45.496094 90.898438 44.691406 90.582031 C 43.886719 90.265625 43.777344 89.113281 43.652344 87.78125 C 43.597656 87.207031 43.496094 86.152344 43.308594 85.925781 C 43.304688 85.925781 43.300781 85.925781 43.300781 85.925781 C 42.996094 85.925781 42.113281 86.5 41.632812 86.8125 C 40.515625 87.542969 39.550781 88.171875 38.804688 87.738281 C 38.054688 87.304688 38.121094 86.152344 38.195312 84.820312 C 38.226562 84.242188 38.285156 83.183594 38.132812 82.933594 C 37.839844 82.878906 36.871094 83.320312 36.34375 83.558594 C 35.128906 84.113281 34.082031 84.59375 33.40625 84.054688 C 32.730469 83.515625 32.96875 82.386719 33.238281 81.078125 C 33.355469 80.511719 33.570312 79.472656 33.453125 79.199219 C 33.175781 79.101562 32.152344 79.398438 31.597656 79.554688 C 30.3125 79.925781 29.203125 80.242188 28.617188 79.609375 C 28.03125 78.976562 28.429688 77.894531 28.890625 76.644531 C 29.089844 76.101562 29.460938 75.105469 29.386719 74.816406 C 29.121094 74.683594 28.070312 74.816406 27.496094 74.894531 C 26.171875 75.066406 25.027344 75.21875 24.539062 74.503906 C 24.054688 73.792969 24.609375 72.785156 25.25 71.613281 C 25.53125 71.105469 26.042969 70.175781 26.011719 69.878906 C 25.769531 69.703125 24.710938 69.683594 24.136719 69.671875 C 22.796875 69.648438 21.640625 69.625 21.265625 68.84375 C 20.890625 68.070312 21.589844 67.15625 22.402344 66.09375 C 22.753906 65.636719 23.402344 64.789062 23.414062 64.492188 C 23.203125 64.285156 22.160156 64.105469 21.59375 64.007812 C 20.273438 63.78125 19.132812 63.589844 18.878906 62.761719 C 18.625 61.9375 19.453125 61.140625 20.410156 60.214844 C 20.828125 59.8125 21.597656 59.070312 21.652344 58.777344 C 21.476562 58.542969 20.472656 58.210938 19.929688 58.03125 C 18.65625 57.609375 17.554688 57.242188 17.429688 56.386719 C 17.300781 55.535156 18.238281 54.875 19.324219 54.105469 C 19.796875 53.765625 20.671875 53.144531 20.769531 52.867188 C 20.628906 52.609375 19.726562 52.148438 19.179688 51.871094 C 17.980469 51.265625 16.949219 50.742188 16.949219 49.875 C 16.949219 49.003906 17.984375 48.480469 19.179688 47.875 C 19.726562 47.597656 20.628906 47.136719 20.769531 46.878906 C 20.671875 46.597656 19.796875 45.976562 19.324219 45.640625 C 18.238281 44.871094 17.300781 44.207031 17.429688 43.355469 C 17.554688 42.496094 18.65625 42.132812 19.929688 41.710938 C 20.472656 41.53125 21.476562 41.199219 21.652344 40.964844 C 21.597656 40.671875 20.828125 39.929688 20.410156 39.527344 C 19.453125 38.601562 18.625 37.804688 18.878906 36.980469 C 19.132812 36.15625 20.273438 35.960938 21.59375 35.734375 C 22.160156 35.636719 23.203125 35.457031 23.414062 35.25 C 23.402344 34.953125 22.753906 34.105469 22.402344 33.648438 C 21.59375 32.585938 20.894531 31.671875 21.265625 30.898438 C 21.644531 30.117188 22.800781 30.097656 24.136719 30.070312 C 24.714844 30.058594 25.773438 30.039062 26.015625 29.863281 C 26.046875 29.566406 25.535156 28.636719 25.253906 28.128906 C 24.609375 26.957031 24.054688 25.949219 24.542969 25.238281 C 25.03125 24.523438 26.175781 24.675781 27.5 24.847656 C 28.070312 24.921875 29.121094 25.058594 29.386719 24.925781 C 29.464844 24.636719 29.09375 23.640625 28.894531 23.097656 C 28.429688 21.84375 28.03125 20.761719 28.617188 20.128906 C 29.203125 19.5 30.3125 19.816406 31.601562 20.183594 C 32.15625 20.34375 33.175781 20.636719 33.457031 20.539062 C 33.574219 20.269531 33.359375 19.226562 33.238281 18.660156 C 32.96875 17.355469 32.734375 16.222656 33.410156 15.683594 C 34.082031 15.148438 35.128906 15.625 36.347656 16.179688 C 36.871094 16.421875 37.839844 16.863281 38.132812 16.808594 C 38.289062 16.554688 38.230469 15.496094 38.195312 14.917969 C 38.121094 13.582031 38.054688 12.429688 38.804688 11.996094 C 39.550781 11.566406 40.515625 12.195312 41.632812 12.925781 C 42.117188 13.238281 43.007812 13.824219 43.308594 13.8125 C 43.496094 13.585938 43.597656 12.53125 43.652344 11.957031 C 43.777344 10.621094 43.886719 9.472656 44.691406 9.15625 C 45.492188 8.84375 46.351562 9.609375 47.347656 10.496094 C 47.78125 10.882812 48.578125 11.59375 48.871094 11.625 C 49.09375 11.429688 49.347656 10.40625 49.488281 9.847656 C 49.8125 8.546875 50.09375 7.425781 50.941406 7.230469 C 51.777344 7.042969 52.511719 7.925781 53.359375 8.953125 C 53.730469 9.398438 54.414062 10.222656 54.699219 10.300781 C 54.945312 10.140625 55.335938 9.203125 55.574219 8.636719 C 56.089844 7.398438 56.535156 6.328125 57.402344 6.265625 C 58.253906 6.199219 58.847656 7.183594 59.535156 8.320312 C 59.835938 8.824219 60.394531 9.746094 60.667969 9.859375 C 60.941406 9.742188 61.496094 8.820312 61.796875 8.320312 C 62.484375 7.183594 63.074219 6.199219 63.933594 6.265625 C 64.800781 6.328125 65.246094 7.398438 65.761719 8.636719 C 65.996094 9.203125 66.386719 10.140625 66.632812 10.300781 C 66.921875 10.222656 67.605469 9.398438 67.976562 8.953125 C 68.824219 7.925781 69.558594 7.042969 70.394531 7.230469 C 71.242188 7.425781 71.519531 8.546875 71.847656 9.847656 C 71.988281 10.40625 72.242188 11.429688 72.464844 11.625 C 72.761719 11.59375 73.554688 10.882812 73.992188 10.496094 C 74.984375 9.609375 75.84375 8.84375 76.644531 9.15625 C 77.453125 9.472656 77.558594 10.625 77.6875 11.957031 C 77.738281 12.53125 77.839844 13.585938 78.03125 13.8125 C 78.03125 13.8125 78.035156 13.8125 78.039062 13.8125 C 78.339844 13.8125 79.222656 13.238281 79.703125 12.925781 C 80.820312 12.195312 81.789062 11.566406 82.535156 11.996094 C 83.28125 12.433594 83.21875 13.585938 83.140625 14.917969 C 83.109375 15.496094 83.050781 16.554688 83.203125 16.804688 C 83.496094 16.859375 84.464844 16.417969 84.992188 16.175781 C 86.207031 15.621094 87.253906 15.144531 87.929688 15.683594 C 88.605469 16.222656 88.367188 17.351562 88.097656 18.660156 C 87.980469 19.222656 87.765625 20.261719 87.878906 20.539062 C 88.160156 20.632812 89.183594 20.339844 89.738281 20.179688 C 91.019531 19.8125 92.128906 19.492188 92.71875 20.128906 C 93.304688 20.761719 92.90625 21.84375 92.445312 23.09375 C 92.242188 23.636719 91.875 24.632812 91.949219 24.921875 C 92.210938 25.054688 93.265625 24.921875 93.835938 24.84375 C 95.164062 24.667969 96.308594 24.519531 96.792969 25.230469 C 97.28125 25.941406 96.726562 26.953125 96.082031 28.125 C 95.804688 28.628906 95.292969 29.5625 95.324219 29.859375 C 95.566406 30.035156 96.625 30.054688 97.199219 30.066406 C 98.539062 30.089844 99.695312 30.113281 100.070312 30.890625 C 100.445312 31.667969 99.746094 32.582031 98.933594 33.640625 C 98.582031 34.101562 97.933594 34.949219 97.921875 35.246094 C 98.132812 35.453125 99.175781 35.632812 99.742188 35.726562 C 101.0625 35.953125 102.203125 36.148438 102.457031 36.976562 C 102.710938 37.800781 101.882812 38.597656 100.921875 39.523438 C 100.507812 39.925781 99.738281 40.667969 99.683594 40.960938 C 99.859375 41.195312 100.859375 41.527344 101.40625 41.707031 C 102.679688 42.128906 103.78125 42.492188 103.90625 43.351562 C 104.035156 44.199219 103.097656 44.863281 102.011719 45.636719 C 101.535156 45.972656 100.664062 46.59375 100.5625 46.875 C 100.703125 47.132812 101.609375 47.589844 102.15625 47.867188 C 103.355469 48.472656 104.386719 48.996094 104.386719 49.867188 C 104.386719 50.734375 103.351562 51.261719 102.15625 51.867188 C 101.609375 52.144531 100.703125 52.601562 100.5625 52.859375 C 100.664062 53.140625 101.535156 53.761719 102.011719 54.097656 C 103.097656 54.867188 104.03125 55.53125 103.90625 56.378906 C 103.78125 57.238281 102.679688 57.601562 101.40625 58.023438 C 100.859375 58.203125 99.859375 58.535156 99.683594 58.769531 C 99.738281 59.0625 100.507812 59.804688 100.921875 60.207031 C 101.882812 61.132812 102.710938 61.929688 102.457031 62.753906 C 102.203125 63.578125 101.0625 63.773438 99.742188 64.003906 C 99.175781 64.097656 98.132812 64.277344 97.921875 64.484375 C 97.933594 64.78125 98.578125 65.628906 98.933594 66.089844 C 99.746094 67.148438 100.445312 68.0625 100.070312 68.835938 C 99.695312 69.617188 98.539062 69.636719 97.199219 69.664062 C 96.625 69.675781 95.566406 69.695312 95.324219 69.871094 C 95.292969 70.167969 95.804688 71.097656 96.082031 71.605469 C 96.726562 72.777344 97.28125 73.785156 96.792969 74.5 C 96.308594 75.210938 95.160156 75.058594 93.835938 74.886719 C 93.265625 74.8125 92.214844 74.675781 91.949219 74.808594 C 91.875 75.097656 92.242188 76.09375 92.445312 76.636719 C 92.90625 77.890625 93.308594 78.96875 92.71875 79.601562 C 92.132812 80.234375 91.023438 79.917969 89.738281 79.550781 C 89.183594 79.390625 88.164062 79.09375 87.878906 79.191406 C 87.765625 79.464844 87.980469 80.503906 88.097656 81.070312 C 88.371094 82.378906 88.605469 83.507812 87.929688 84.046875 C 87.253906 84.585938 86.207031 84.105469 84.992188 83.550781 C 84.464844 83.3125 83.496094 82.875 83.203125 82.925781 C 83.050781 83.179688 83.109375 84.238281 83.140625 84.8125 C 83.214844 86.148438 83.28125 87.300781 82.53125 87.730469 C 81.785156 88.164062 80.820312 87.535156 79.703125 86.804688 C 79.21875 86.492188 78.339844 85.917969 78.035156 85.917969 C 78.03125 85.917969 78.03125 85.917969 78.027344 85.917969 C 77.835938 86.144531 77.738281 87.199219 77.683594 87.773438 C 77.558594 89.105469 77.449219 90.257812 76.644531 90.574219 C 75.84375 90.890625 74.984375 90.121094 73.988281 89.234375 C 73.554688 88.847656 72.757812 88.136719 72.464844 88.105469 C 72.242188 88.300781 71.988281 89.324219 71.847656 89.882812 C 71.519531 91.179688 71.242188 92.304688 70.394531 92.5 C 69.558594 92.6875 68.824219 91.804688 67.976562 90.777344 C 67.605469 90.328125 66.921875 89.507812 66.632812 89.429688 C 66.386719 89.589844 65.996094 90.527344 65.761719 91.09375 C 65.246094 92.332031 64.800781 93.398438 63.933594 93.464844 C 63.082031 93.527344 62.484375 92.546875 61.796875 91.40625 C 61.496094 90.90625 60.941406 89.984375 60.667969 89.871094 C 60.394531 89.988281 59.835938 90.910156 59.535156 91.40625 C 58.871094 92.511719 58.292969 93.46875 57.480469 93.46875 Z M 63.828125 92.367188 Z M 60.671875 88.757812 C 61.503906 88.757812 62.085938 89.722656 62.757812 90.839844 C 63.070312 91.355469 63.585938 92.207031 63.855469 92.347656 C 64.109375 92.171875 64.515625 91.203125 64.738281 90.671875 C 65.234375 89.476562 65.664062 88.449219 66.472656 88.328125 C 67.292969 88.203125 68.007812 89.070312 68.839844 90.074219 C 69.203125 90.511719 69.863281 91.308594 70.152344 91.40625 C 70.378906 91.191406 70.632812 90.175781 70.769531 89.617188 C 71.085938 88.363281 71.355469 87.28125 72.136719 87.039062 C 72.929688 86.792969 73.765625 87.542969 74.738281 88.40625 C 75.164062 88.785156 75.9375 89.476562 76.238281 89.527344 C 76.425781 89.285156 76.527344 88.242188 76.578125 87.675781 C 76.699219 86.386719 76.804688 85.273438 77.546875 84.914062 C 78.289062 84.554688 79.230469 85.167969 80.320312 85.878906 C 80.796875 86.1875 81.667969 86.753906 81.972656 86.761719 C 82.125 86.492188 82.066406 85.449219 82.03125 84.878906 C 81.960938 83.585938 81.898438 82.46875 82.578125 82.003906 C 83.257812 81.539062 84.28125 82.003906 85.460938 82.542969 C 85.976562 82.78125 86.921875 83.210938 87.230469 83.175781 C 87.335938 82.882812 87.125 81.863281 87.007812 81.304688 C 86.746094 80.035156 86.515625 78.9375 87.117188 78.375 C 87.722656 77.816406 88.800781 78.125 90.046875 78.484375 C 90.59375 78.640625 91.597656 78.925781 91.894531 78.84375 C 91.957031 78.539062 91.59375 77.5625 91.398438 77.027344 C 90.949219 75.808594 90.558594 74.757812 91.074219 74.113281 C 91.585938 73.472656 92.695312 73.617188 93.984375 73.785156 C 94.550781 73.863281 95.582031 73.996094 95.863281 73.867188 C 95.878906 73.5625 95.378906 72.652344 95.105469 72.152344 C 94.476562 71.011719 93.9375 70.03125 94.351562 69.316406 C 94.765625 68.605469 95.882812 68.582031 97.179688 68.558594 C 97.75 68.546875 98.792969 68.527344 99.050781 68.359375 C 99.023438 68.050781 98.390625 67.226562 98.046875 66.777344 C 97.257812 65.742188 96.574219 64.851562 96.875 64.082031 C 97.179688 63.316406 98.277344 63.128906 99.554688 62.910156 C 100.117188 62.8125 101.152344 62.636719 101.378906 62.429688 C 101.300781 62.132812 100.558594 61.410156 100.148438 61.019531 C 99.214844 60.113281 98.402344 59.335938 98.585938 58.527344 C 98.769531 57.726562 99.828125 57.375 101.054688 56.96875 C 101.597656 56.789062 102.59375 56.457031 102.789062 56.21875 C 102.671875 55.9375 101.824219 55.339844 101.363281 55.011719 C 100.300781 54.253906 99.386719 53.605469 99.445312 52.777344 C 99.503906 51.960938 100.5 51.457031 101.652344 50.875 C 102.167969 50.613281 103.113281 50.136719 103.261719 49.867188 C 103.113281 49.601562 102.167969 49.125 101.652344 48.863281 C 100.5 48.277344 99.503906 47.773438 99.445312 46.960938 C 99.386719 46.132812 100.300781 45.480469 101.363281 44.726562 C 101.859375 44.375 102.671875 43.796875 102.789062 43.519531 C 102.59375 43.28125 101.597656 42.949219 101.054688 42.769531 C 99.828125 42.359375 98.769531 42.011719 98.585938 41.210938 C 98.402344 40.402344 99.210938 39.625 100.148438 38.71875 C 100.558594 38.324219 101.304688 37.605469 101.378906 37.308594 C 101.152344 37.101562 100.117188 36.925781 99.554688 36.828125 C 98.277344 36.609375 97.179688 36.421875 96.875 35.65625 C 96.574219 34.886719 97.253906 33.992188 98.046875 32.960938 C 98.390625 32.511719 99.023438 31.6875 99.050781 31.378906 C 98.792969 31.210938 97.75 31.191406 97.179688 31.179688 C 95.882812 31.15625 94.765625 31.132812 94.351562 30.421875 C 93.9375 29.707031 94.480469 28.722656 95.105469 27.585938 C 95.378906 27.085938 95.878906 26.175781 95.863281 25.867188 C 95.582031 25.742188 94.550781 25.875 93.984375 25.949219 C 92.695312 26.117188 91.585938 26.265625 91.074219 25.621094 C 90.558594 24.976562 90.949219 23.925781 91.398438 22.707031 C 91.59375 22.171875 91.957031 21.195312 91.894531 20.894531 C 91.597656 20.8125 90.597656 21.097656 90.046875 21.253906 C 88.800781 21.613281 87.722656 21.921875 87.117188 21.359375 C 86.515625 20.796875 86.742188 19.703125 87.007812 18.433594 C 87.125 17.871094 87.335938 16.851562 87.230469 16.5625 C 86.921875 16.523438 85.976562 16.957031 85.460938 17.191406 C 84.277344 17.734375 83.257812 18.199219 82.578125 17.734375 C 81.898438 17.269531 81.960938 16.152344 82.03125 14.859375 C 82.0625 14.285156 82.125 13.246094 81.972656 12.972656 C 81.667969 12.980469 80.792969 13.546875 80.320312 13.859375 C 79.230469 14.570312 78.289062 15.179688 77.546875 14.820312 C 76.804688 14.464844 76.703125 13.351562 76.578125 12.0625 C 76.527344 11.492188 76.425781 10.453125 76.238281 10.207031 C 75.9375 10.257812 75.160156 10.949219 74.738281 11.328125 C 73.769531 12.191406 72.929688 12.941406 72.136719 12.695312 C 71.355469 12.457031 71.085938 11.371094 70.769531 10.117188 C 70.632812 9.558594 70.378906 8.542969 70.152344 8.328125 C 69.863281 8.429688 69.203125 9.222656 68.839844 9.660156 C 68.007812 10.664062 67.289062 11.53125 66.472656 11.40625 C 65.664062 11.285156 65.234375 10.257812 64.738281 9.066406 C 64.515625 8.535156 64.113281 7.566406 63.855469 7.386719 C 63.585938 7.527344 63.070312 8.378906 62.757812 8.894531 C 62.085938 10.011719 61.503906 10.976562 60.671875 10.976562 C 59.84375 10.976562 59.257812 10.011719 58.585938 8.894531 C 58.273438 8.378906 57.757812 7.527344 57.488281 7.386719 C 57.234375 7.5625 56.832031 8.53125 56.609375 9.066406 C 56.113281 10.257812 55.683594 11.285156 54.871094 11.40625 C 54.054688 11.53125 53.335938 10.664062 52.503906 9.660156 C 52.140625 9.222656 51.480469 8.429688 51.191406 8.328125 C 50.96875 8.542969 50.714844 9.558594 50.574219 10.117188 C 50.261719 11.371094 49.992188 12.453125 49.207031 12.695312 C 48.414062 12.941406 47.578125 12.191406 46.605469 11.328125 C 46.183594 10.949219 45.40625 10.257812 45.105469 10.207031 C 44.917969 10.449219 44.820312 11.492188 44.765625 12.058594 C 44.644531 13.347656 44.539062 14.460938 43.800781 14.820312 C 43.054688 15.179688 42.117188 14.566406 41.027344 13.855469 C 40.550781 13.546875 39.679688 12.980469 39.375 12.972656 C 39.222656 13.242188 39.28125 14.285156 39.316406 14.855469 C 39.386719 16.152344 39.449219 17.269531 38.769531 17.730469 C 38.085938 18.195312 37.070312 17.730469 35.886719 17.191406 C 35.371094 16.953125 34.425781 16.523438 34.117188 16.5625 C 34.011719 16.851562 34.222656 17.871094 34.339844 18.429688 C 34.601562 19.699219 34.832031 20.796875 34.230469 21.359375 C 33.625 21.921875 32.546875 21.609375 31.300781 21.253906 C 30.753906 21.09375 29.75 20.804688 29.453125 20.894531 C 29.390625 21.195312 29.753906 22.171875 29.949219 22.707031 C 30.398438 23.925781 30.785156 24.976562 30.273438 25.621094 C 29.757812 26.265625 28.648438 26.117188 27.363281 25.949219 C 26.796875 25.875 25.761719 25.738281 25.484375 25.867188 C 25.464844 26.171875 25.96875 27.082031 26.242188 27.582031 C 26.867188 28.722656 27.410156 29.703125 26.996094 30.417969 C 26.582031 31.132812 25.464844 31.152344 24.167969 31.175781 C 23.597656 31.1875 22.554688 31.207031 22.296875 31.375 C 22.324219 31.683594 22.957031 32.507812 23.300781 32.960938 C 24.089844 33.992188 24.773438 34.882812 24.46875 35.652344 C 24.167969 36.417969 23.070312 36.605469 21.792969 36.824219 C 21.230469 36.921875 20.195312 37.097656 19.96875 37.304688 C 20.042969 37.601562 20.789062 38.324219 21.199219 38.714844 C 22.132812 39.617188 22.945312 40.398438 22.761719 41.207031 C 22.578125 42.007812 21.519531 42.359375 20.292969 42.765625 C 19.75 42.945312 18.753906 43.277344 18.554688 43.515625 C 18.675781 43.796875 19.488281 44.375 19.980469 44.722656 C 21.046875 45.480469 21.960938 46.128906 21.902344 46.957031 C 21.839844 47.773438 20.847656 48.277344 19.695312 48.859375 C 19.179688 49.121094 18.234375 49.597656 18.082031 49.867188 C 18.234375 50.132812 19.179688 50.613281 19.695312 50.871094 C 20.84375 51.457031 21.839844 51.960938 21.902344 52.773438 C 21.960938 53.601562 21.046875 54.253906 19.980469 55.007812 C 19.488281 55.359375 18.675781 55.9375 18.554688 56.214844 C 18.753906 56.457031 19.75 56.785156 20.292969 56.964844 C 21.519531 57.375 22.578125 57.722656 22.761719 58.523438 C 22.945312 59.332031 22.136719 60.113281 21.199219 61.015625 C 20.789062 61.410156 20.042969 62.128906 19.96875 62.425781 C 20.195312 62.632812 21.230469 62.8125 21.792969 62.90625 C 23.070312 63.125 24.171875 63.316406 24.46875 64.078125 C 24.773438 64.847656 24.09375 65.742188 23.300781 66.773438 C 22.957031 67.222656 22.324219 68.050781 22.296875 68.355469 C 22.554688 68.523438 23.597656 68.542969 24.167969 68.554688 C 25.464844 68.578125 26.582031 68.601562 26.996094 69.3125 C 27.40625 70.027344 26.867188 71.011719 26.242188 72.148438 C 25.96875 72.648438 25.464844 73.558594 25.484375 73.867188 C 25.761719 73.996094 26.796875 73.859375 27.363281 73.785156 C 28.648438 73.617188 29.757812 73.46875 30.273438 74.113281 C 30.785156 74.757812 30.398438 75.808594 29.949219 77.027344 C 29.753906 77.5625 29.390625 78.539062 29.453125 78.839844 C 29.75 78.925781 30.75 78.636719 31.300781 78.480469 C 32.546875 78.125 33.625 77.8125 34.230469 78.375 C 34.832031 78.9375 34.605469 80.03125 34.339844 81.300781 C 34.222656 81.863281 34.011719 82.882812 34.117188 83.171875 C 34.425781 83.207031 35.371094 82.777344 35.886719 82.542969 C 37.070312 82.003906 38.089844 81.535156 38.769531 82 C 39.449219 82.46875 39.386719 83.582031 39.316406 84.875 C 39.285156 85.449219 39.226562 86.488281 39.375 86.761719 C 39.679688 86.753906 40.550781 86.1875 41.027344 85.875 C 42.117188 85.167969 43.054688 84.554688 43.800781 84.914062 C 44.539062 85.269531 44.644531 86.382812 44.765625 87.671875 C 44.820312 88.242188 44.917969 89.28125 45.105469 89.527344 C 45.40625 89.472656 46.183594 88.785156 46.605469 88.40625 C 47.574219 87.539062 48.414062 86.792969 49.207031 87.035156 C 49.992188 87.277344 50.261719 88.359375 50.574219 89.617188 C 50.714844 90.171875 50.96875 91.1875 51.191406 91.402344 C 51.480469 91.304688 52.140625 90.507812 52.503906 90.070312 C 53.332031 89.070312 54.050781 88.203125 54.871094 88.324219 C 55.683594 88.445312 56.113281 89.476562 56.609375 90.667969 C 56.832031 91.199219 57.234375 92.167969 57.488281 92.34375 C 57.757812 92.203125 58.273438 91.351562 58.585938 90.832031 C 59.257812 89.71875 59.84375 88.753906 60.671875 88.753906 Z M 60.691406 89.871094 Z M 60.652344 89.871094 Z M 45.128906 89.554688 Z M 54.683594 89.425781 Z M 81.953125 86.792969 Z M 39.390625 86.792969 Z M 82.007812 86.761719 Z M 43.296875 85.910156 Z M 87.265625 83.167969 Z M 34.078125 83.167969 Z M 83.1875 82.9375 Z M 38.15625 82.9375 Z M 33.449219 79.175781 Z M 91.929688 78.832031 Z M 29.414062 78.832031 Z M 91.933594 74.828125 Z M 91.960938 74.792969 Z M 29.382812 74.792969 Z M 95.863281 73.902344 Z M 25.480469 73.902344 Z M 95.898438 73.851562 Z M 26.035156 69.890625 Z M 95.332031 69.851562 Z M 26.015625 69.851562 Z M 99.082031 68.335938 Z M 22.261719 68.335938 Z M 97.925781 64.46875 Z M 99.671875 58.796875 Z M 21.671875 58.796875 Z M 21.664062 58.757812 Z M 102.808594 56.253906 Z M 100.558594 52.886719 Z M 20.785156 52.886719 Z M 100.5625 52.84375 Z M 103.28125 49.898438 Z M 18.0625 49.898438 Z M 103.28125 49.84375 Z M 18.0625 49.84375 Z M 100.5625 46.898438 Z M 20.785156 46.855469 Z M 100.558594 46.855469 Z M 102.816406 43.550781 Z M 99.671875 40.945312 Z M 99.058594 31.351562 Z M 22.289062 31.351562 Z M 95.308594 29.851562 Z M 95.898438 25.890625 Z M 25.445312 25.890625 Z M 95.863281 25.839844 Z M 25.480469 25.839844 Z M 91.960938 24.949219 Z M 91.929688 20.910156 Z M 29.414062 20.910156 Z M 29.457031 20.867188 Z M 33.484375 20.535156 Z M 83.222656 16.832031 Z M 38.121094 16.832031 Z M 87.265625 16.574219 Z M 34.078125 16.574219 Z M 34.128906 16.535156 Z M 78.050781 13.832031 Z M 43.296875 13.832031 Z M 82.011719 12.980469 Z M 48.855469 11.644531 Z M 54.683594 10.316406 Z M 45.128906 10.1875 Z M 60.691406 9.871094 Z M 60.652344 9.871094 Z M 70.125 8.316406 Z M 70.125 8.316406 " fill-opacity="1" fill-rule="nonzero"/><path fill="#ff751f" d="M 97.515625 49.871094 C 97.515625 51.078125 97.457031 52.28125 97.339844 53.480469 C 97.21875 54.683594 97.042969 55.875 96.808594 57.058594 C 96.574219 58.242188 96.28125 59.410156 95.929688 60.566406 C 95.578125 61.722656 95.171875 62.855469 94.710938 63.96875 C 94.25 65.085938 93.734375 66.175781 93.164062 67.238281 C 92.597656 68.304688 91.976562 69.335938 91.304688 70.339844 C 90.636719 71.34375 89.917969 72.3125 89.152344 73.246094 C 88.386719 74.175781 87.578125 75.070312 86.726562 75.921875 C 85.871094 76.777344 84.976562 77.585938 84.046875 78.351562 C 83.113281 79.117188 82.144531 79.835938 81.140625 80.503906 C 80.136719 81.175781 79.105469 81.796875 78.039062 82.363281 C 76.976562 82.933594 75.886719 83.449219 74.773438 83.910156 C 73.65625 84.371094 72.523438 84.777344 71.367188 85.128906 C 70.210938 85.476562 69.042969 85.769531 67.859375 86.007812 C 66.675781 86.242188 65.484375 86.417969 64.285156 86.539062 C 63.082031 86.65625 61.878906 86.714844 60.671875 86.714844 C 59.464844 86.714844 58.261719 86.65625 57.0625 86.539062 C 55.859375 86.417969 54.667969 86.242188 53.484375 86.007812 C 52.300781 85.769531 51.132812 85.476562 49.976562 85.128906 C 48.824219 84.777344 47.6875 84.371094 46.574219 83.910156 C 45.457031 83.449219 44.367188 82.933594 43.304688 82.363281 C 42.242188 81.796875 41.207031 81.175781 40.203125 80.503906 C 39.199219 79.835938 38.230469 79.117188 37.300781 78.351562 C 36.367188 77.585938 35.472656 76.777344 34.621094 75.921875 C 33.765625 75.070312 32.957031 74.175781 32.191406 73.246094 C 31.425781 72.3125 30.707031 71.34375 30.039062 70.339844 C 29.367188 69.335938 28.75 68.304688 28.179688 67.238281 C 27.609375 66.175781 27.09375 65.085938 26.632812 63.96875 C 26.171875 62.855469 25.765625 61.722656 25.414062 60.566406 C 25.066406 59.410156 24.773438 58.242188 24.535156 57.058594 C 24.300781 55.875 24.125 54.683594 24.007812 53.480469 C 23.886719 52.28125 23.828125 51.078125 23.828125 49.871094 C 23.828125 48.664062 23.886719 47.460938 24.007812 46.257812 C 24.125 45.058594 24.300781 43.867188 24.535156 42.683594 C 24.773438 41.5 25.066406 40.332031 25.414062 39.175781 C 25.765625 38.019531 26.171875 36.886719 26.632812 35.773438 C 27.09375 34.65625 27.609375 33.566406 28.179688 32.503906 C 28.75 31.4375 29.367188 30.40625 30.039062 29.402344 C 30.707031 28.398438 31.425781 27.429688 32.191406 26.496094 C 32.957031 25.566406 33.765625 24.671875 34.621094 23.820312 C 35.472656 22.964844 36.367188 22.15625 37.300781 21.390625 C 38.230469 20.625 39.199219 19.90625 40.203125 19.238281 C 41.207031 18.566406 42.242188 17.945312 43.304688 17.378906 C 44.367188 16.808594 45.457031 16.292969 46.574219 15.832031 C 47.6875 15.371094 48.824219 14.964844 49.976562 14.613281 C 51.132812 14.265625 52.300781 13.972656 53.484375 13.734375 C 54.667969 13.5 55.859375 13.324219 57.0625 13.203125 C 58.261719 13.085938 59.464844 13.027344 60.671875 13.027344 C 61.878906 13.027344 63.082031 13.085938 64.285156 13.203125 C 65.484375 13.324219 66.675781 13.5 67.859375 13.734375 C 69.042969 13.972656 70.210938 14.265625 71.367188 14.613281 C 72.523438 14.964844 73.65625 15.371094 74.773438 15.832031 C 75.886719 16.292969 76.976562 16.808594 78.039062 17.378906 C 79.105469 17.945312 80.136719 18.566406 81.140625 19.238281 C 82.144531 19.90625 83.113281 20.625 84.046875 21.390625 C 84.976562 22.15625 85.871094 22.964844 86.726562 23.820312 C 87.578125 24.671875 88.386719 25.566406 89.152344 26.496094 C 89.917969 27.429688 90.636719 28.398438 91.304688 29.402344 C 91.976562 30.40625 92.597656 31.4375 93.164062 32.503906 C 93.734375 33.566406 94.25 34.65625 94.710938 35.773438 C 95.171875 36.886719 95.578125 38.019531 95.929688 39.175781 C 96.28125 40.332031 96.574219 41.5 96.808594 42.683594 C 97.042969 43.867188 97.21875 45.058594 97.339844 46.257812 C 97.457031 47.460938 97.515625 48.664062 97.515625 49.871094 Z M 97.515625 49.871094 " fill-opacity="1" fill-rule="nonzero"/><path fill="#ffffff" d="M 48.773438 29.78125 C 51.609375 27.097656 55.625 25.753906 60.832031 25.753906 C 64.199219 25.753906 67.078125 26.328125 69.46875 27.480469 C 71.855469 28.628906 73.65625 30.1875 74.875 32.148438 C 76.089844 34.113281 76.695312 36.328125 76.695312 38.804688 C 76.695312 41.789062 75.992188 44.125 74.585938 45.808594 C 73.179688 47.492188 71.601562 48.632812 69.851562 49.230469 L 69.851562 49.484375 C 74.96875 51.40625 77.527344 54.964844 77.527344 60.167969 C 77.527344 62.898438 76.890625 65.308594 75.609375 67.398438 C 74.328125 69.488281 72.503906 71.105469 70.140625 72.261719 C 67.773438 73.410156 64.96875 73.988281 61.726562 73.988281 C 56.179688 73.988281 51.832031 72.664062 48.675781 70.019531 C 45.519531 67.375 43.898438 63.238281 43.8125 57.609375 L 57.632812 57.609375 C 57.542969 59.144531 57.769531 60.308594 58.304688 61.097656 C 58.835938 61.882812 59.761719 62.28125 61.085938 62.28125 C 61.855469 62.28125 62.496094 61.992188 63.007812 61.417969 C 63.519531 60.839844 63.773438 60.085938 63.773438 59.144531 C 63.773438 57.949219 63.378906 57.042969 62.589844 56.425781 C 61.800781 55.808594 60.46875 55.496094 58.589844 55.496094 L 56.226562 55.496094 L 56.226562 44.046875 L 58.527344 44.046875 C 61.425781 44.21875 62.878906 43.066406 62.878906 40.59375 C 62.878906 39.527344 62.65625 38.738281 62.207031 38.226562 C 61.761719 37.714844 61.195312 37.460938 60.511719 37.460938 C 58.9375 37.460938 58.148438 38.78125 58.148438 41.425781 L 44.328125 41.425781 C 44.457031 36.351562 45.9375 32.46875 48.777344 29.78125 Z M 48.773438 29.78125 " fill-opacity="1" fill-rule="nonzero"/></svg>