<svg xmlns="http://www.w3.org/2000/svg" xmlns:xlink="http://www.w3.org/1999/xlink" width="162" zoomAndPan="magnify" viewBox="0 0 121.5 121.499994" height="162" preserveAspectRatio="xMidYMid meet" version="1.0"><defs><g/><clipPath id="8e01214f51"><rect x="0" width="44" y="0" height="24"/></clipPath><clipPath id="409aa18677"><path d="M 29 28 L 121 28 L 121 119.476562 L 29 119.476562 Z M 29 28 " clip-rule="nonzero"/></clipPath><clipPath id="24c0ba1307"><path d="M 0 28 L 92 28 L 92 119.476562 L 0 119.476562 Z M 0 28 " clip-rule="nonzero"/></clipPath><clipPath id="cc766a6673"><path d="M 12 1.460938 L 109 1.460938 L 109 99 L 12 99 Z M 12 1.460938 " clip-rule="nonzero"/></clipPath></defs><g transform="matrix(1, 0, 0, 1, 41, 43)"><g clip-path="url(#8e01214f51)"><g fill="#000000" fill-opacity="1"><g transform="translate(1.049653, 9.147261)"><g><path d="M 0.734375 0 L 0.734375 -5.8125 L 1.96875 -5.8125 L 1.96875 0 Z M 0.734375 0 "/></g></g></g><g fill="#000000" fill-opacity="1"><g transform="translate(3.743529, 9.147261)"><g><path d="M 4.734375 0 L 3.53125 0 L 3.53125 -2.59375 C 3.53125 -2.914062 3.472656 -3.15625 3.359375 -3.3125 C 3.242188 -3.476562 3.0625 -3.5625 2.8125 -3.5625 C 2.46875 -3.5625 2.21875 -3.445312 2.0625 -3.21875 C 1.914062 -2.988281 1.84375 -2.613281 1.84375 -2.09375 L 1.84375 0 L 0.640625 0 L 0.640625 -4.4375 L 1.5625 -4.4375 L 1.71875 -3.875 L 1.796875 -3.875 C 1.929688 -4.09375 2.113281 -4.253906 2.34375 -4.359375 C 2.582031 -4.472656 2.851562 -4.53125 3.15625 -4.53125 C 3.675781 -4.53125 4.066406 -4.390625 4.328125 -4.109375 C 4.597656 -3.828125 4.734375 -3.421875 4.734375 -2.890625 Z M 4.734375 0 "/></g></g></g><g fill="#000000" fill-opacity="1"><g transform="translate(9.091548, 9.147261)"><g><path d="M 3.734375 -1.3125 C 3.734375 -0.863281 3.570312 -0.519531 3.25 -0.28125 C 2.9375 -0.0390625 2.46875 0.078125 1.84375 0.078125 C 1.519531 0.078125 1.242188 0.0546875 1.015625 0.015625 C 0.785156 -0.0234375 0.570312 -0.0859375 0.375 -0.171875 L 0.375 -1.1875 C 0.601562 -1.070312 0.859375 -0.976562 1.140625 -0.90625 C 1.421875 -0.84375 1.664062 -0.8125 1.875 -0.8125 C 2.320312 -0.8125 2.546875 -0.9375 2.546875 -1.1875 C 2.546875 -1.28125 2.515625 -1.359375 2.453125 -1.421875 C 2.390625 -1.484375 2.285156 -1.550781 2.140625 -1.625 C 2.003906 -1.695312 1.816406 -1.785156 1.578125 -1.890625 C 1.234375 -2.035156 0.976562 -2.164062 0.8125 -2.28125 C 0.65625 -2.40625 0.539062 -2.546875 0.46875 -2.703125 C 0.394531 -2.859375 0.359375 -3.050781 0.359375 -3.28125 C 0.359375 -3.675781 0.507812 -3.984375 0.8125 -4.203125 C 1.125 -4.421875 1.5625 -4.53125 2.125 -4.53125 C 2.65625 -4.53125 3.175781 -4.410156 3.6875 -4.171875 L 3.328125 -3.296875 C 3.097656 -3.398438 2.882812 -3.476562 2.6875 -3.53125 C 2.5 -3.59375 2.304688 -3.625 2.109375 -3.625 C 1.742188 -3.625 1.5625 -3.53125 1.5625 -3.34375 C 1.5625 -3.226562 1.617188 -3.128906 1.734375 -3.046875 C 1.859375 -2.972656 2.113281 -2.859375 2.5 -2.703125 C 2.84375 -2.566406 3.09375 -2.4375 3.25 -2.3125 C 3.414062 -2.1875 3.535156 -2.046875 3.609375 -1.890625 C 3.691406 -1.734375 3.734375 -1.539062 3.734375 -1.3125 Z M 3.734375 -1.3125 "/></g></g></g><g fill="#000000" fill-opacity="1"><g transform="translate(13.136335, 9.147261)"><g><path d="M 2.46875 -3.671875 C 2.21875 -3.671875 2.019531 -3.585938 1.875 -3.421875 C 1.726562 -3.253906 1.644531 -3.023438 1.625 -2.734375 L 3.328125 -2.734375 C 3.316406 -3.023438 3.234375 -3.253906 3.078125 -3.421875 C 2.929688 -3.585938 2.726562 -3.671875 2.46875 -3.671875 Z M 2.640625 0.078125 C 1.929688 0.078125 1.375 -0.117188 0.96875 -0.515625 C 0.5625 -0.910156 0.359375 -1.46875 0.359375 -2.1875 C 0.359375 -2.9375 0.546875 -3.515625 0.921875 -3.921875 C 1.296875 -4.328125 1.8125 -4.53125 2.46875 -4.53125 C 3.09375 -4.53125 3.578125 -4.347656 3.921875 -3.984375 C 4.273438 -3.628906 4.453125 -3.140625 4.453125 -2.515625 L 4.453125 -1.921875 L 1.59375 -1.921875 C 1.601562 -1.578125 1.703125 -1.304688 1.890625 -1.109375 C 2.085938 -0.921875 2.359375 -0.828125 2.703125 -0.828125 C 2.972656 -0.828125 3.222656 -0.851562 3.453125 -0.90625 C 3.691406 -0.957031 3.941406 -1.046875 4.203125 -1.171875 L 4.203125 -0.234375 C 3.992188 -0.128906 3.769531 -0.0507812 3.53125 0 C 3.289062 0.0507812 2.992188 0.078125 2.640625 0.078125 Z M 2.640625 0.078125 "/></g></g></g><g fill="#000000" fill-opacity="1"><g transform="translate(17.94399, 9.147261)"><g><path d="M 3.109375 -4.53125 C 3.273438 -4.53125 3.414062 -4.515625 3.53125 -4.484375 L 3.4375 -3.359375 C 3.332031 -3.378906 3.210938 -3.390625 3.078125 -3.390625 C 2.691406 -3.390625 2.390625 -3.289062 2.171875 -3.09375 C 1.953125 -2.894531 1.84375 -2.617188 1.84375 -2.265625 L 1.84375 0 L 0.640625 0 L 0.640625 -4.4375 L 1.546875 -4.4375 L 1.734375 -3.703125 L 1.796875 -3.703125 C 1.929688 -3.953125 2.113281 -4.148438 2.34375 -4.296875 C 2.582031 -4.453125 2.835938 -4.53125 3.109375 -4.53125 Z M 3.109375 -4.53125 "/></g></g></g><g fill="#000000" fill-opacity="1"><g transform="translate(21.63913, 9.147261)"><g><path d="M 0.578125 -5.59375 C 0.578125 -5.988281 0.800781 -6.1875 1.25 -6.1875 C 1.6875 -6.1875 1.90625 -5.988281 1.90625 -5.59375 C 1.90625 -5.40625 1.847656 -5.257812 1.734375 -5.15625 C 1.628906 -5.050781 1.46875 -5 1.25 -5 C 0.800781 -5 0.578125 -5.195312 0.578125 -5.59375 Z M 1.84375 0 L 0.640625 0 L 0.640625 -4.4375 L 1.84375 -4.4375 Z M 1.84375 0 "/></g></g></g><g fill="#000000" fill-opacity="1"><g transform="translate(24.122423, 9.147261)"><g><path d="M 3.109375 -4.53125 C 3.273438 -4.53125 3.414062 -4.515625 3.53125 -4.484375 L 3.4375 -3.359375 C 3.332031 -3.378906 3.210938 -3.390625 3.078125 -3.390625 C 2.691406 -3.390625 2.390625 -3.289062 2.171875 -3.09375 C 1.953125 -2.894531 1.84375 -2.617188 1.84375 -2.265625 L 1.84375 0 L 0.640625 0 L 0.640625 -4.4375 L 1.546875 -4.4375 L 1.734375 -3.703125 L 1.796875 -3.703125 C 1.929688 -3.953125 2.113281 -4.148438 2.34375 -4.296875 C 2.582031 -4.453125 2.835938 -4.53125 3.109375 -4.53125 Z M 3.109375 -4.53125 "/></g></g></g><g fill="#000000" fill-opacity="1"><g transform="translate(27.817562, 9.147261)"><g/></g></g><g fill="#000000" fill-opacity="1"><g transform="translate(29.931341, 9.147261)"><g><path d="M 3.78125 0 L 3.625 -0.5625 L 3.5625 -0.5625 C 3.425781 -0.363281 3.238281 -0.207031 3 -0.09375 C 2.757812 0.0195312 2.488281 0.078125 2.1875 0.078125 C 1.664062 0.078125 1.269531 -0.0625 1 -0.34375 C 0.738281 -0.625 0.609375 -1.023438 0.609375 -1.546875 L 0.609375 -4.4375 L 1.828125 -4.4375 L 1.828125 -1.84375 C 1.828125 -1.53125 1.882812 -1.289062 2 -1.125 C 2.113281 -0.96875 2.296875 -0.890625 2.546875 -0.890625 C 2.878906 -0.890625 3.117188 -1 3.265625 -1.21875 C 3.421875 -1.445312 3.5 -1.828125 3.5 -2.359375 L 3.5 -4.4375 L 4.71875 -4.4375 L 4.71875 0 Z M 3.78125 0 "/></g></g></g><g fill="#000000" fill-opacity="1"><g transform="translate(35.279361, 9.147261)"><g><path d="M 4.609375 0 L 3.40625 0 L 3.40625 -2.59375 C 3.40625 -2.914062 3.347656 -3.15625 3.234375 -3.3125 C 3.128906 -3.476562 2.960938 -3.5625 2.734375 -3.5625 C 2.421875 -3.5625 2.191406 -3.445312 2.046875 -3.21875 C 1.910156 -2.988281 1.84375 -2.613281 1.84375 -2.09375 L 1.84375 0 L 0.640625 0 L 0.640625 -4.4375 L 1.5625 -4.4375 L 1.71875 -3.875 L 1.796875 -3.875 C 1.910156 -4.082031 2.078125 -4.242188 2.296875 -4.359375 C 2.523438 -4.472656 2.785156 -4.53125 3.078125 -4.53125 C 3.742188 -4.53125 4.195312 -4.3125 4.4375 -3.875 L 4.546875 -3.875 C 4.660156 -4.082031 4.832031 -4.242188 5.0625 -4.359375 C 5.300781 -4.472656 5.566406 -4.53125 5.859375 -4.53125 C 6.359375 -4.53125 6.738281 -4.398438 7 -4.140625 C 7.257812 -3.878906 7.390625 -3.460938 7.390625 -2.890625 L 7.390625 0 L 6.171875 0 L 6.171875 -2.59375 C 6.171875 -2.914062 6.113281 -3.15625 6 -3.3125 C 5.894531 -3.476562 5.726562 -3.5625 5.5 -3.5625 C 5.207031 -3.5625 4.984375 -3.453125 4.828125 -3.234375 C 4.679688 -3.023438 4.609375 -2.691406 4.609375 -2.234375 Z M 4.609375 0 "/></g></g></g><g fill="#000000" fill-opacity="1"><g transform="translate(10.952023, 20.487622)"><g><path d="M 2.515625 -0.890625 C 2.722656 -0.890625 2.972656 -0.9375 3.265625 -1.03125 L 3.265625 -0.125 C 2.960938 0.0078125 2.59375 0.078125 2.15625 0.078125 C 1.675781 0.078125 1.320312 -0.0390625 1.09375 -0.28125 C 0.875 -0.53125 0.765625 -0.898438 0.765625 -1.390625 L 0.765625 -3.53125 L 0.1875 -3.53125 L 0.1875 -4.046875 L 0.859375 -4.453125 L 1.203125 -5.390625 L 1.984375 -5.390625 L 1.984375 -4.4375 L 3.21875 -4.4375 L 3.21875 -3.53125 L 1.984375 -3.53125 L 1.984375 -1.390625 C 1.984375 -1.222656 2.03125 -1.097656 2.125 -1.015625 C 2.21875 -0.929688 2.347656 -0.890625 2.515625 -0.890625 Z M 2.515625 -0.890625 "/></g></g></g><g fill="#000000" fill-opacity="1"><g transform="translate(14.484258, 20.487622)"><g><path d="M 1.84375 0 L 0.640625 0 L 0.640625 -4.4375 L 1.84375 -4.4375 Z M 0.5625 -4.9375 L 0.5625 -5.046875 C 1.019531 -5.566406 1.332031 -5.960938 1.5 -6.234375 L 2.859375 -6.234375 L 2.859375 -6.15625 C 2.722656 -6.019531 2.488281 -5.8125 2.15625 -5.53125 C 1.820312 -5.257812 1.5625 -5.0625 1.375 -4.9375 Z M 0.5625 -4.9375 "/></g></g></g><g fill="#000000" fill-opacity="1"><g transform="translate(16.967551, 20.487622)"><g><path d="M 2.515625 -0.890625 C 2.722656 -0.890625 2.972656 -0.9375 3.265625 -1.03125 L 3.265625 -0.125 C 2.960938 0.0078125 2.59375 0.078125 2.15625 0.078125 C 1.675781 0.078125 1.320312 -0.0390625 1.09375 -0.28125 C 0.875 -0.53125 0.765625 -0.898438 0.765625 -1.390625 L 0.765625 -3.53125 L 0.1875 -3.53125 L 0.1875 -4.046875 L 0.859375 -4.453125 L 1.203125 -5.390625 L 1.984375 -5.390625 L 1.984375 -4.4375 L 3.21875 -4.4375 L 3.21875 -3.53125 L 1.984375 -3.53125 L 1.984375 -1.390625 C 1.984375 -1.222656 2.03125 -1.097656 2.125 -1.015625 C 2.21875 -0.929688 2.347656 -0.890625 2.515625 -0.890625 Z M 2.515625 -0.890625 "/></g></g></g><g fill="#000000" fill-opacity="1"><g transform="translate(20.499787, 20.487622)"><g><path d="M 3.78125 0 L 3.625 -0.5625 L 3.5625 -0.5625 C 3.425781 -0.363281 3.238281 -0.207031 3 -0.09375 C 2.757812 0.0195312 2.488281 0.078125 2.1875 0.078125 C 1.664062 0.078125 1.269531 -0.0625 1 -0.34375 C 0.738281 -0.625 0.609375 -1.023438 0.609375 -1.546875 L 0.609375 -4.4375 L 1.828125 -4.4375 L 1.828125 -1.84375 C 1.828125 -1.53125 1.882812 -1.289062 2 -1.125 C 2.113281 -0.96875 2.296875 -0.890625 2.546875 -0.890625 C 2.878906 -0.890625 3.117188 -1 3.265625 -1.21875 C 3.421875 -1.445312 3.5 -1.828125 3.5 -2.359375 L 3.5 -4.4375 L 4.71875 -4.4375 L 4.71875 0 Z M 3.78125 0 "/></g></g></g><g fill="#000000" fill-opacity="1"><g transform="translate(25.847806, 20.487622)"><g><path d="M 1.84375 0 L 0.640625 0 L 0.640625 -6.1875 L 1.84375 -6.1875 Z M 1.84375 0 "/></g></g></g><g fill="#000000" fill-opacity="1"><g transform="translate(28.331099, 20.487622)"><g><path d="M 1.609375 -2.234375 C 1.609375 -1.785156 1.675781 -1.445312 1.8125 -1.21875 C 1.957031 -1 2.195312 -0.890625 2.53125 -0.890625 C 2.851562 -0.890625 3.082031 -1 3.21875 -1.21875 C 3.363281 -1.445312 3.4375 -1.785156 3.4375 -2.234375 C 3.4375 -2.671875 3.363281 -3 3.21875 -3.21875 C 3.070312 -3.4375 2.835938 -3.546875 2.515625 -3.546875 C 2.191406 -3.546875 1.957031 -3.4375 1.8125 -3.21875 C 1.675781 -3 1.609375 -2.671875 1.609375 -2.234375 Z M 4.671875 -2.234375 C 4.671875 -1.503906 4.476562 -0.9375 4.09375 -0.53125 C 3.71875 -0.125 3.191406 0.078125 2.515625 0.078125 C 2.085938 0.078125 1.707031 -0.015625 1.375 -0.203125 C 1.050781 -0.390625 0.800781 -0.65625 0.625 -1 C 0.445312 -1.351562 0.359375 -1.765625 0.359375 -2.234375 C 0.359375 -2.953125 0.546875 -3.515625 0.921875 -3.921875 C 1.304688 -4.328125 1.84375 -4.53125 2.53125 -4.53125 C 2.957031 -4.53125 3.332031 -4.4375 3.65625 -4.25 C 3.988281 -4.0625 4.238281 -3.789062 4.40625 -3.4375 C 4.582031 -3.09375 4.671875 -2.691406 4.671875 -2.234375 Z M 4.671875 -2.234375 "/></g></g></g></g></g><g clip-path="url(#409aa18677)"><path fill="#be1e2d" d="M 98.71875 119.535156 L 29.8125 50.628906 L 52.070312 28.367188 L 120.976562 97.273438 L 106.4375 104.449219 Z M 98.71875 119.535156 " fill-opacity="1" fill-rule="nonzero"/></g><g clip-path="url(#24c0ba1307)"><path fill="#be1e2d" d="M 22.28125 119.535156 L 91.1875 50.628906 L 68.929688 28.367188 L 0.0234375 97.273438 L 14.5625 104.449219 Z M 22.28125 119.535156 " fill-opacity="1" fill-rule="nonzero"/></g><g clip-path="url(#cc766a6673)"><path fill="#737373" d="M 108.882812 49.84375 C 108.882812 51.425781 108.804688 53.007812 108.648438 54.585938 C 108.492188 56.160156 108.261719 57.726562 107.953125 59.28125 C 107.644531 60.835938 107.257812 62.371094 106.796875 63.886719 C 106.339844 65.402344 105.804688 66.894531 105.199219 68.355469 C 104.59375 69.820312 103.914062 71.25 103.167969 72.648438 C 102.421875 74.046875 101.609375 75.402344 100.726562 76.722656 C 99.847656 78.039062 98.90625 79.308594 97.898438 80.535156 C 96.894531 81.761719 95.832031 82.933594 94.710938 84.054688 C 93.589844 85.171875 92.417969 86.234375 91.191406 87.242188 C 89.96875 88.246094 88.699219 89.1875 87.378906 90.070312 C 86.0625 90.949219 84.703125 91.761719 83.308594 92.511719 C 81.910156 93.257812 80.480469 93.933594 79.015625 94.539062 C 77.550781 95.148438 76.0625 95.679688 74.546875 96.140625 C 73.027344 96.601562 71.492188 96.984375 69.941406 97.292969 C 68.386719 97.601562 66.820312 97.835938 65.242188 97.988281 C 63.667969 98.144531 62.085938 98.222656 60.5 98.222656 C 58.917969 98.222656 57.335938 98.144531 55.757812 97.988281 C 54.183594 97.835938 52.617188 97.601562 51.0625 97.292969 C 49.507812 96.984375 47.972656 96.601562 46.457031 96.140625 C 44.941406 95.679688 43.449219 95.148438 41.988281 94.539062 C 40.523438 93.933594 39.09375 93.257812 37.695312 92.511719 C 36.296875 91.761719 34.941406 90.949219 33.621094 90.070312 C 32.304688 89.1875 31.035156 88.246094 29.808594 87.242188 C 28.582031 86.234375 27.410156 85.171875 26.289062 84.054688 C 25.171875 82.933594 24.109375 81.761719 23.101562 80.535156 C 22.097656 79.308594 21.15625 78.039062 20.273438 76.722656 C 19.394531 75.402344 18.582031 74.046875 17.832031 72.648438 C 17.085938 71.25 16.410156 69.820312 15.804688 68.355469 C 15.195312 66.894531 14.664062 65.402344 14.203125 63.886719 C 13.742188 62.371094 13.359375 60.835938 13.050781 59.28125 C 12.742188 57.726562 12.507812 56.160156 12.351562 54.585938 C 12.199219 53.007812 12.121094 51.425781 12.121094 49.84375 C 12.121094 48.257812 12.199219 46.675781 12.351562 45.101562 C 12.507812 43.523438 12.742188 41.957031 13.050781 40.402344 C 13.359375 38.851562 13.742188 37.316406 14.203125 35.796875 C 14.664062 34.28125 15.195312 32.792969 15.804688 31.328125 C 16.410156 29.863281 17.085938 28.433594 17.832031 27.035156 C 18.582031 25.640625 19.394531 24.28125 20.273438 22.964844 C 21.15625 21.644531 22.097656 20.375 23.101562 19.148438 C 24.109375 17.925781 25.171875 16.753906 26.289062 15.632812 C 27.410156 14.511719 28.582031 13.449219 29.808594 12.445312 C 31.035156 11.4375 32.304688 10.496094 33.621094 9.617188 C 34.941406 8.734375 36.296875 7.921875 37.695312 7.175781 C 39.09375 6.429688 40.523438 5.75 41.988281 5.144531 C 43.449219 4.539062 44.941406 4.003906 46.457031 3.546875 C 47.972656 3.085938 49.507812 2.699219 51.0625 2.390625 C 52.617188 2.082031 54.183594 1.851562 55.757812 1.695312 C 57.335938 1.539062 58.917969 1.460938 60.5 1.460938 C 62.085938 1.460938 63.667969 1.539062 65.242188 1.695312 C 66.820312 1.851562 68.386719 2.082031 69.941406 2.390625 C 71.492188 2.699219 73.027344 3.085938 74.546875 3.546875 C 76.0625 4.003906 77.550781 4.539062 79.015625 5.144531 C 80.480469 5.75 81.910156 6.429688 83.308594 7.175781 C 84.703125 7.921875 86.0625 8.734375 87.378906 9.617188 C 88.699219 10.496094 89.96875 11.4375 91.191406 12.445312 C 92.417969 13.449219 93.589844 14.511719 94.710938 15.632812 C 95.832031 16.753906 96.894531 17.925781 97.898438 19.148438 C 98.90625 20.375 99.847656 21.644531 100.726562 22.964844 C 101.609375 24.28125 102.421875 25.640625 103.167969 27.035156 C 103.914062 28.433594 104.59375 29.863281 105.199219 31.328125 C 105.804688 32.792969 106.339844 34.28125 106.796875 35.796875 C 107.257812 37.316406 107.644531 38.851562 107.953125 40.402344 C 108.261719 41.957031 108.492188 43.523438 108.648438 45.101562 C 108.804688 46.675781 108.882812 48.257812 108.882812 49.84375 Z M 108.882812 49.84375 " fill-opacity="1" fill-rule="nonzero"/></g><path fill="#a6a6a6" d="M 107.136719 49.84375 C 107.136719 51.371094 107.058594 52.894531 106.910156 54.414062 C 106.761719 55.933594 106.535156 57.441406 106.238281 58.941406 C 105.941406 60.4375 105.570312 61.917969 105.128906 63.378906 C 104.683594 64.839844 104.167969 66.277344 103.585938 67.6875 C 103 69.101562 102.347656 70.480469 101.628906 71.824219 C 100.910156 73.171875 100.125 74.480469 99.277344 75.75 C 98.425781 77.019531 97.519531 78.246094 96.550781 79.425781 C 95.582031 80.609375 94.554688 81.738281 93.476562 82.816406 C 92.394531 83.898438 91.265625 84.921875 90.085938 85.890625 C 88.90625 86.859375 87.679688 87.769531 86.410156 88.617188 C 85.140625 89.464844 83.832031 90.25 82.484375 90.96875 C 81.136719 91.691406 79.757812 92.34375 78.347656 92.925781 C 76.9375 93.511719 75.5 94.023438 74.039062 94.46875 C 72.578125 94.910156 71.097656 95.28125 69.597656 95.582031 C 68.101562 95.878906 66.59375 96.101562 65.070312 96.253906 C 63.550781 96.402344 62.027344 96.476562 60.5 96.476562 C 58.972656 96.476562 57.449219 96.402344 55.929688 96.253906 C 54.410156 96.101562 52.902344 95.878906 51.402344 95.582031 C 49.90625 95.28125 48.425781 94.910156 46.964844 94.46875 C 45.503906 94.023438 44.066406 93.511719 42.65625 92.925781 C 41.242188 92.34375 39.863281 91.691406 38.519531 90.96875 C 37.171875 90.25 35.863281 89.464844 34.59375 88.617188 C 33.324219 87.769531 32.097656 86.859375 30.917969 85.890625 C 29.734375 84.921875 28.605469 83.898438 27.527344 82.816406 C 26.445312 81.738281 25.421875 80.609375 24.453125 79.425781 C 23.484375 78.246094 22.574219 77.019531 21.726562 75.75 C 20.878906 74.480469 20.09375 73.171875 19.375 71.824219 C 18.652344 70.480469 18 69.101562 17.417969 67.6875 C 16.832031 66.277344 16.320312 64.839844 15.875 63.378906 C 15.433594 61.917969 15.0625 60.4375 14.761719 58.941406 C 14.464844 57.441406 14.242188 55.933594 14.089844 54.414062 C 13.941406 52.894531 13.867188 51.371094 13.867188 49.84375 C 13.867188 48.316406 13.941406 46.792969 14.089844 45.273438 C 14.242188 43.75 14.464844 42.242188 14.761719 40.746094 C 15.0625 39.246094 15.433594 37.765625 15.875 36.304688 C 16.320312 34.84375 16.832031 33.40625 17.417969 31.996094 C 18 30.585938 18.652344 29.207031 19.375 27.859375 C 20.09375 26.511719 20.878906 25.203125 21.726562 23.933594 C 22.574219 22.664062 23.484375 21.4375 24.453125 20.257812 C 25.421875 19.078125 26.445312 17.949219 27.527344 16.867188 C 28.605469 15.789062 29.734375 14.761719 30.917969 13.792969 C 32.097656 12.824219 33.324219 11.917969 34.59375 11.066406 C 35.863281 10.21875 37.171875 9.433594 38.519531 8.714844 C 39.863281 7.996094 41.242188 7.34375 42.65625 6.757812 C 44.066406 6.175781 45.503906 5.660156 46.964844 5.214844 C 48.425781 4.773438 49.90625 4.402344 51.402344 4.105469 C 52.902344 3.808594 54.410156 3.582031 55.929688 3.433594 C 57.449219 3.285156 58.972656 3.207031 60.5 3.207031 C 62.027344 3.207031 63.550781 3.285156 65.070312 3.433594 C 66.59375 3.582031 68.101562 3.808594 69.597656 4.105469 C 71.097656 4.402344 72.578125 4.773438 74.039062 5.214844 C 75.5 5.660156 76.9375 6.175781 78.347656 6.757812 C 79.757812 7.34375 81.136719 7.996094 82.484375 8.714844 C 83.832031 9.433594 85.140625 10.21875 86.410156 11.066406 C 87.679688 11.917969 88.90625 12.824219 90.085938 13.792969 C 91.265625 14.761719 92.394531 15.789062 93.476562 16.867188 C 94.554688 17.949219 95.582031 19.078125 96.550781 20.257812 C 97.519531 21.4375 98.425781 22.664062 99.277344 23.933594 C 100.125 25.203125 100.910156 26.511719 101.628906 27.859375 C 102.347656 29.207031 103 30.585938 103.585938 31.996094 C 104.167969 33.40625 104.683594 34.84375 105.128906 36.304688 C 105.570312 37.765625 105.941406 39.246094 106.238281 40.746094 C 106.535156 42.242188 106.761719 43.75 106.910156 45.273438 C 107.058594 46.792969 107.136719 48.316406 107.136719 49.84375 Z M 107.136719 49.84375 " fill-opacity="1" fill-rule="nonzero"/><path fill="#737373" d="M 57.304688 93.578125 C 57.277344 93.578125 57.253906 93.578125 57.226562 93.574219 C 56.355469 93.507812 55.910156 92.4375 55.390625 91.195312 C 55.15625 90.625 54.761719 89.683594 54.515625 89.527344 C 54.226562 89.605469 53.542969 90.429688 53.171875 90.878906 C 52.320312 91.90625 51.585938 92.792969 50.742188 92.605469 C 49.894531 92.410156 49.613281 91.285156 49.285156 89.980469 C 49.144531 89.421875 48.890625 88.390625 48.667969 88.195312 C 48.371094 88.230469 47.570312 88.945312 47.136719 89.332031 C 46.140625 90.222656 45.277344 90.992188 44.472656 90.671875 C 43.664062 90.355469 43.554688 89.199219 43.429688 87.863281 C 43.375 87.289062 43.273438 86.230469 43.085938 86.003906 C 43.082031 86.003906 43.078125 86.003906 43.078125 86.003906 C 42.773438 86.003906 41.886719 86.582031 41.40625 86.894531 C 40.285156 87.625 39.316406 88.257812 38.566406 87.824219 C 37.816406 87.386719 37.878906 86.230469 37.957031 84.894531 C 37.988281 84.316406 38.046875 83.253906 37.894531 83.003906 C 37.601562 82.949219 36.628906 83.390625 36.101562 83.632812 C 34.882812 84.1875 33.832031 84.667969 33.152344 84.128906 C 32.476562 83.585938 32.714844 82.453125 32.984375 81.140625 C 33.101562 80.578125 33.320312 79.535156 33.203125 79.257812 C 32.921875 79.160156 31.894531 79.457031 31.339844 79.617188 C 30.054688 79.984375 28.941406 80.304688 28.351562 79.667969 C 27.761719 79.035156 28.160156 77.949219 28.625 76.695312 C 28.828125 76.148438 29.195312 75.152344 29.121094 74.863281 C 28.859375 74.726562 27.804688 74.863281 27.226562 74.941406 C 25.898438 75.113281 24.75 75.265625 24.261719 74.550781 C 23.773438 73.835938 24.332031 72.824219 24.976562 71.648438 C 25.253906 71.140625 25.769531 70.207031 25.738281 69.910156 C 25.496094 69.734375 24.433594 69.714844 23.855469 69.703125 C 22.511719 69.679688 21.355469 69.65625 20.976562 68.875 C 20.601562 68.09375 21.304688 67.175781 22.117188 66.117188 C 22.46875 65.652344 23.121094 64.804688 23.132812 64.507812 C 22.917969 64.296875 21.875 64.121094 21.304688 64.023438 C 19.980469 63.796875 18.839844 63.601562 18.582031 62.769531 C 18.328125 61.945312 19.15625 61.144531 20.121094 60.21875 C 20.539062 59.8125 21.308594 59.070312 21.367188 58.777344 C 21.1875 58.539062 20.183594 58.207031 19.636719 58.027344 C 18.359375 57.601562 17.257812 57.238281 17.128906 56.375 C 17 55.523438 17.941406 54.859375 19.027344 54.089844 C 19.503906 53.75 20.382812 53.128906 20.480469 52.847656 C 20.339844 52.589844 19.433594 52.128906 18.882812 51.851562 C 17.683594 51.242188 16.648438 50.714844 16.648438 49.84375 C 16.648438 48.972656 17.683594 48.445312 18.882812 47.839844 C 19.433594 47.5625 20.339844 47.101562 20.480469 46.84375 C 20.382812 46.558594 19.503906 45.9375 19.027344 45.601562 C 17.941406 44.828125 17.003906 44.160156 17.128906 43.308594 C 17.257812 42.449219 18.359375 42.082031 19.636719 41.660156 C 20.183594 41.476562 21.1875 41.144531 21.367188 40.910156 C 21.308594 40.617188 20.539062 39.871094 20.121094 39.46875 C 19.15625 38.539062 18.328125 37.742188 18.582031 36.914062 C 18.839844 36.085938 19.980469 35.890625 21.304688 35.664062 C 21.875 35.566406 22.917969 35.386719 23.132812 35.179688 C 23.121094 34.882812 22.472656 34.03125 22.117188 33.570312 C 21.304688 32.507812 20.605469 31.589844 20.980469 30.8125 C 21.355469 30.03125 22.515625 30.007812 23.859375 29.984375 C 24.4375 29.96875 25.496094 29.949219 25.738281 29.777344 C 25.769531 29.480469 25.257812 28.546875 24.976562 28.035156 C 24.332031 26.863281 23.773438 25.847656 24.265625 25.132812 C 24.753906 24.417969 25.902344 24.570312 27.230469 24.746094 C 27.804688 24.820312 28.859375 24.957031 29.125 24.824219 C 29.199219 24.535156 28.828125 23.535156 28.628906 22.988281 C 28.164062 21.734375 27.761719 20.648438 28.351562 20.011719 C 28.941406 19.378906 30.054688 19.699219 31.34375 20.066406 C 31.898438 20.226562 32.925781 20.523438 33.203125 20.425781 C 33.320312 20.152344 33.105469 19.109375 32.988281 18.539062 C 32.714844 17.230469 32.480469 16.09375 33.15625 15.554688 C 33.832031 15.015625 34.882812 15.496094 36.101562 16.050781 C 36.628906 16.292969 37.601562 16.734375 37.894531 16.679688 C 38.050781 16.425781 37.992188 15.363281 37.957031 14.785156 C 37.882812 13.445312 37.816406 12.289062 38.566406 11.855469 C 39.316406 11.421875 40.28125 12.054688 41.40625 12.785156 C 41.890625 13.101562 42.785156 13.691406 43.085938 13.675781 C 43.273438 13.449219 43.375 12.390625 43.429688 11.816406 C 43.554688 10.476562 43.664062 9.324219 44.472656 9.007812 C 45.277344 8.691406 46.136719 9.460938 47.136719 10.351562 C 47.570312 10.738281 48.371094 11.449219 48.664062 11.484375 C 48.886719 11.289062 49.144531 10.261719 49.285156 9.703125 C 49.609375 8.398438 49.890625 7.269531 50.742188 7.078125 C 51.578125 6.886719 52.316406 7.773438 53.167969 8.800781 C 53.539062 9.25 54.222656 10.078125 54.511719 10.152344 C 54.757812 9.992188 55.148438 9.054688 55.386719 8.488281 C 55.90625 7.242188 56.351562 6.171875 57.222656 6.105469 C 58.078125 6.042969 58.671875 7.027344 59.363281 8.171875 C 59.664062 8.671875 60.222656 9.597656 60.496094 9.710938 C 60.769531 9.59375 61.328125 8.671875 61.628906 8.171875 C 62.320312 7.027344 62.910156 6.042969 63.773438 6.105469 C 64.640625 6.171875 65.085938 7.242188 65.605469 8.488281 C 65.84375 9.054688 66.234375 9.992188 66.480469 10.152344 C 66.769531 10.078125 67.453125 9.25 67.824219 8.800781 C 68.675781 7.773438 69.414062 6.886719 70.253906 7.078125 C 71.101562 7.269531 71.382812 8.394531 71.707031 9.703125 C 71.847656 10.261719 72.105469 11.289062 72.328125 11.484375 C 72.625 11.449219 73.421875 10.738281 73.859375 10.351562 C 74.855469 9.460938 75.714844 8.691406 76.523438 9.007812 C 77.332031 9.324219 77.4375 10.480469 77.566406 11.816406 C 77.617188 12.390625 77.71875 13.449219 77.910156 13.675781 C 77.914062 13.675781 77.914062 13.675781 77.917969 13.675781 C 78.222656 13.675781 79.109375 13.101562 79.589844 12.785156 C 80.710938 12.054688 81.679688 11.421875 82.425781 11.855469 C 83.175781 12.292969 83.113281 13.449219 83.035156 14.785156 C 83.003906 15.363281 82.945312 16.425781 83.097656 16.679688 C 83.390625 16.734375 84.363281 16.289062 84.890625 16.050781 C 86.109375 15.492188 87.164062 15.011719 87.839844 15.554688 C 88.515625 16.09375 88.277344 17.226562 88.007812 18.539062 C 87.890625 19.105469 87.675781 20.148438 87.789062 20.421875 C 88.070312 20.519531 89.097656 20.222656 89.652344 20.0625 C 90.941406 19.695312 92.050781 19.375 92.644531 20.011719 C 93.230469 20.644531 92.832031 21.730469 92.367188 22.988281 C 92.167969 23.53125 91.796875 24.53125 91.871094 24.816406 C 92.132812 24.953125 93.1875 24.816406 93.765625 24.742188 C 95.09375 24.566406 96.242188 24.414062 96.730469 25.128906 C 97.21875 25.84375 96.660156 26.855469 96.015625 28.03125 C 95.738281 28.539062 95.222656 29.472656 95.253906 29.773438 C 95.496094 29.945312 96.558594 29.964844 97.136719 29.976562 C 98.480469 30.003906 99.636719 30.027344 100.015625 30.808594 C 100.390625 31.585938 99.6875 32.503906 98.875 33.566406 C 98.523438 34.027344 97.871094 34.875 97.859375 35.171875 C 98.074219 35.382812 99.117188 35.5625 99.6875 35.65625 C 101.011719 35.886719 102.152344 36.078125 102.410156 36.910156 C 102.664062 37.734375 101.835938 38.535156 100.871094 39.460938 C 100.453125 39.867188 99.683594 40.613281 99.625 40.90625 C 99.804688 41.140625 100.808594 41.472656 101.355469 41.652344 C 102.632812 42.078125 103.734375 42.441406 103.863281 43.304688 C 103.992188 44.15625 103.050781 44.820312 101.964844 45.59375 C 101.488281 45.933594 100.609375 46.554688 100.511719 46.835938 C 100.652344 47.09375 101.558594 47.554688 102.109375 47.832031 C 103.308594 48.441406 104.347656 48.96875 104.347656 49.835938 C 104.347656 50.707031 103.308594 51.234375 102.109375 51.84375 C 101.558594 52.121094 100.652344 52.582031 100.511719 52.839844 C 100.609375 53.121094 101.488281 53.746094 101.964844 54.082031 C 103.050781 54.851562 103.992188 55.519531 103.863281 56.371094 C 103.734375 57.230469 102.632812 57.59375 101.355469 58.019531 C 100.808594 58.199219 99.804688 58.535156 99.625 58.769531 C 99.683594 59.0625 100.453125 59.804688 100.871094 60.210938 C 101.835938 61.136719 102.664062 61.9375 102.410156 62.761719 C 102.152344 63.59375 101.011719 63.789062 99.6875 64.015625 C 99.117188 64.113281 98.074219 64.292969 97.859375 64.5 C 97.871094 64.796875 98.519531 65.644531 98.875 66.109375 C 99.6875 67.171875 100.390625 68.085938 100.015625 68.867188 C 99.636719 69.648438 98.480469 69.667969 97.136719 69.695312 C 96.558594 69.707031 95.496094 69.726562 95.253906 69.902344 C 95.222656 70.199219 95.738281 71.132812 96.015625 71.644531 C 96.664062 72.816406 97.21875 73.828125 96.730469 74.542969 C 96.242188 75.257812 95.09375 75.105469 93.765625 74.933594 C 93.191406 74.859375 92.136719 74.71875 91.871094 74.855469 C 91.796875 75.144531 92.167969 76.144531 92.367188 76.6875 C 92.832031 77.945312 93.234375 79.027344 92.644531 79.660156 C 92.054688 80.296875 90.941406 79.980469 89.652344 79.609375 C 89.097656 79.449219 88.074219 79.152344 87.789062 79.25 C 87.675781 79.523438 87.890625 80.566406 88.007812 81.136719 C 88.28125 82.445312 88.515625 83.582031 87.839844 84.121094 C 87.160156 84.660156 86.109375 84.179688 84.890625 83.625 C 84.363281 83.382812 83.390625 82.945312 83.097656 82.996094 C 82.945312 83.25 83.003906 84.3125 83.035156 84.886719 C 83.113281 86.226562 83.175781 87.382812 82.425781 87.816406 C 81.675781 88.25 80.710938 87.617188 79.585938 86.886719 C 79.101562 86.574219 78.21875 85.996094 77.914062 85.996094 C 77.914062 85.996094 77.910156 85.996094 77.910156 85.996094 C 77.71875 86.226562 77.617188 87.28125 77.5625 87.859375 C 77.4375 89.195312 77.328125 90.347656 76.519531 90.667969 C 75.714844 90.984375 74.855469 90.214844 73.855469 89.324219 C 73.421875 88.9375 72.621094 88.222656 72.328125 88.1875 C 72.105469 88.386719 71.847656 89.414062 71.707031 89.972656 C 71.382812 91.277344 71.101562 92.402344 70.253906 92.597656 C 69.414062 92.785156 68.675781 91.898438 67.824219 90.871094 C 67.453125 90.421875 66.769531 89.597656 66.480469 89.519531 C 66.234375 89.679688 65.84375 90.621094 65.605469 91.1875 C 65.085938 92.429688 64.640625 93.5 63.773438 93.566406 C 62.917969 93.628906 62.320312 92.644531 61.628906 91.503906 C 61.328125 91 60.769531 90.074219 60.496094 89.960938 C 60.222656 90.078125 59.664062 91.003906 59.363281 91.503906 C 58.695312 92.609375 58.117188 93.570312 57.296875 93.570312 Z M 63.664062 92.464844 Z M 60.5 88.84375 C 61.335938 88.84375 61.917969 89.8125 62.59375 90.933594 C 62.90625 91.453125 63.421875 92.304688 63.695312 92.445312 C 63.949219 92.269531 64.355469 91.296875 64.578125 90.761719 C 65.074219 89.566406 65.507812 88.535156 66.320312 88.414062 C 67.140625 88.289062 67.859375 89.160156 68.695312 90.164062 C 69.058594 90.601562 69.71875 91.402344 70.011719 91.5 C 70.234375 91.289062 70.488281 90.265625 70.628906 89.707031 C 70.945312 88.449219 71.214844 87.363281 72 87.121094 C 72.792969 86.875 73.632812 87.625 74.609375 88.492188 C 75.035156 88.875 75.8125 89.566406 76.113281 89.617188 C 76.300781 89.375 76.402344 88.328125 76.453125 87.757812 C 76.574219 86.464844 76.683594 85.347656 77.425781 84.992188 C 78.167969 84.628906 79.113281 85.246094 80.207031 85.957031 C 80.683594 86.269531 81.558594 86.835938 81.867188 86.84375 C 82.015625 86.574219 81.957031 85.527344 81.925781 84.953125 C 81.851562 83.660156 81.789062 82.535156 82.46875 82.070312 C 83.15625 81.605469 84.179688 82.070312 85.363281 82.613281 C 85.882812 82.851562 86.828125 83.28125 87.136719 83.246094 C 87.242188 82.953125 87.03125 81.929688 86.914062 81.371094 C 86.652344 80.097656 86.421875 78.996094 87.027344 78.433594 C 87.632812 77.871094 88.710938 78.179688 89.960938 78.539062 C 90.511719 78.695312 91.519531 78.984375 91.816406 78.898438 C 91.878906 78.597656 91.515625 77.617188 91.316406 77.082031 C 90.867188 75.859375 90.476562 74.804688 90.992188 74.160156 C 91.507812 73.511719 92.621094 73.660156 93.910156 73.828125 C 94.480469 73.90625 95.515625 74.039062 95.796875 73.910156 C 95.8125 73.605469 95.3125 72.691406 95.035156 72.191406 C 94.40625 71.046875 93.863281 70.0625 94.28125 69.34375 C 94.695312 68.632812 95.816406 68.609375 97.117188 68.585938 C 97.6875 68.574219 98.734375 68.554688 98.996094 68.382812 C 98.964844 68.078125 98.332031 67.25 97.984375 66.796875 C 97.195312 65.761719 96.511719 64.867188 96.8125 64.09375 C 97.117188 63.328125 98.21875 63.140625 99.5 62.917969 C 100.0625 62.824219 101.097656 62.648438 101.328125 62.4375 C 101.25 62.140625 100.503906 61.417969 100.09375 61.023438 C 99.15625 60.117188 98.34375 59.335938 98.527344 58.523438 C 98.710938 57.722656 99.773438 57.371094 101.003906 56.960938 C 101.550781 56.78125 102.546875 56.449219 102.746094 56.210938 C 102.625 55.925781 101.777344 55.328125 101.316406 54.996094 C 100.246094 54.242188 99.328125 53.585938 99.390625 52.757812 C 99.449219 51.9375 100.445312 51.433594 101.601562 50.847656 C 102.121094 50.585938 103.066406 50.109375 103.21875 49.839844 C 103.066406 49.574219 102.121094 49.09375 101.601562 48.832031 C 100.449219 48.246094 99.449219 47.742188 99.390625 46.921875 C 99.328125 46.09375 100.246094 45.441406 101.316406 44.683594 C 101.8125 44.332031 102.625 43.75 102.746094 43.472656 C 102.546875 43.230469 101.550781 42.898438 101.003906 42.71875 C 99.773438 42.308594 98.710938 41.960938 98.527344 41.15625 C 98.34375 40.34375 99.15625 39.5625 100.09375 38.65625 C 100.503906 38.261719 101.253906 37.539062 101.328125 37.242188 C 101.097656 37.035156 100.0625 36.855469 99.5 36.761719 C 98.21875 36.542969 97.117188 36.351562 96.8125 35.585938 C 96.511719 34.8125 97.191406 33.917969 97.984375 32.882812 C 98.332031 32.429688 98.964844 31.601562 98.996094 31.296875 C 98.734375 31.125 97.6875 31.105469 97.117188 31.09375 C 95.816406 31.070312 94.695312 31.050781 94.28125 30.335938 C 93.867188 29.621094 94.410156 28.632812 95.035156 27.492188 C 95.3125 26.988281 95.8125 26.074219 95.796875 25.769531 C 95.515625 25.640625 94.480469 25.777344 93.910156 25.851562 C 92.621094 26.019531 91.507812 26.164062 90.992188 25.523438 C 90.476562 24.875 90.867188 23.820312 91.316406 22.597656 C 91.515625 22.0625 91.878906 21.082031 91.816406 20.78125 C 91.519531 20.695312 90.515625 20.984375 89.960938 21.140625 C 88.710938 21.5 87.628906 21.808594 87.027344 21.246094 C 86.421875 20.683594 86.648438 19.585938 86.914062 18.3125 C 87.03125 17.75 87.242188 16.726562 87.136719 16.4375 C 86.828125 16.394531 85.882812 16.832031 85.363281 17.066406 C 84.175781 17.609375 83.15625 18.074219 82.46875 17.609375 C 81.789062 17.140625 81.851562 16.023438 81.925781 14.726562 C 81.957031 14.152344 82.015625 13.105469 81.867188 12.835938 C 81.558594 12.84375 80.683594 13.410156 80.207031 13.722656 C 79.117188 14.433594 78.171875 15.050781 77.425781 14.6875 C 76.683594 14.332031 76.578125 13.214844 76.453125 11.921875 C 76.402344 11.351562 76.300781 10.304688 76.113281 10.058594 C 75.8125 10.113281 75.03125 10.804688 74.609375 11.183594 C 73.636719 12.050781 72.792969 12.800781 72 12.558594 C 71.214844 12.316406 70.945312 11.230469 70.628906 9.96875 C 70.488281 9.410156 70.234375 8.390625 70.011719 8.175781 C 69.71875 8.277344 69.058594 9.074219 68.695312 9.511719 C 67.859375 10.519531 67.140625 11.386719 66.320312 11.265625 C 65.507812 11.144531 65.074219 10.109375 64.578125 8.914062 C 64.355469 8.382812 63.949219 7.410156 63.695312 7.230469 C 63.421875 7.371094 62.90625 8.226562 62.59375 8.746094 C 61.917969 9.867188 61.332031 10.832031 60.5 10.832031 C 59.667969 10.832031 59.082031 9.867188 58.410156 8.746094 C 58.09375 8.226562 57.578125 7.371094 57.308594 7.230469 C 57.054688 7.40625 56.648438 8.378906 56.425781 8.914062 C 55.925781 10.109375 55.496094 11.144531 54.683594 11.265625 C 53.863281 11.386719 53.140625 10.519531 52.308594 9.511719 C 51.945312 9.074219 51.28125 8.277344 50.992188 8.175781 C 50.765625 8.390625 50.511719 9.410156 50.371094 9.96875 C 50.058594 11.226562 49.789062 12.3125 49 12.558594 C 48.207031 12.800781 47.367188 12.050781 46.394531 11.183594 C 45.96875 10.804688 45.191406 10.113281 44.886719 10.058594 C 44.699219 10.304688 44.601562 11.347656 44.546875 11.917969 C 44.425781 13.210938 44.320312 14.328125 43.578125 14.6875 C 42.828125 15.046875 41.890625 14.433594 40.796875 13.722656 C 40.320312 13.410156 39.445312 12.839844 39.136719 12.832031 C 38.988281 13.105469 39.046875 14.148438 39.082031 14.722656 C 39.152344 16.023438 39.214844 17.140625 38.535156 17.605469 C 37.847656 18.074219 36.828125 17.605469 35.644531 17.066406 C 35.121094 16.828125 34.175781 16.394531 33.867188 16.433594 C 33.761719 16.722656 33.972656 17.746094 34.089844 18.308594 C 34.355469 19.582031 34.582031 20.679688 33.980469 21.246094 C 33.371094 21.808594 32.292969 21.496094 31.042969 21.136719 C 30.492188 20.980469 29.488281 20.691406 29.1875 20.777344 C 29.125 21.082031 29.488281 22.058594 29.6875 22.597656 C 30.136719 23.820312 30.527344 24.875 30.011719 25.519531 C 29.496094 26.164062 28.382812 26.019531 27.09375 25.847656 C 26.527344 25.773438 25.488281 25.636719 25.207031 25.765625 C 25.191406 26.074219 25.695312 26.988281 25.96875 27.488281 C 26.597656 28.628906 27.140625 29.613281 26.722656 30.332031 C 26.308594 31.046875 25.1875 31.070312 23.890625 31.09375 C 23.316406 31.101562 22.269531 31.125 22.007812 31.292969 C 22.039062 31.601562 22.671875 32.429688 23.019531 32.878906 C 23.808594 33.914062 24.492188 34.8125 24.191406 35.582031 C 23.890625 36.347656 22.785156 36.539062 21.507812 36.757812 C 20.941406 36.855469 19.90625 37.03125 19.675781 37.238281 C 19.753906 37.535156 20.5 38.261719 20.910156 38.65625 C 21.847656 39.558594 22.660156 40.34375 22.476562 41.152344 C 22.292969 41.957031 21.230469 42.308594 20 42.714844 C 19.453125 42.898438 18.457031 43.230469 18.261719 43.46875 C 18.378906 43.75 19.195312 44.328125 19.691406 44.679688 C 20.757812 45.4375 21.675781 46.089844 21.613281 46.921875 C 21.554688 47.742188 20.558594 48.242188 19.402344 48.828125 C 18.882812 49.089844 17.9375 49.570312 17.785156 49.835938 C 17.9375 50.105469 18.882812 50.585938 19.402344 50.847656 C 20.554688 51.433594 21.554688 51.9375 21.613281 52.753906 C 21.675781 53.585938 20.757812 54.238281 19.691406 54.996094 C 19.195312 55.347656 18.378906 55.925781 18.261719 56.207031 C 18.457031 56.445312 19.453125 56.777344 20 56.960938 C 21.234375 57.367188 22.292969 57.71875 22.476562 58.523438 C 22.660156 59.332031 21.851562 60.113281 20.910156 61.019531 C 20.5 61.414062 19.75 62.136719 19.675781 62.4375 C 19.90625 62.644531 20.941406 62.820312 21.507812 62.917969 C 22.785156 63.136719 23.890625 63.328125 24.191406 64.09375 C 24.492188 64.863281 23.8125 65.761719 23.019531 66.796875 C 22.671875 67.246094 22.039062 68.074219 22.007812 68.382812 C 22.269531 68.550781 23.316406 68.570312 23.890625 68.582031 C 25.1875 68.605469 26.308594 68.628906 26.722656 69.34375 C 27.136719 70.058594 26.597656 71.046875 25.96875 72.1875 C 25.695312 72.6875 25.191406 73.601562 25.207031 73.910156 C 25.488281 74.039062 26.527344 73.902344 27.09375 73.828125 C 28.382812 73.65625 29.496094 73.511719 30.011719 74.15625 C 30.527344 74.800781 30.136719 75.855469 29.6875 77.078125 C 29.488281 77.617188 29.125 78.59375 29.1875 78.898438 C 29.488281 78.980469 30.492188 78.695312 31.042969 78.539062 C 32.292969 78.179688 33.375 77.867188 33.980469 78.429688 C 34.582031 78.996094 34.355469 80.09375 34.089844 81.367188 C 33.972656 81.929688 33.761719 82.953125 33.867188 83.242188 C 34.175781 83.277344 35.121094 82.847656 35.644531 82.609375 C 36.828125 82.070312 37.851562 81.601562 38.535156 82.070312 C 39.214844 82.535156 39.152344 83.65625 39.082031 84.953125 C 39.050781 85.527344 38.992188 86.570312 39.136719 86.839844 C 39.445312 86.835938 40.320312 86.265625 40.796875 85.953125 C 41.890625 85.242188 42.832031 84.628906 43.578125 84.988281 C 44.320312 85.347656 44.425781 86.464844 44.546875 87.757812 C 44.601562 88.328125 44.699219 89.371094 44.886719 89.617188 C 45.191406 89.5625 45.96875 88.871094 46.394531 88.492188 C 47.367188 87.621094 48.207031 86.875 49 87.117188 C 49.789062 87.359375 50.058594 88.445312 50.371094 89.707031 C 50.511719 90.265625 50.765625 91.28125 50.992188 91.5 C 51.28125 91.398438 51.945312 90.601562 52.308594 90.164062 C 53.140625 89.15625 53.859375 88.289062 54.683594 88.410156 C 55.496094 88.53125 55.925781 89.566406 56.425781 90.761719 C 56.648438 91.292969 57.050781 92.265625 57.308594 92.441406 C 57.578125 92.300781 58.097656 91.449219 58.410156 90.925781 C 59.082031 89.808594 59.667969 88.839844 60.5 88.839844 Z M 60.519531 89.960938 Z M 60.480469 89.960938 Z M 44.914062 89.644531 Z M 54.496094 89.515625 Z M 81.847656 86.875 Z M 39.15625 86.875 Z M 81.898438 86.84375 Z M 43.070312 85.988281 Z M 87.171875 83.238281 Z M 33.828125 83.238281 Z M 83.082031 83.007812 Z M 37.917969 83.007812 Z M 33.199219 79.234375 Z M 91.851562 78.886719 Z M 29.152344 78.886719 Z M 91.855469 74.871094 Z M 91.882812 74.839844 Z M 29.117188 74.839844 Z M 95.796875 73.945312 Z M 25.203125 73.945312 Z M 95.832031 73.894531 Z M 25.761719 69.921875 Z M 95.261719 69.882812 Z M 25.738281 69.882812 Z M 99.027344 68.363281 Z M 21.976562 68.363281 Z M 97.867188 64.484375 Z M 99.617188 58.796875 Z M 21.386719 58.796875 Z M 21.375 58.753906 Z M 102.761719 56.246094 Z M 100.507812 52.867188 Z M 20.496094 52.867188 Z M 100.511719 52.824219 Z M 103.238281 49.871094 Z M 17.765625 49.871094 Z M 103.238281 49.8125 Z M 17.765625 49.8125 Z M 100.511719 46.863281 Z M 20.496094 46.820312 Z M 100.507812 46.820312 Z M 102.769531 43.503906 Z M 99.617188 40.890625 Z M 99 31.265625 Z M 22.003906 31.265625 Z M 95.242188 29.761719 Z M 95.832031 25.792969 Z M 25.171875 25.789062 Z M 95.796875 25.738281 Z M 25.203125 25.738281 Z M 91.882812 24.847656 Z M 91.851562 20.796875 Z M 29.152344 20.796875 Z M 29.195312 20.75 Z M 33.230469 20.417969 Z M 83.117188 16.703125 Z M 37.882812 16.703125 Z M 87.171875 16.449219 Z M 33.828125 16.449219 Z M 33.878906 16.410156 Z M 77.929688 13.699219 Z M 43.070312 13.699219 Z M 81.902344 12.839844 Z M 48.648438 11.503906 Z M 54.496094 10.171875 Z M 44.914062 10.039062 Z M 60.519531 9.722656 Z M 60.480469 9.722656 Z M 69.984375 8.164062 Z M 69.984375 8.164062 " fill-opacity="1" fill-rule="nonzero"/><path fill="#737373" d="M 97.453125 49.84375 C 97.453125 51.054688 97.394531 52.261719 97.277344 53.464844 C 97.15625 54.667969 96.980469 55.863281 96.742188 57.050781 C 96.507812 58.238281 96.214844 59.410156 95.863281 60.570312 C 95.511719 61.726562 95.105469 62.867188 94.640625 63.984375 C 94.179688 65.101562 93.660156 66.195312 93.089844 67.261719 C 92.519531 68.328125 91.898438 69.367188 91.226562 70.371094 C 90.554688 71.378906 89.832031 72.351562 89.066406 73.285156 C 88.296875 74.222656 87.488281 75.117188 86.628906 75.972656 C 85.773438 76.828125 84.878906 77.640625 83.945312 78.40625 C 83.007812 79.175781 82.039062 79.894531 81.03125 80.566406 C 80.023438 81.242188 78.988281 81.863281 77.921875 82.433594 C 76.851562 83.003906 75.761719 83.519531 74.640625 83.984375 C 73.523438 84.445312 72.386719 84.851562 71.226562 85.203125 C 70.070312 85.554688 68.898438 85.847656 67.710938 86.085938 C 66.523438 86.320312 65.328125 86.5 64.125 86.617188 C 62.917969 86.738281 61.710938 86.796875 60.5 86.796875 C 59.289062 86.796875 58.082031 86.738281 56.878906 86.617188 C 55.675781 86.5 54.480469 86.320312 53.292969 86.085938 C 52.105469 85.847656 50.933594 85.554688 49.773438 85.203125 C 48.617188 84.851562 47.476562 84.445312 46.359375 83.984375 C 45.242188 83.519531 44.148438 83.003906 43.082031 82.433594 C 42.015625 81.863281 40.976562 81.242188 39.972656 80.566406 C 38.964844 79.894531 37.992188 79.175781 37.058594 78.40625 C 36.121094 77.640625 35.226562 76.828125 34.371094 75.972656 C 33.515625 75.117188 32.703125 74.222656 31.9375 73.285156 C 31.167969 72.351562 30.449219 71.378906 29.777344 70.371094 C 29.101562 69.367188 28.480469 68.328125 27.910156 67.261719 C 27.339844 66.195312 26.824219 65.101562 26.359375 63.984375 C 25.898438 62.867188 25.492188 61.726562 25.140625 60.570312 C 24.789062 59.410156 24.492188 58.238281 24.257812 57.050781 C 24.023438 55.863281 23.84375 54.667969 23.726562 53.464844 C 23.605469 52.261719 23.546875 51.054688 23.546875 49.84375 C 23.546875 48.632812 23.605469 47.425781 23.726562 46.21875 C 23.84375 45.015625 24.023438 43.820312 24.257812 42.632812 C 24.492188 41.445312 24.789062 40.273438 25.140625 39.117188 C 25.492188 37.957031 25.898438 36.820312 26.359375 35.703125 C 26.824219 34.582031 27.339844 33.492188 27.910156 32.421875 C 28.480469 31.355469 29.101562 30.320312 29.777344 29.3125 C 30.449219 28.304688 31.167969 27.335938 31.9375 26.398438 C 32.703125 25.464844 33.515625 24.570312 34.371094 23.710938 C 35.226562 22.855469 36.121094 22.046875 37.058594 21.277344 C 37.992188 20.507812 38.964844 19.789062 39.972656 19.117188 C 40.976562 18.445312 42.015625 17.824219 43.082031 17.253906 C 44.148438 16.683594 45.242188 16.164062 46.359375 15.703125 C 47.476562 15.238281 48.617188 14.832031 49.773438 14.480469 C 50.933594 14.128906 52.105469 13.835938 53.292969 13.601562 C 54.480469 13.363281 55.675781 13.1875 56.878906 13.066406 C 58.082031 12.949219 59.289062 12.890625 60.5 12.890625 C 61.710938 12.890625 62.917969 12.949219 64.125 13.066406 C 65.328125 13.1875 66.523438 13.363281 67.710938 13.601562 C 68.898438 13.835938 70.070312 14.128906 71.226562 14.480469 C 72.386719 14.832031 73.523438 15.238281 74.640625 15.703125 C 75.761719 16.164062 76.851562 16.683594 77.921875 17.253906 C 78.988281 17.824219 80.023438 18.445312 81.03125 19.117188 C 82.039062 19.789062 83.007812 20.507812 83.945312 21.277344 C 84.878906 22.046875 85.773438 22.855469 86.628906 23.710938 C 87.488281 24.570312 88.296875 25.464844 89.066406 26.398438 C 89.832031 27.335938 90.554688 28.304688 91.226562 29.3125 C 91.898438 30.320312 92.519531 31.355469 93.089844 32.421875 C 93.660156 33.492188 94.179688 34.582031 94.640625 35.703125 C 95.105469 36.820312 95.511719 37.957031 95.863281 39.117188 C 96.214844 40.273438 96.507812 41.445312 96.742188 42.632812 C 96.980469 43.820312 97.15625 45.015625 97.277344 46.21875 C 97.394531 47.425781 97.453125 48.632812 97.453125 49.84375 Z M 97.453125 49.84375 " fill-opacity="1" fill-rule="nonzero"/><path fill="#ffffff" d="M 57.546875 51.15625 C 60.960938 47.589844 62.667969 44.253906 62.667969 41.144531 C 62.667969 40.097656 62.4375 39.285156 61.980469 38.71875 C 61.519531 38.148438 60.917969 37.863281 60.175781 37.863281 C 59.296875 37.863281 58.609375 38.3125 58.105469 39.207031 C 57.601562 40.105469 57.417969 41.472656 57.546875 43.3125 L 43.433594 43.3125 C 43.566406 39.238281 44.453125 35.890625 46.09375 33.265625 C 47.734375 30.644531 49.867188 28.71875 52.492188 27.492188 C 55.117188 26.265625 58.007812 25.652344 61.160156 25.652344 C 66.761719 25.652344 70.863281 26.996094 73.46875 29.691406 C 76.070312 32.382812 77.375 35.828125 77.375 40.027344 C 77.375 44.449219 75.964844 48.59375 73.140625 52.46875 C 70.316406 56.339844 66.785156 59.613281 62.539062 62.28125 L 77.570312 62.28125 L 77.570312 74.03125 L 43.628906 74.03125 L 43.628906 63.070312 C 49.496094 58.695312 54.132812 54.722656 57.546875 51.15625 Z M 57.546875 51.15625 " fill-opacity="1" fill-rule="nonzero"/></svg>