<svg xmlns="http://www.w3.org/2000/svg" xmlns:xlink="http://www.w3.org/1999/xlink" width="162" zoomAndPan="magnify" viewBox="0 0 121.5 121.499994" height="162" preserveAspectRatio="xMidYMid meet" version="1.0"><defs><g/><clipPath id="9b0809f573"><rect x="0" width="44" y="0" height="24"/></clipPath><clipPath id="61f3f00b9f"><path d="M 29 28 L 121 28 L 121 119.453125 L 29 119.453125 Z M 29 28 " clip-rule="nonzero"/></clipPath><clipPath id="4141496651"><path d="M 0 28 L 92 28 L 92 119.453125 L 0 119.453125 Z M 0 28 " clip-rule="nonzero"/></clipPath><clipPath id="0da7201b5b"><path d="M 12 1.4375 L 109 1.4375 L 109 99 L 12 99 Z M 12 1.4375 " clip-rule="nonzero"/></clipPath></defs><g transform="matrix(1, 0, 0, 1, 41, 43)"><g clip-path="url(#9b0809f573)"><g fill="#000000" fill-opacity="1"><g transform="translate(1.049653, 9.147261)"><g><path d="M 0.734375 0 L 0.734375 -5.8125 L 1.96875 -5.8125 L 1.96875 0 Z M 0.734375 0 "/></g></g></g><g fill="#000000" fill-opacity="1"><g transform="translate(3.743529, 9.147261)"><g><path d="M 4.734375 0 L 3.53125 0 L 3.53125 -2.59375 C 3.53125 -2.914062 3.472656 -3.15625 3.359375 -3.3125 C 3.242188 -3.476562 3.0625 -3.5625 2.8125 -3.5625 C 2.46875 -3.5625 2.21875 -3.445312 2.0625 -3.21875 C 1.914062 -2.988281 1.84375 -2.613281 1.84375 -2.09375 L 1.84375 0 L 0.640625 0 L 0.640625 -4.4375 L 1.5625 -4.4375 L 1.71875 -3.875 L 1.796875 -3.875 C 1.929688 -4.09375 2.113281 -4.253906 2.34375 -4.359375 C 2.582031 -4.472656 2.851562 -4.53125 3.15625 -4.53125 C 3.675781 -4.53125 4.066406 -4.390625 4.328125 -4.109375 C 4.597656 -3.828125 4.734375 -3.421875 4.734375 -2.890625 Z M 4.734375 0 "/></g></g></g><g fill="#000000" fill-opacity="1"><g transform="translate(9.091548, 9.147261)"><g><path d="M 3.734375 -1.3125 C 3.734375 -0.863281 3.570312 -0.519531 3.25 -0.28125 C 2.9375 -0.0390625 2.46875 0.078125 1.84375 0.078125 C 1.519531 0.078125 1.242188 0.0546875 1.015625 0.015625 C 0.785156 -0.0234375 0.570312 -0.0859375 0.375 -0.171875 L 0.375 -1.1875 C 0.601562 -1.070312 0.859375 -0.976562 1.140625 -0.90625 C 1.421875 -0.84375 1.664062 -0.8125 1.875 -0.8125 C 2.320312 -0.8125 2.546875 -0.9375 2.546875 -1.1875 C 2.546875 -1.28125 2.515625 -1.359375 2.453125 -1.421875 C 2.390625 -1.484375 2.285156 -1.550781 2.140625 -1.625 C 2.003906 -1.695312 1.816406 -1.785156 1.578125 -1.890625 C 1.234375 -2.035156 0.976562 -2.164062 0.8125 -2.28125 C 0.65625 -2.40625 0.539062 -2.546875 0.46875 -2.703125 C 0.394531 -2.859375 0.359375 -3.050781 0.359375 -3.28125 C 0.359375 -3.675781 0.507812 -3.984375 0.8125 -4.203125 C 1.125 -4.421875 1.5625 -4.53125 2.125 -4.53125 C 2.65625 -4.53125 3.175781 -4.410156 3.6875 -4.171875 L 3.328125 -3.296875 C 3.097656 -3.398438 2.882812 -3.476562 2.6875 -3.53125 C 2.5 -3.59375 2.304688 -3.625 2.109375 -3.625 C 1.742188 -3.625 1.5625 -3.53125 1.5625 -3.34375 C 1.5625 -3.226562 1.617188 -3.128906 1.734375 -3.046875 C 1.859375 -2.972656 2.113281 -2.859375 2.5 -2.703125 C 2.84375 -2.566406 3.09375 -2.4375 3.25 -2.3125 C 3.414062 -2.1875 3.535156 -2.046875 3.609375 -1.890625 C 3.691406 -1.734375 3.734375 -1.539062 3.734375 -1.3125 Z M 3.734375 -1.3125 "/></g></g></g><g fill="#000000" fill-opacity="1"><g transform="translate(13.136335, 9.147261)"><g><path d="M 2.46875 -3.671875 C 2.21875 -3.671875 2.019531 -3.585938 1.875 -3.421875 C 1.726562 -3.253906 1.644531 -3.023438 1.625 -2.734375 L 3.328125 -2.734375 C 3.316406 -3.023438 3.234375 -3.253906 3.078125 -3.421875 C 2.929688 -3.585938 2.726562 -3.671875 2.46875 -3.671875 Z M 2.640625 0.078125 C 1.929688 0.078125 1.375 -0.117188 0.96875 -0.515625 C 0.5625 -0.910156 0.359375 -1.46875 0.359375 -2.1875 C 0.359375 -2.9375 0.546875 -3.515625 0.921875 -3.921875 C 1.296875 -4.328125 1.8125 -4.53125 2.46875 -4.53125 C 3.09375 -4.53125 3.578125 -4.347656 3.921875 -3.984375 C 4.273438 -3.628906 4.453125 -3.140625 4.453125 -2.515625 L 4.453125 -1.921875 L 1.59375 -1.921875 C 1.601562 -1.578125 1.703125 -1.304688 1.890625 -1.109375 C 2.085938 -0.921875 2.359375 -0.828125 2.703125 -0.828125 C 2.972656 -0.828125 3.222656 -0.851562 3.453125 -0.90625 C 3.691406 -0.957031 3.941406 -1.046875 4.203125 -1.171875 L 4.203125 -0.234375 C 3.992188 -0.128906 3.769531 -0.0507812 3.53125 0 C 3.289062 0.0507812 2.992188 0.078125 2.640625 0.078125 Z M 2.640625 0.078125 "/></g></g></g><g fill="#000000" fill-opacity="1"><g transform="translate(17.94399, 9.147261)"><g><path d="M 3.109375 -4.53125 C 3.273438 -4.53125 3.414062 -4.515625 3.53125 -4.484375 L 3.4375 -3.359375 C 3.332031 -3.378906 3.210938 -3.390625 3.078125 -3.390625 C 2.691406 -3.390625 2.390625 -3.289062 2.171875 -3.09375 C 1.953125 -2.894531 1.84375 -2.617188 1.84375 -2.265625 L 1.84375 0 L 0.640625 0 L 0.640625 -4.4375 L 1.546875 -4.4375 L 1.734375 -3.703125 L 1.796875 -3.703125 C 1.929688 -3.953125 2.113281 -4.148438 2.34375 -4.296875 C 2.582031 -4.453125 2.835938 -4.53125 3.109375 -4.53125 Z M 3.109375 -4.53125 "/></g></g></g><g fill="#000000" fill-opacity="1"><g transform="translate(21.63913, 9.147261)"><g><path d="M 0.578125 -5.59375 C 0.578125 -5.988281 0.800781 -6.1875 1.25 -6.1875 C 1.6875 -6.1875 1.90625 -5.988281 1.90625 -5.59375 C 1.90625 -5.40625 1.847656 -5.257812 1.734375 -5.15625 C 1.628906 -5.050781 1.46875 -5 1.25 -5 C 0.800781 -5 0.578125 -5.195312 0.578125 -5.59375 Z M 1.84375 0 L 0.640625 0 L 0.640625 -4.4375 L 1.84375 -4.4375 Z M 1.84375 0 "/></g></g></g><g fill="#000000" fill-opacity="1"><g transform="translate(24.122423, 9.147261)"><g><path d="M 3.109375 -4.53125 C 3.273438 -4.53125 3.414062 -4.515625 3.53125 -4.484375 L 3.4375 -3.359375 C 3.332031 -3.378906 3.210938 -3.390625 3.078125 -3.390625 C 2.691406 -3.390625 2.390625 -3.289062 2.171875 -3.09375 C 1.953125 -2.894531 1.84375 -2.617188 1.84375 -2.265625 L 1.84375 0 L 0.640625 0 L 0.640625 -4.4375 L 1.546875 -4.4375 L 1.734375 -3.703125 L 1.796875 -3.703125 C 1.929688 -3.953125 2.113281 -4.148438 2.34375 -4.296875 C 2.582031 -4.453125 2.835938 -4.53125 3.109375 -4.53125 Z M 3.109375 -4.53125 "/></g></g></g><g fill="#000000" fill-opacity="1"><g transform="translate(27.817562, 9.147261)"><g/></g></g><g fill="#000000" fill-opacity="1"><g transform="translate(29.931341, 9.147261)"><g><path d="M 3.78125 0 L 3.625 -0.5625 L 3.5625 -0.5625 C 3.425781 -0.363281 3.238281 -0.207031 3 -0.09375 C 2.757812 0.0195312 2.488281 0.078125 2.1875 0.078125 C 1.664062 0.078125 1.269531 -0.0625 1 -0.34375 C 0.738281 -0.625 0.609375 -1.023438 0.609375 -1.546875 L 0.609375 -4.4375 L 1.828125 -4.4375 L 1.828125 -1.84375 C 1.828125 -1.53125 1.882812 -1.289062 2 -1.125 C 2.113281 -0.96875 2.296875 -0.890625 2.546875 -0.890625 C 2.878906 -0.890625 3.117188 -1 3.265625 -1.21875 C 3.421875 -1.445312 3.5 -1.828125 3.5 -2.359375 L 3.5 -4.4375 L 4.71875 -4.4375 L 4.71875 0 Z M 3.78125 0 "/></g></g></g><g fill="#000000" fill-opacity="1"><g transform="translate(35.279361, 9.147261)"><g><path d="M 4.609375 0 L 3.40625 0 L 3.40625 -2.59375 C 3.40625 -2.914062 3.347656 -3.15625 3.234375 -3.3125 C 3.128906 -3.476562 2.960938 -3.5625 2.734375 -3.5625 C 2.421875 -3.5625 2.191406 -3.445312 2.046875 -3.21875 C 1.910156 -2.988281 1.84375 -2.613281 1.84375 -2.09375 L 1.84375 0 L 0.640625 0 L 0.640625 -4.4375 L 1.5625 -4.4375 L 1.71875 -3.875 L 1.796875 -3.875 C 1.910156 -4.082031 2.078125 -4.242188 2.296875 -4.359375 C 2.523438 -4.472656 2.785156 -4.53125 3.078125 -4.53125 C 3.742188 -4.53125 4.195312 -4.3125 4.4375 -3.875 L 4.546875 -3.875 C 4.660156 -4.082031 4.832031 -4.242188 5.0625 -4.359375 C 5.300781 -4.472656 5.566406 -4.53125 5.859375 -4.53125 C 6.359375 -4.53125 6.738281 -4.398438 7 -4.140625 C 7.257812 -3.878906 7.390625 -3.460938 7.390625 -2.890625 L 7.390625 0 L 6.171875 0 L 6.171875 -2.59375 C 6.171875 -2.914062 6.113281 -3.15625 6 -3.3125 C 5.894531 -3.476562 5.726562 -3.5625 5.5 -3.5625 C 5.207031 -3.5625 4.984375 -3.453125 4.828125 -3.234375 C 4.679688 -3.023438 4.609375 -2.691406 4.609375 -2.234375 Z M 4.609375 0 "/></g></g></g><g fill="#000000" fill-opacity="1"><g transform="translate(10.952023, 20.487622)"><g><path d="M 2.515625 -0.890625 C 2.722656 -0.890625 2.972656 -0.9375 3.265625 -1.03125 L 3.265625 -0.125 C 2.960938 0.0078125 2.59375 0.078125 2.15625 0.078125 C 1.675781 0.078125 1.320312 -0.0390625 1.09375 -0.28125 C 0.875 -0.53125 0.765625 -0.898438 0.765625 -1.390625 L 0.765625 -3.53125 L 0.1875 -3.53125 L 0.1875 -4.046875 L 0.859375 -4.453125 L 1.203125 -5.390625 L 1.984375 -5.390625 L 1.984375 -4.4375 L 3.21875 -4.4375 L 3.21875 -3.53125 L 1.984375 -3.53125 L 1.984375 -1.390625 C 1.984375 -1.222656 2.03125 -1.097656 2.125 -1.015625 C 2.21875 -0.929688 2.347656 -0.890625 2.515625 -0.890625 Z M 2.515625 -0.890625 "/></g></g></g><g fill="#000000" fill-opacity="1"><g transform="translate(14.484258, 20.487622)"><g><path d="M 1.84375 0 L 0.640625 0 L 0.640625 -4.4375 L 1.84375 -4.4375 Z M 0.5625 -4.9375 L 0.5625 -5.046875 C 1.019531 -5.566406 1.332031 -5.960938 1.5 -6.234375 L 2.859375 -6.234375 L 2.859375 -6.15625 C 2.722656 -6.019531 2.488281 -5.8125 2.15625 -5.53125 C 1.820312 -5.257812 1.5625 -5.0625 1.375 -4.9375 Z M 0.5625 -4.9375 "/></g></g></g><g fill="#000000" fill-opacity="1"><g transform="translate(16.967551, 20.487622)"><g><path d="M 2.515625 -0.890625 C 2.722656 -0.890625 2.972656 -0.9375 3.265625 -1.03125 L 3.265625 -0.125 C 2.960938 0.0078125 2.59375 0.078125 2.15625 0.078125 C 1.675781 0.078125 1.320312 -0.0390625 1.09375 -0.28125 C 0.875 -0.53125 0.765625 -0.898438 0.765625 -1.390625 L 0.765625 -3.53125 L 0.1875 -3.53125 L 0.1875 -4.046875 L 0.859375 -4.453125 L 1.203125 -5.390625 L 1.984375 -5.390625 L 1.984375 -4.4375 L 3.21875 -4.4375 L 3.21875 -3.53125 L 1.984375 -3.53125 L 1.984375 -1.390625 C 1.984375 -1.222656 2.03125 -1.097656 2.125 -1.015625 C 2.21875 -0.929688 2.347656 -0.890625 2.515625 -0.890625 Z M 2.515625 -0.890625 "/></g></g></g><g fill="#000000" fill-opacity="1"><g transform="translate(20.499787, 20.487622)"><g><path d="M 3.78125 0 L 3.625 -0.5625 L 3.5625 -0.5625 C 3.425781 -0.363281 3.238281 -0.207031 3 -0.09375 C 2.757812 0.0195312 2.488281 0.078125 2.1875 0.078125 C 1.664062 0.078125 1.269531 -0.0625 1 -0.34375 C 0.738281 -0.625 0.609375 -1.023438 0.609375 -1.546875 L 0.609375 -4.4375 L 1.828125 -4.4375 L 1.828125 -1.84375 C 1.828125 -1.53125 1.882812 -1.289062 2 -1.125 C 2.113281 -0.96875 2.296875 -0.890625 2.546875 -0.890625 C 2.878906 -0.890625 3.117188 -1 3.265625 -1.21875 C 3.421875 -1.445312 3.5 -1.828125 3.5 -2.359375 L 3.5 -4.4375 L 4.71875 -4.4375 L 4.71875 0 Z M 3.78125 0 "/></g></g></g><g fill="#000000" fill-opacity="1"><g transform="translate(25.847806, 20.487622)"><g><path d="M 1.84375 0 L 0.640625 0 L 0.640625 -6.1875 L 1.84375 -6.1875 Z M 1.84375 0 "/></g></g></g><g fill="#000000" fill-opacity="1"><g transform="translate(28.331099, 20.487622)"><g><path d="M 1.609375 -2.234375 C 1.609375 -1.785156 1.675781 -1.445312 1.8125 -1.21875 C 1.957031 -1 2.195312 -0.890625 2.53125 -0.890625 C 2.851562 -0.890625 3.082031 -1 3.21875 -1.21875 C 3.363281 -1.445312 3.4375 -1.785156 3.4375 -2.234375 C 3.4375 -2.671875 3.363281 -3 3.21875 -3.21875 C 3.070312 -3.4375 2.835938 -3.546875 2.515625 -3.546875 C 2.191406 -3.546875 1.957031 -3.4375 1.8125 -3.21875 C 1.675781 -3 1.609375 -2.671875 1.609375 -2.234375 Z M 4.671875 -2.234375 C 4.671875 -1.503906 4.476562 -0.9375 4.09375 -0.53125 C 3.71875 -0.125 3.191406 0.078125 2.515625 0.078125 C 2.085938 0.078125 1.707031 -0.015625 1.375 -0.203125 C 1.050781 -0.390625 0.800781 -0.65625 0.625 -1 C 0.445312 -1.351562 0.359375 -1.765625 0.359375 -2.234375 C 0.359375 -2.953125 0.546875 -3.515625 0.921875 -3.921875 C 1.304688 -4.328125 1.84375 -4.53125 2.53125 -4.53125 C 2.957031 -4.53125 3.332031 -4.4375 3.65625 -4.25 C 3.988281 -4.0625 4.238281 -3.789062 4.40625 -3.4375 C 4.582031 -3.09375 4.671875 -2.691406 4.671875 -2.234375 Z M 4.671875 -2.234375 "/></g></g></g></g></g><g clip-path="url(#61f3f00b9f)"><path fill="#be1e2d" d="M 98.734375 119.453125 L 29.800781 50.578125 L 52.066406 28.332031 L 121 97.203125 L 106.457031 104.371094 Z M 98.734375 119.453125 " fill-opacity="1" fill-rule="nonzero"/></g><g clip-path="url(#4141496651)"><path fill="#be1e2d" d="M 22.269531 119.453125 L 91.199219 50.578125 L 68.933594 28.332031 L 0 97.203125 L 14.546875 104.371094 Z M 22.269531 119.453125 " fill-opacity="1" fill-rule="nonzero"/></g><g clip-path="url(#0da7201b5b)"><path fill="#bc8d2f" d="M 108.902344 49.792969 C 108.902344 51.378906 108.824219 52.957031 108.667969 54.535156 C 108.511719 56.109375 108.28125 57.675781 107.96875 59.226562 C 107.660156 60.78125 107.277344 62.316406 106.816406 63.832031 C 106.355469 65.347656 105.824219 66.835938 105.214844 68.296875 C 104.609375 69.761719 103.933594 71.191406 103.1875 72.589844 C 102.4375 73.984375 101.625 75.34375 100.742188 76.660156 C 99.863281 77.976562 98.921875 79.246094 97.914062 80.46875 C 96.910156 81.695312 95.84375 82.867188 94.726562 83.988281 C 93.605469 85.105469 92.429688 86.167969 91.207031 87.171875 C 89.980469 88.179688 88.707031 89.121094 87.390625 90 C 86.074219 90.878906 84.714844 91.695312 83.316406 92.441406 C 81.917969 93.1875 80.488281 93.863281 79.023438 94.46875 C 77.558594 95.074219 76.066406 95.609375 74.550781 96.066406 C 73.035156 96.527344 71.496094 96.910156 69.941406 97.222656 C 68.386719 97.53125 66.824219 97.761719 65.246094 97.917969 C 63.667969 98.074219 62.085938 98.148438 60.5 98.148438 C 58.914062 98.148438 57.335938 98.074219 55.757812 97.917969 C 54.179688 97.761719 52.613281 97.53125 51.058594 97.222656 C 49.503906 96.910156 47.96875 96.527344 46.453125 96.066406 C 44.933594 95.609375 43.445312 95.074219 41.980469 94.46875 C 40.515625 93.863281 39.082031 93.1875 37.6875 92.441406 C 36.289062 91.695312 34.929688 90.878906 33.613281 90 C 32.292969 89.121094 31.023438 88.179688 29.796875 87.171875 C 28.570312 86.167969 27.398438 85.105469 26.277344 83.988281 C 25.15625 82.867188 24.09375 81.695312 23.085938 80.46875 C 22.082031 79.246094 21.140625 77.976562 20.257812 76.660156 C 19.378906 75.34375 18.5625 73.984375 17.816406 72.589844 C 17.070312 71.191406 16.390625 69.761719 15.785156 68.296875 C 15.179688 66.835938 14.644531 65.347656 14.183594 63.832031 C 13.726562 62.316406 13.339844 60.78125 13.03125 59.226562 C 12.722656 57.675781 12.488281 56.109375 12.335938 54.535156 C 12.179688 52.957031 12.101562 51.378906 12.101562 49.792969 C 12.101562 48.210938 12.179688 46.628906 12.335938 45.054688 C 12.488281 43.476562 12.722656 41.914062 13.03125 40.359375 C 13.339844 38.804688 13.726562 37.273438 14.183594 35.757812 C 14.644531 34.242188 15.179688 32.75 15.785156 31.289062 C 16.390625 29.824219 17.070312 28.394531 17.816406 27 C 18.5625 25.601562 19.378906 24.246094 20.257812 22.929688 C 21.140625 21.609375 22.082031 20.339844 23.085938 19.117188 C 24.09375 17.890625 25.15625 16.71875 26.277344 15.601562 C 27.398438 14.480469 28.570312 13.417969 29.796875 12.414062 C 31.023438 11.410156 32.292969 10.464844 33.613281 9.585938 C 34.929688 8.707031 36.289062 7.894531 37.6875 7.148438 C 39.082031 6.398438 40.515625 5.722656 41.980469 5.117188 C 43.445312 4.511719 44.933594 3.980469 46.453125 3.519531 C 47.96875 3.058594 49.503906 2.675781 51.058594 2.367188 C 52.613281 2.058594 54.179688 1.824219 55.757812 1.667969 C 57.335938 1.515625 58.914062 1.4375 60.5 1.4375 C 62.085938 1.4375 63.667969 1.515625 65.246094 1.667969 C 66.824219 1.824219 68.386719 2.058594 69.941406 2.367188 C 71.496094 2.675781 73.035156 3.058594 74.550781 3.519531 C 76.066406 3.980469 77.558594 4.511719 79.023438 5.117188 C 80.488281 5.722656 81.917969 6.398438 83.316406 7.148438 C 84.714844 7.894531 86.074219 8.707031 87.390625 9.585938 C 88.707031 10.464844 89.980469 11.410156 91.207031 12.414062 C 92.429688 13.417969 93.605469 14.480469 94.726562 15.601562 C 95.84375 16.71875 96.910156 17.890625 97.914062 19.117188 C 98.921875 20.339844 99.863281 21.609375 100.742188 22.929688 C 101.625 24.246094 102.4375 25.601562 103.1875 27 C 103.933594 28.394531 104.609375 29.824219 105.214844 31.289062 C 105.824219 32.75 106.355469 34.242188 106.816406 35.757812 C 107.277344 37.273438 107.660156 38.804688 107.96875 40.359375 C 108.28125 41.914062 108.511719 43.476562 108.667969 45.054688 C 108.824219 46.628906 108.902344 48.210938 108.902344 49.792969 Z M 108.902344 49.792969 " fill-opacity="1" fill-rule="nonzero"/></g><path fill="#ffc33e" d="M 107.152344 49.792969 C 107.152344 51.320312 107.078125 52.84375 106.929688 54.363281 C 106.777344 55.882812 106.554688 57.390625 106.257812 58.886719 C 105.957031 60.382812 105.589844 61.863281 105.144531 63.324219 C 104.699219 64.785156 104.1875 66.21875 103.601562 67.628906 C 103.015625 69.042969 102.363281 70.417969 101.644531 71.765625 C 100.925781 73.113281 100.140625 74.417969 99.292969 75.6875 C 98.441406 76.957031 97.53125 78.183594 96.5625 79.363281 C 95.59375 80.542969 94.570312 81.671875 93.488281 82.753906 C 92.410156 83.832031 91.277344 84.855469 90.097656 85.824219 C 88.914062 86.792969 87.691406 87.699219 86.417969 88.550781 C 85.148438 89.398438 83.839844 90.179688 82.492188 90.902344 C 81.144531 91.621094 79.765625 92.273438 78.355469 92.855469 C 76.941406 93.441406 75.503906 93.953125 74.042969 94.398438 C 72.582031 94.839844 71.101562 95.210938 69.601562 95.507812 C 68.105469 95.808594 66.59375 96.03125 65.074219 96.179688 C 63.554688 96.328125 62.027344 96.40625 60.5 96.40625 C 58.972656 96.40625 57.449219 96.328125 55.929688 96.179688 C 54.40625 96.03125 52.898438 95.808594 51.398438 95.507812 C 49.902344 95.210938 48.421875 94.839844 46.957031 94.398438 C 45.496094 93.953125 44.058594 93.441406 42.648438 92.855469 C 41.234375 92.273438 39.855469 91.621094 38.507812 90.902344 C 37.160156 90.179688 35.851562 89.398438 34.582031 88.550781 C 33.3125 87.699219 32.085938 86.792969 30.90625 85.824219 C 29.722656 84.855469 28.59375 83.832031 27.511719 82.753906 C 26.433594 81.671875 25.40625 80.542969 24.4375 79.363281 C 23.46875 78.183594 22.558594 76.957031 21.710938 75.6875 C 20.863281 74.417969 20.078125 73.113281 19.355469 71.765625 C 18.636719 70.417969 17.984375 69.042969 17.398438 67.628906 C 16.816406 66.21875 16.300781 64.785156 15.859375 63.324219 C 15.414062 61.863281 15.042969 60.382812 14.746094 58.886719 C 14.445312 57.390625 14.222656 55.882812 14.074219 54.363281 C 13.921875 52.84375 13.847656 51.320312 13.847656 49.792969 C 13.847656 48.265625 13.921875 46.742188 14.074219 45.226562 C 14.222656 43.707031 14.445312 42.199219 14.746094 40.699219 C 15.042969 39.203125 15.414062 37.722656 15.859375 36.261719 C 16.300781 34.800781 16.816406 33.367188 17.398438 31.957031 C 17.984375 30.546875 18.636719 29.167969 19.355469 27.820312 C 20.078125 26.476562 20.863281 25.167969 21.710938 23.898438 C 22.558594 22.628906 23.46875 21.402344 24.4375 20.222656 C 25.40625 19.042969 26.433594 17.914062 27.511719 16.835938 C 28.59375 15.753906 29.722656 14.730469 30.90625 13.761719 C 32.085938 12.792969 33.3125 11.886719 34.582031 11.039062 C 35.851562 10.191406 37.160156 9.40625 38.507812 8.6875 C 39.855469 7.964844 41.234375 7.316406 42.648438 6.730469 C 44.058594 6.144531 45.496094 5.632812 46.957031 5.191406 C 48.421875 4.746094 49.902344 4.375 51.398438 4.078125 C 52.898438 3.78125 54.40625 3.558594 55.929688 3.40625 C 57.449219 3.257812 58.972656 3.183594 60.5 3.183594 C 62.027344 3.183594 63.554688 3.257812 65.074219 3.40625 C 66.59375 3.558594 68.105469 3.78125 69.601562 4.078125 C 71.101562 4.375 72.582031 4.746094 74.042969 5.191406 C 75.503906 5.632812 76.941406 6.144531 78.355469 6.730469 C 79.765625 7.316406 81.144531 7.964844 82.492188 8.6875 C 83.839844 9.40625 85.148438 10.191406 86.417969 11.039062 C 87.691406 11.886719 88.914062 12.792969 90.097656 13.761719 C 91.277344 14.730469 92.410156 15.753906 93.488281 16.835938 C 94.570312 17.914062 95.59375 19.042969 96.5625 20.222656 C 97.53125 21.402344 98.441406 22.628906 99.292969 23.898438 C 100.140625 25.167969 100.925781 26.476562 101.644531 27.820312 C 102.363281 29.167969 103.015625 30.546875 103.601562 31.957031 C 104.1875 33.367188 104.699219 34.800781 105.144531 36.261719 C 105.589844 37.722656 105.957031 39.203125 106.257812 40.699219 C 106.554688 42.199219 106.777344 43.707031 106.929688 45.226562 C 107.078125 46.742188 107.152344 48.265625 107.152344 49.792969 Z M 107.152344 49.792969 " fill-opacity="1" fill-rule="nonzero"/><path fill="#bc8d2f" d="M 57.300781 93.503906 C 57.273438 93.503906 57.25 93.503906 57.222656 93.503906 C 56.355469 93.4375 55.90625 92.367188 55.390625 91.125 C 55.152344 90.554688 54.761719 89.613281 54.515625 89.457031 C 54.226562 89.535156 53.542969 90.359375 53.167969 90.808594 C 52.316406 91.835938 51.582031 92.722656 50.738281 92.535156 C 49.890625 92.339844 49.609375 91.214844 49.28125 89.910156 C 49.140625 89.351562 48.886719 88.324219 48.664062 88.128906 C 48.363281 88.160156 47.566406 88.875 47.128906 89.261719 C 46.132812 90.152344 45.273438 90.921875 44.464844 90.605469 C 43.65625 90.289062 43.550781 89.132812 43.421875 87.796875 C 43.371094 87.222656 43.269531 86.164062 43.078125 85.9375 C 43.074219 85.9375 43.074219 85.9375 43.070312 85.9375 C 42.765625 85.9375 41.878906 86.511719 41.398438 86.828125 C 40.277344 87.558594 39.308594 88.1875 38.558594 87.757812 C 37.808594 87.320312 37.871094 86.164062 37.945312 84.828125 C 37.976562 84.25 38.039062 83.1875 37.882812 82.9375 C 37.589844 82.882812 36.621094 83.328125 36.089844 83.566406 C 34.871094 84.121094 33.820312 84.601562 33.144531 84.0625 C 32.464844 83.519531 32.703125 82.386719 32.972656 81.078125 C 33.09375 80.511719 33.308594 79.46875 33.191406 79.195312 C 32.910156 79.097656 31.882812 79.394531 31.328125 79.550781 C 30.039062 79.921875 28.925781 80.242188 28.335938 79.605469 C 27.75 78.972656 28.148438 77.886719 28.613281 76.632812 C 28.8125 76.085938 29.183594 75.089844 29.109375 74.800781 C 28.84375 74.664062 27.789062 74.800781 27.214844 74.878906 C 25.886719 75.050781 24.734375 75.203125 24.246094 74.488281 C 23.757812 73.777344 24.316406 72.761719 24.960938 71.589844 C 25.242188 71.082031 25.753906 70.148438 25.722656 69.847656 C 25.480469 69.675781 24.417969 69.65625 23.839844 69.644531 C 22.496094 69.621094 21.339844 69.59375 20.960938 68.816406 C 20.585938 68.035156 21.289062 67.121094 22.101562 66.058594 C 22.453125 65.597656 23.105469 64.746094 23.117188 64.449219 C 22.902344 64.242188 21.859375 64.0625 21.289062 63.96875 C 19.964844 63.738281 18.820312 63.546875 18.566406 62.714844 C 18.3125 61.890625 19.140625 61.089844 20.105469 60.164062 C 20.523438 59.761719 21.292969 59.015625 21.351562 58.722656 C 21.171875 58.484375 20.167969 58.15625 19.621094 57.972656 C 18.34375 57.550781 17.238281 57.183594 17.109375 56.324219 C 16.984375 55.472656 17.925781 54.808594 19.011719 54.035156 C 19.488281 53.699219 20.367188 53.078125 20.464844 52.796875 C 20.324219 52.539062 19.417969 52.078125 18.867188 51.800781 C 17.664062 51.191406 16.628906 50.667969 16.628906 49.796875 C 16.628906 48.925781 17.667969 48.398438 18.867188 47.792969 C 19.417969 47.511719 20.324219 47.054688 20.464844 46.796875 C 20.367188 46.511719 19.488281 45.890625 19.011719 45.550781 C 17.925781 44.78125 16.984375 44.113281 17.109375 43.261719 C 17.238281 42.402344 18.34375 42.039062 19.621094 41.613281 C 20.167969 41.433594 21.171875 41.097656 21.351562 40.863281 C 21.292969 40.570312 20.523438 39.828125 20.105469 39.421875 C 19.140625 38.496094 18.3125 37.695312 18.566406 36.871094 C 18.820312 36.042969 19.964844 35.847656 21.289062 35.621094 C 21.859375 35.523438 22.902344 35.34375 23.117188 35.136719 C 23.105469 34.839844 22.457031 33.992188 22.101562 33.527344 C 21.289062 32.46875 20.589844 31.550781 20.964844 30.773438 C 21.339844 29.992188 22.5 29.96875 23.84375 29.941406 C 24.421875 29.929688 25.484375 29.910156 25.726562 29.738281 C 25.757812 29.441406 25.246094 28.507812 24.964844 27.996094 C 24.316406 26.824219 23.761719 25.8125 24.25 25.097656 C 24.738281 24.382812 25.886719 24.535156 27.214844 24.707031 C 27.789062 24.785156 28.84375 24.921875 29.113281 24.785156 C 29.1875 24.5 28.816406 23.496094 28.617188 22.953125 C 28.152344 21.699219 27.75 20.613281 28.339844 19.980469 C 28.925781 19.347656 30.039062 19.664062 31.332031 20.03125 C 31.886719 20.191406 32.914062 20.488281 33.195312 20.390625 C 33.308594 20.117188 33.09375 19.074219 32.976562 18.507812 C 32.703125 17.195312 32.46875 16.0625 33.144531 15.523438 C 33.820312 14.984375 34.875 15.460938 36.09375 16.019531 C 36.621094 16.261719 37.589844 16.703125 37.886719 16.648438 C 38.042969 16.394531 37.984375 15.332031 37.949219 14.753906 C 37.875 13.414062 37.808594 12.257812 38.558594 11.828125 C 39.308594 11.394531 40.273438 12.023438 41.398438 12.753906 C 41.882812 13.070312 42.777344 13.660156 43.078125 13.644531 C 43.269531 13.417969 43.367188 12.359375 43.421875 11.785156 C 43.550781 10.449219 43.65625 9.292969 44.464844 8.976562 C 45.269531 8.664062 46.132812 9.429688 47.128906 10.320312 C 47.566406 10.707031 48.363281 11.421875 48.660156 11.453125 C 48.882812 11.257812 49.140625 10.230469 49.28125 9.671875 C 49.605469 8.367188 49.886719 7.242188 50.738281 7.046875 C 51.574219 6.859375 52.3125 7.746094 53.164062 8.773438 C 53.535156 9.222656 54.222656 10.046875 54.507812 10.125 C 54.757812 9.964844 55.148438 9.023438 55.386719 8.457031 C 55.902344 7.214844 56.351562 6.144531 57.21875 6.078125 C 58.078125 6.015625 58.671875 7 59.359375 8.140625 C 59.664062 8.644531 60.222656 9.566406 60.496094 9.683594 C 60.769531 9.566406 61.328125 8.640625 61.632812 8.140625 C 62.320312 7 62.910156 6.015625 63.773438 6.078125 C 64.640625 6.144531 65.089844 7.214844 65.605469 8.457031 C 65.84375 9.027344 66.238281 9.964844 66.484375 10.125 C 66.769531 10.046875 67.457031 9.21875 67.828125 8.773438 C 68.679688 7.746094 69.417969 6.859375 70.257812 7.046875 C 71.105469 7.242188 71.386719 8.367188 71.710938 9.671875 C 71.851562 10.230469 72.109375 11.257812 72.332031 11.453125 C 72.628906 11.421875 73.429688 10.707031 73.863281 10.320312 C 74.859375 9.429688 75.722656 8.664062 76.527344 8.976562 C 77.335938 9.292969 77.445312 10.449219 77.570312 11.785156 C 77.625 12.359375 77.726562 13.417969 77.917969 13.644531 C 77.921875 13.644531 77.921875 13.644531 77.925781 13.644531 C 78.230469 13.644531 79.117188 13.070312 79.597656 12.753906 C 80.71875 12.023438 81.6875 11.394531 82.4375 11.828125 C 83.1875 12.261719 83.121094 13.417969 83.046875 14.753906 C 83.015625 15.332031 82.953125 16.394531 83.109375 16.644531 C 83.402344 16.699219 84.371094 16.253906 84.902344 16.015625 C 86.121094 15.460938 87.175781 14.980469 87.847656 15.519531 C 88.527344 16.058594 88.289062 17.195312 88.019531 18.503906 C 87.898438 19.070312 87.683594 20.113281 87.800781 20.386719 C 88.082031 20.484375 89.109375 20.191406 89.664062 20.03125 C 90.953125 19.660156 92.066406 19.339844 92.65625 19.976562 C 93.242188 20.609375 92.84375 21.695312 92.378906 22.949219 C 92.179688 23.496094 91.808594 24.492188 91.882812 24.78125 C 92.148438 24.917969 93.203125 24.78125 93.777344 24.703125 C 95.109375 24.53125 96.257812 24.378906 96.746094 25.09375 C 97.234375 25.804688 96.675781 26.820312 96.03125 27.992188 C 95.75 28.5 95.238281 29.433594 95.269531 29.734375 C 95.511719 29.90625 96.574219 29.925781 97.152344 29.9375 C 98.496094 29.964844 99.652344 29.988281 100.03125 30.769531 C 100.40625 31.546875 99.703125 32.460938 98.890625 33.523438 C 98.539062 33.984375 97.886719 34.835938 97.875 35.132812 C 98.089844 35.339844 99.132812 35.519531 99.703125 35.617188 C 101.027344 35.84375 102.171875 36.035156 102.425781 36.867188 C 102.679688 37.691406 101.851562 38.492188 100.886719 39.417969 C 100.46875 39.824219 99.699219 40.566406 99.640625 40.859375 C 99.820312 41.097656 100.824219 41.429688 101.371094 41.609375 C 102.648438 42.03125 103.753906 42.398438 103.882812 43.257812 C 104.011719 44.109375 103.070312 44.773438 101.980469 45.546875 C 101.503906 45.886719 100.625 46.507812 100.527344 46.789062 C 100.667969 47.046875 101.574219 47.507812 102.125 47.785156 C 103.328125 48.394531 104.363281 48.917969 104.363281 49.789062 C 104.363281 50.660156 103.324219 51.1875 102.125 51.792969 C 101.574219 52.070312 100.667969 52.53125 100.527344 52.789062 C 100.625 53.070312 101.503906 53.695312 101.980469 54.03125 C 103.070312 54.800781 104.007812 55.46875 103.882812 56.316406 C 103.753906 57.175781 102.648438 57.542969 101.371094 57.964844 C 100.824219 58.148438 99.820312 58.480469 99.640625 58.714844 C 99.699219 59.007812 100.46875 59.753906 100.886719 60.15625 C 101.851562 61.082031 102.679688 61.882812 102.425781 62.707031 C 102.171875 63.535156 101.027344 63.730469 99.703125 63.960938 C 99.132812 64.054688 98.089844 64.234375 97.875 64.441406 C 97.886719 64.742188 98.535156 65.589844 98.890625 66.050781 C 99.703125 67.113281 100.40625 68.027344 100.03125 68.808594 C 99.652344 69.589844 98.496094 69.609375 97.152344 69.636719 C 96.574219 69.648438 95.511719 69.667969 95.269531 69.84375 C 95.238281 70.140625 95.75 71.074219 96.03125 71.582031 C 96.675781 72.753906 97.234375 73.769531 96.746094 74.480469 C 96.257812 75.199219 95.105469 75.046875 93.777344 74.871094 C 93.203125 74.796875 92.148438 74.660156 91.882812 74.792969 C 91.808594 75.082031 92.179688 76.082031 92.378906 76.625 C 92.84375 77.882812 93.246094 78.964844 92.65625 79.597656 C 92.066406 80.230469 90.953125 79.914062 89.664062 79.546875 C 89.109375 79.386719 88.082031 79.089844 87.800781 79.1875 C 87.683594 79.460938 87.898438 80.503906 88.019531 81.070312 C 88.292969 82.382812 88.527344 83.515625 87.847656 84.054688 C 87.171875 84.59375 86.121094 84.113281 84.902344 83.558594 C 84.375 83.316406 83.402344 82.878906 83.109375 82.929688 C 82.953125 83.183594 83.011719 84.246094 83.046875 84.820312 C 83.121094 86.160156 83.1875 87.316406 82.433594 87.75 C 81.683594 88.179688 80.71875 87.550781 79.59375 86.820312 C 79.109375 86.507812 78.226562 85.929688 77.921875 85.929688 C 77.921875 85.929688 77.917969 85.929688 77.914062 85.929688 C 77.722656 86.15625 77.625 87.214844 77.570312 87.789062 C 77.441406 89.125 77.335938 90.28125 76.527344 90.597656 C 75.722656 90.914062 74.859375 90.144531 73.863281 89.253906 C 73.425781 88.867188 72.628906 88.15625 72.332031 88.121094 C 72.109375 88.316406 71.851562 89.34375 71.710938 89.902344 C 71.386719 91.207031 71.105469 92.332031 70.257812 92.527344 C 69.417969 92.714844 68.679688 91.828125 67.828125 90.800781 C 67.457031 90.351562 66.769531 89.527344 66.484375 89.449219 C 66.238281 89.609375 65.84375 90.550781 65.605469 91.117188 C 65.089844 92.359375 64.640625 93.429688 63.773438 93.496094 C 62.917969 93.554688 62.320312 92.574219 61.632812 91.433594 C 61.328125 90.929688 60.769531 90.007812 60.496094 89.894531 C 60.222656 90.007812 59.664062 90.933594 59.359375 91.433594 C 58.691406 92.539062 58.113281 93.5 57.296875 93.5 Z M 63.667969 92.394531 Z M 60.5 88.777344 C 61.335938 88.777344 61.917969 89.742188 62.59375 90.863281 C 62.910156 91.382812 63.425781 92.234375 63.695312 92.375 C 63.949219 92.199219 64.355469 91.226562 64.578125 90.695312 C 65.078125 89.5 65.507812 88.464844 66.320312 88.347656 C 67.144531 88.222656 67.863281 89.089844 68.699219 90.097656 C 69.058594 90.535156 69.722656 91.332031 70.015625 91.429688 C 70.238281 91.21875 70.492188 90.199219 70.632812 89.640625 C 70.949219 88.382812 71.21875 87.296875 72.003906 87.050781 C 72.800781 86.808594 73.640625 87.558594 74.613281 88.425781 C 75.039062 88.804688 75.816406 89.496094 76.121094 89.550781 C 76.308594 89.304688 76.40625 88.261719 76.460938 87.691406 C 76.582031 86.398438 76.6875 85.28125 77.429688 84.925781 C 78.175781 84.5625 79.121094 85.179688 80.214844 85.890625 C 80.695312 86.203125 81.566406 86.769531 81.875 86.777344 C 82.023438 86.507812 81.964844 85.460938 81.933594 84.886719 C 81.859375 83.59375 81.796875 82.46875 82.480469 82.007812 C 83.164062 81.539062 84.1875 82.007812 85.371094 82.546875 C 85.890625 82.785156 86.835938 83.214844 87.148438 83.179688 C 87.253906 82.890625 87.039062 81.867188 86.925781 81.304688 C 86.660156 80.035156 86.429688 78.933594 87.035156 78.371094 C 87.644531 77.804688 88.722656 78.117188 89.972656 78.476562 C 90.523438 78.632812 91.53125 78.921875 91.828125 78.835938 C 91.890625 78.535156 91.527344 77.554688 91.328125 77.019531 C 90.878906 75.796875 90.488281 74.742188 91.003906 74.097656 C 91.519531 73.453125 92.632812 73.597656 93.921875 73.769531 C 94.492188 73.84375 95.53125 73.980469 95.8125 73.851562 C 95.828125 73.542969 95.324219 72.628906 95.046875 72.128906 C 94.417969 70.988281 93.878906 70.003906 94.292969 69.285156 C 94.707031 68.574219 95.832031 68.550781 97.128906 68.527344 C 97.703125 68.515625 98.75 68.496094 99.011719 68.328125 C 98.980469 68.019531 98.347656 67.191406 98 66.738281 C 97.210938 65.707031 96.523438 64.8125 96.828125 64.039062 C 97.128906 63.273438 98.234375 63.085938 99.511719 62.863281 C 100.078125 62.769531 101.117188 62.589844 101.34375 62.382812 C 101.269531 62.085938 100.519531 61.363281 100.109375 60.96875 C 99.171875 60.0625 98.359375 59.28125 98.542969 58.472656 C 98.726562 57.667969 99.789062 57.316406 101.019531 56.910156 C 101.566406 56.726562 102.566406 56.398438 102.761719 56.15625 C 102.640625 55.875 101.792969 55.273438 101.332031 54.945312 C 100.265625 54.1875 99.34375 53.535156 99.40625 52.707031 C 99.464844 51.886719 100.460938 51.382812 101.617188 50.800781 C 102.136719 50.539062 103.082031 50.058594 103.234375 49.792969 C 103.082031 49.523438 102.136719 49.046875 101.617188 48.78125 C 100.464844 48.199219 99.464844 47.691406 99.40625 46.875 C 99.34375 46.046875 100.265625 45.394531 101.332031 44.636719 C 101.828125 44.285156 102.644531 43.707031 102.761719 43.425781 C 102.566406 43.1875 101.566406 42.855469 101.019531 42.671875 C 99.785156 42.265625 98.726562 41.914062 98.542969 41.109375 C 98.359375 40.300781 99.167969 39.519531 100.109375 38.613281 C 100.519531 38.21875 101.269531 37.496094 101.34375 37.199219 C 101.117188 36.992188 100.078125 36.816406 99.511719 36.71875 C 98.234375 36.5 97.128906 36.308594 96.828125 35.542969 C 96.523438 34.773438 97.207031 33.875 98 32.84375 C 98.347656 32.390625 98.980469 31.5625 99.011719 31.257812 C 98.75 31.085938 97.703125 31.066406 97.128906 31.054688 C 95.832031 31.03125 94.707031 31.007812 94.292969 30.296875 C 93.878906 29.582031 94.421875 28.59375 95.046875 27.453125 C 95.324219 26.953125 95.828125 26.039062 95.8125 25.730469 C 95.53125 25.601562 94.492188 25.738281 93.921875 25.8125 C 92.632812 25.984375 91.519531 26.128906 91.003906 25.484375 C 90.488281 24.839844 90.878906 23.785156 91.328125 22.5625 C 91.527344 22.027344 91.890625 21.046875 91.828125 20.746094 C 91.53125 20.660156 90.527344 20.949219 89.972656 21.105469 C 88.722656 21.464844 87.640625 21.773438 87.035156 21.210938 C 86.429688 20.648438 86.660156 19.550781 86.925781 18.277344 C 87.039062 17.714844 87.253906 16.695312 87.148438 16.402344 C 86.839844 16.363281 85.890625 16.796875 85.371094 17.035156 C 84.183594 17.574219 83.164062 18.042969 82.480469 17.574219 C 81.796875 17.109375 81.859375 15.988281 81.933594 14.695312 C 81.964844 14.121094 82.023438 13.078125 81.875 12.804688 C 81.566406 12.8125 80.691406 13.382812 80.214844 13.691406 C 79.121094 14.402344 78.179688 15.019531 77.429688 14.65625 C 76.6875 14.300781 76.585938 13.183594 76.460938 11.890625 C 76.40625 11.320312 76.308594 10.277344 76.121094 10.03125 C 75.816406 10.082031 75.039062 10.773438 74.613281 11.152344 C 73.640625 12.023438 72.800781 12.773438 72.003906 12.527344 C 71.21875 12.285156 70.949219 11.199219 70.632812 9.941406 C 70.492188 9.382812 70.238281 8.363281 70.015625 8.148438 C 69.722656 8.246094 69.058594 9.046875 68.699219 9.484375 C 67.863281 10.488281 67.140625 11.355469 66.320312 11.234375 C 65.507812 11.113281 65.078125 10.082031 64.578125 8.886719 C 64.355469 8.355469 63.953125 7.382812 63.695312 7.203125 C 63.425781 7.34375 62.910156 8.195312 62.59375 8.71875 C 61.917969 9.835938 61.332031 10.804688 60.5 10.804688 C 59.667969 10.804688 59.082031 9.835938 58.40625 8.71875 C 58.09375 8.195312 57.578125 7.34375 57.304688 7.203125 C 57.050781 7.378906 56.644531 8.351562 56.421875 8.886719 C 55.925781 10.082031 55.492188 11.113281 54.679688 11.234375 C 53.859375 11.355469 53.140625 10.488281 52.304688 9.484375 C 51.941406 9.046875 51.277344 8.246094 50.988281 8.148438 C 50.761719 8.363281 50.507812 9.382812 50.367188 9.941406 C 50.054688 11.199219 49.78125 12.285156 48.996094 12.527344 C 48.203125 12.773438 47.363281 12.023438 46.386719 11.152344 C 45.960938 10.773438 45.183594 10.082031 44.882812 10.03125 C 44.695312 10.273438 44.59375 11.320312 44.542969 11.890625 C 44.421875 13.179688 44.3125 14.296875 43.570312 14.65625 C 42.824219 15.015625 41.882812 14.402344 40.789062 13.691406 C 40.3125 13.378906 39.4375 12.808594 39.128906 12.804688 C 38.980469 13.074219 39.039062 14.117188 39.070312 14.691406 C 39.144531 15.988281 39.207031 17.109375 38.523438 17.574219 C 37.839844 18.039062 36.820312 17.574219 35.632812 17.03125 C 35.113281 16.796875 34.164062 16.363281 33.855469 16.402344 C 33.75 16.691406 33.964844 17.714844 34.078125 18.273438 C 34.34375 19.546875 34.574219 20.648438 33.96875 21.210938 C 33.359375 21.773438 32.28125 21.460938 31.03125 21.105469 C 30.480469 20.945312 29.472656 20.65625 29.175781 20.742188 C 29.113281 21.046875 29.476562 22.023438 29.675781 22.5625 C 30.125 23.78125 30.515625 24.835938 30 25.480469 C 29.484375 26.128906 28.371094 25.980469 27.082031 25.8125 C 26.511719 25.734375 25.472656 25.601562 25.195312 25.730469 C 25.175781 26.035156 25.679688 26.949219 25.957031 27.449219 C 26.582031 28.589844 27.128906 29.574219 26.710938 30.292969 C 26.296875 31.007812 25.175781 31.027344 23.875 31.054688 C 23.300781 31.0625 22.253906 31.085938 21.996094 31.253906 C 22.023438 31.5625 22.65625 32.386719 23.003906 32.839844 C 23.792969 33.875 24.480469 34.769531 24.175781 35.539062 C 23.875 36.308594 22.769531 36.496094 21.492188 36.714844 C 20.925781 36.8125 19.890625 36.988281 19.660156 37.195312 C 19.738281 37.492188 20.484375 38.21875 20.894531 38.609375 C 21.832031 39.515625 22.644531 40.296875 22.460938 41.109375 C 22.28125 41.910156 21.214844 42.261719 19.984375 42.671875 C 19.4375 42.851562 18.4375 43.183594 18.242188 43.421875 C 18.363281 43.703125 19.175781 44.285156 19.671875 44.632812 C 20.742188 45.390625 21.660156 46.042969 21.601562 46.871094 C 21.539062 47.691406 20.542969 48.195312 19.386719 48.78125 C 18.867188 49.042969 17.921875 49.519531 17.769531 49.789062 C 17.921875 50.054688 18.867188 50.535156 19.386719 50.796875 C 20.539062 51.382812 21.539062 51.886719 21.601562 52.703125 C 21.660156 53.535156 20.742188 54.1875 19.671875 54.945312 C 19.175781 55.292969 18.363281 55.875 18.242188 56.15625 C 18.4375 56.394531 19.4375 56.726562 19.984375 56.90625 C 21.21875 57.316406 22.28125 57.664062 22.460938 58.46875 C 22.644531 59.277344 21.835938 60.058594 20.894531 60.964844 C 20.484375 61.359375 19.734375 62.082031 19.660156 62.378906 C 19.890625 62.589844 20.925781 62.765625 21.492188 62.863281 C 22.769531 63.078125 23.878906 63.269531 24.175781 64.035156 C 24.480469 64.808594 23.796875 65.703125 23.003906 66.738281 C 22.65625 67.191406 22.023438 68.015625 21.996094 68.324219 C 22.253906 68.492188 23.300781 68.511719 23.875 68.523438 C 25.175781 68.546875 26.296875 68.570312 26.710938 69.285156 C 27.125 70 26.582031 70.984375 25.957031 72.128906 C 25.679688 72.628906 25.175781 73.542969 25.195312 73.847656 C 25.472656 73.976562 26.511719 73.839844 27.082031 73.765625 C 28.371094 73.597656 29.484375 73.449219 30 74.09375 C 30.515625 74.742188 30.125 75.792969 29.675781 77.015625 C 29.476562 77.550781 29.113281 78.53125 29.175781 78.835938 C 29.472656 78.917969 30.480469 78.632812 31.03125 78.472656 C 32.28125 78.117188 33.363281 77.804688 33.96875 78.367188 C 34.574219 78.929688 34.347656 80.027344 34.078125 81.300781 C 33.964844 81.863281 33.75 82.886719 33.855469 83.175781 C 34.164062 83.210938 35.113281 82.78125 35.632812 82.546875 C 36.820312 82.007812 37.84375 81.539062 38.523438 82.003906 C 39.207031 82.46875 39.144531 83.589844 39.070312 84.886719 C 39.039062 85.457031 38.984375 86.503906 39.128906 86.773438 C 39.4375 86.765625 40.3125 86.199219 40.789062 85.886719 C 41.882812 85.175781 42.824219 84.5625 43.570312 84.921875 C 44.3125 85.28125 44.421875 86.398438 44.542969 87.6875 C 44.59375 88.257812 44.695312 89.304688 44.882812 89.546875 C 45.183594 89.496094 45.964844 88.804688 46.386719 88.421875 C 47.359375 87.554688 48.203125 86.804688 48.996094 87.050781 C 49.78125 87.292969 50.054688 88.378906 50.367188 89.636719 C 50.507812 90.195312 50.761719 91.214844 50.988281 91.429688 C 51.277344 91.328125 51.941406 90.53125 52.304688 90.09375 C 53.136719 89.089844 53.859375 88.21875 54.679688 88.34375 C 55.492188 88.464844 55.925781 89.496094 56.421875 90.691406 C 56.644531 91.222656 57.050781 92.195312 57.304688 92.371094 C 57.578125 92.230469 58.09375 91.378906 58.40625 90.859375 C 59.082031 89.738281 59.667969 88.769531 60.5 88.769531 Z M 60.519531 89.894531 Z M 60.480469 89.894531 Z M 44.90625 89.578125 Z M 54.492188 89.445312 Z M 81.855469 86.808594 Z M 39.148438 86.808594 Z M 81.90625 86.777344 Z M 43.066406 85.921875 Z M 87.183594 83.171875 Z M 33.816406 83.171875 Z M 83.089844 82.941406 Z M 37.910156 82.941406 Z M 33.1875 79.171875 Z M 91.863281 78.824219 Z M 29.136719 78.824219 Z M 91.867188 74.8125 Z M 91.894531 74.777344 Z M 29.105469 74.777344 Z M 95.8125 73.886719 Z M 25.191406 73.886719 Z M 95.84375 73.835938 Z M 25.746094 69.863281 Z M 95.277344 69.824219 Z M 25.726562 69.824219 Z M 99.042969 68.304688 Z M 21.960938 68.304688 Z M 97.878906 64.425781 Z M 99.632812 58.742188 Z M 21.371094 58.742188 Z M 21.359375 58.699219 Z M 102.777344 56.195312 Z M 100.523438 52.816406 Z M 20.480469 52.816406 Z M 100.527344 52.773438 Z M 103.253906 49.824219 Z M 17.746094 49.824219 Z M 103.253906 49.765625 Z M 17.746094 49.765625 Z M 100.527344 46.816406 Z M 20.480469 46.769531 Z M 100.523438 46.769531 Z M 102.785156 43.457031 Z M 99.632812 40.84375 Z M 99.015625 31.226562 Z M 21.988281 31.226562 Z M 95.253906 29.722656 Z M 95.847656 25.753906 Z M 25.15625 25.753906 Z M 95.8125 25.703125 Z M 25.191406 25.703125 Z M 91.894531 24.808594 Z M 91.863281 20.761719 Z M 29.136719 20.761719 Z M 29.179688 20.714844 Z M 33.21875 20.382812 Z M 83.128906 16.671875 Z M 37.875 16.671875 Z M 87.183594 16.414062 Z M 33.816406 16.414062 Z M 33.867188 16.375 Z M 77.9375 13.667969 Z M 43.066406 13.667969 Z M 81.910156 12.808594 Z M 48.644531 11.472656 Z M 54.492188 10.140625 Z M 44.90625 10.011719 Z M 60.519531 9.695312 Z M 60.480469 9.695312 Z M 69.988281 8.132812 Z M 69.988281 8.132812 " fill-opacity="1" fill-rule="nonzero"/><path fill="#bc8d2f" d="M 97.46875 49.792969 C 97.46875 51.003906 97.410156 52.210938 97.289062 53.414062 C 97.171875 54.617188 96.996094 55.8125 96.757812 57 C 96.523438 58.183594 96.226562 59.359375 95.875 60.515625 C 95.527344 61.671875 95.117188 62.808594 94.65625 63.929688 C 94.191406 65.046875 93.675781 66.136719 93.105469 67.203125 C 92.53125 68.269531 91.910156 69.308594 91.238281 70.3125 C 90.566406 71.320312 89.84375 72.289062 89.078125 73.226562 C 88.308594 74.160156 87.496094 75.054688 86.640625 75.910156 C 85.785156 76.765625 84.890625 77.578125 83.953125 78.34375 C 83.015625 79.113281 82.046875 79.832031 81.039062 80.503906 C 80.03125 81.175781 78.996094 81.796875 77.925781 82.367188 C 76.859375 82.9375 75.765625 83.453125 74.648438 83.917969 C 73.53125 84.378906 72.390625 84.785156 71.230469 85.136719 C 70.074219 85.488281 68.902344 85.78125 67.714844 86.019531 C 66.527344 86.253906 65.328125 86.433594 64.125 86.550781 C 62.917969 86.667969 61.710938 86.726562 60.5 86.726562 C 59.289062 86.726562 58.082031 86.667969 56.878906 86.550781 C 55.671875 86.433594 54.476562 86.253906 53.289062 86.019531 C 52.101562 85.78125 50.929688 85.488281 49.769531 85.136719 C 48.609375 84.785156 47.472656 84.378906 46.355469 83.917969 C 45.234375 83.453125 44.140625 82.9375 43.074219 82.367188 C 42.007812 81.796875 40.96875 81.175781 39.960938 80.503906 C 38.957031 79.832031 37.984375 79.113281 37.050781 78.34375 C 36.113281 77.578125 35.21875 76.765625 34.359375 75.910156 C 33.503906 75.054688 32.691406 74.160156 31.925781 73.226562 C 31.15625 72.289062 30.4375 71.320312 29.761719 70.3125 C 29.089844 69.308594 28.46875 68.269531 27.898438 67.203125 C 27.328125 66.136719 26.8125 65.046875 26.347656 63.929688 C 25.882812 62.808594 25.476562 61.671875 25.125 60.515625 C 24.773438 59.359375 24.480469 58.183594 24.242188 57 C 24.007812 55.8125 23.828125 54.617188 23.710938 53.414062 C 23.59375 52.210938 23.535156 51.003906 23.535156 49.792969 C 23.535156 48.582031 23.59375 47.378906 23.710938 46.171875 C 23.828125 44.96875 24.007812 43.773438 24.242188 42.589844 C 24.480469 41.402344 24.773438 40.230469 25.125 39.070312 C 25.476562 37.914062 25.882812 36.777344 26.347656 35.660156 C 26.8125 34.542969 27.328125 33.449219 27.898438 32.382812 C 28.46875 31.316406 29.089844 30.28125 29.761719 29.273438 C 30.4375 28.269531 31.15625 27.296875 31.925781 26.363281 C 32.691406 25.425781 33.503906 24.53125 34.359375 23.675781 C 35.21875 22.820312 36.113281 22.011719 37.050781 21.242188 C 37.984375 20.476562 38.957031 19.753906 39.960938 19.082031 C 40.96875 18.410156 42.007812 17.789062 43.074219 17.21875 C 44.140625 16.648438 45.234375 16.132812 46.355469 15.671875 C 47.472656 15.207031 48.609375 14.800781 49.769531 14.449219 C 50.929688 14.097656 52.101562 13.804688 53.289062 13.570312 C 54.476562 13.332031 55.671875 13.15625 56.878906 13.035156 C 58.082031 12.917969 59.289062 12.859375 60.5 12.859375 C 61.710938 12.859375 62.917969 12.917969 64.125 13.035156 C 65.328125 13.15625 66.527344 13.332031 67.714844 13.570312 C 68.902344 13.804688 70.074219 14.097656 71.230469 14.449219 C 72.390625 14.800781 73.53125 15.207031 74.648438 15.671875 C 75.765625 16.132812 76.859375 16.648438 77.925781 17.21875 C 78.996094 17.789062 80.03125 18.410156 81.039062 19.082031 C 82.046875 19.753906 83.015625 20.476562 83.953125 21.242188 C 84.890625 22.011719 85.785156 22.820312 86.640625 23.675781 C 87.496094 24.53125 88.308594 25.425781 89.078125 26.363281 C 89.84375 27.296875 90.566406 28.269531 91.238281 29.273438 C 91.910156 30.28125 92.53125 31.316406 93.105469 32.382812 C 93.675781 33.449219 94.191406 34.542969 94.65625 35.660156 C 95.117188 36.777344 95.527344 37.914062 95.875 39.070312 C 96.226562 40.230469 96.523438 41.402344 96.757812 42.589844 C 96.996094 43.773438 97.171875 44.96875 97.289062 46.171875 C 97.410156 47.378906 97.46875 48.582031 97.46875 49.792969 Z M 97.46875 49.792969 " fill-opacity="1" fill-rule="nonzero"/><path fill="#ffffff" d="M 49.28125 39.375 L 49.28125 25.613281 L 71.726562 25.613281 L 71.726562 73.972656 L 56.296875 73.972656 L 56.296875 39.375 Z M 49.28125 39.375 " fill-opacity="1" fill-rule="nonzero"/></svg>