<svg xmlns="http://www.w3.org/2000/svg" viewBox="0 0 161.33 157.35" xmlns:v="https://vecta.io/nano"><defs><clipPath id="A"><path d="M54.67 55.39h58.67v32H54.67z" fill="none"/></clipPath><clipPath id="B"><path d="M38.67 35.39h122.67v121.97H38.67z" fill="none"/></clipPath><clipPath id="C"><path d="M0 35.39h122.67v121.97H0z" fill="none"/></clipPath><clipPath id="D"><path d="M16 0h129.33v130.05H16z" fill="none"/></clipPath></defs><g clip-path="url(#A)"><path d="M57.05 67.58v-7.75h1.65v7.75zm8.92 0h-1.6v-3.46c0-.43-.08-.75-.23-.96-.16-.22-.4-.33-.73-.33-.46 0-.79.16-1 .46-.2.31-.29.81-.29 1.5v2.79h-1.6v-5.92h1.23l.21.75h.1a1.64 1.64 0 0 1 .73-.65c.32-.15.68-.23 1.08-.23.69 0 1.21.19 1.56.56.36.38.54.92.54 1.63v3.85zm5.8-1.75c0 .6-.22 1.06-.65 1.38-.42.32-1.04.48-1.88.48a6.8 6.8 0 0 1-1.1-.08 3.66 3.66 0 0 1-.85-.25v-1.35c.3.16.65.28 1.02.38.38.08.7.13.98.13.59 0 .9-.17.9-.5 0-.13-.04-.23-.13-.31a1.91 1.91 0 0 0-.42-.27l-.75-.35c-.46-.19-.8-.36-1.02-.52-.21-.17-.36-.35-.46-.56s-.15-.46-.15-.77q0-.795.6-1.23c.42-.29 1-.44 1.75-.44.71 0 1.4.16 2.08.48l-.48 1.17a5.6 5.6 0 0 0-.85-.31 2.54 2.54 0 0 0-.77-.13c-.49 0-.73.13-.73.38 0 .16.07.29.23.4.17.1.51.25 1.02.46.46.18.79.35 1 .52.22.17.38.35.48.56.11.21.17.47.17.77zm3.7-3.14c-.33 0-.6.11-.79.33-.2.22-.31.53-.33.92h2.27c-.02-.39-.13-.69-.33-.92q-.3-.33-.81-.33zm.23 5c-.95 0-1.69-.26-2.23-.79s-.81-1.27-.81-2.23.25-1.77.75-2.31 1.19-.81 2.06-.81 1.48.24 1.94.73c.47.47.71 1.13.71 1.96v.79h-3.81c.01.46.15.82.4 1.08.26.25.63.38 1.08.38a4.52 4.52 0 0 0 1-.1c.32-.07.65-.19 1-.35v1.25c-.28.14-.58.24-.9.31s-.72.1-1.19.1zm7.04-6.15a2.23 2.23 0 0 1 .56.06l-.13 1.5c-.14-.03-.3-.04-.48-.04-.52 0-.92.14-1.21.4-.29.27-.44.64-.44 1.1v3.02h-1.6v-5.92h1.21l.25.98h.08c.18-.33.42-.59.73-.79a1.82 1.82 0 0 1 1.02-.31zm1.55-1.42c0-.53.3-.79.9-.79s.88.27.88.79c0 .25-.08.45-.23.58-.14.14-.35.21-.65.21-.6 0-.9-.26-.9-.79m1.69 7.46h-1.6v-5.92h1.6zm5-6.04a2.23 2.23 0 0 1 .56.06l-.13 1.5c-.14-.03-.3-.04-.48-.04-.52 0-.92.14-1.21.4-.29.27-.44.64-.44 1.1v3.02h-1.6v-5.92h1.21l.25.98h.08c.18-.33.42-.59.73-.79a1.82 1.82 0 0 1 1.02-.31zm8.64 6.04l-.21-.75h-.08c-.18.27-.43.47-.75.63-.32.15-.68.23-1.08.23-.7 0-1.22-.19-1.58-.56-.35-.38-.52-.91-.52-1.6v-3.85h1.63v3.46c0 .42.07.74.23.96.15.21.4.31.73.31.44 0 .76-.15.96-.44.21-.3.31-.81.31-1.52v-2.77h1.63v5.92h-1.25zm8.23 0h-1.6v-3.46c0-.43-.08-.75-.23-.96-.14-.22-.36-.33-.67-.33-.42 0-.72.16-.92.46q-.27.465-.27 1.5v2.79h-1.6v-5.92h1.23l.21.75h.1c.15-.28.38-.49.67-.65.3-.15.65-.23 1.04-.23.89 0 1.49.29 1.81.88h.15c.15-.28.38-.49.69-.65.32-.15.67-.23 1.06-.23.67 0 1.17.18 1.52.52.34.35.52.91.52 1.67v3.85h-1.63v-3.46c0-.43-.08-.75-.23-.96-.14-.22-.36-.33-.67-.33-.39 0-.69.15-.9.44-.2.28-.29.72-.29 1.33v2.98zM72.62 81.51c.28 0 .61-.06 1-.19v1.21c-.41.18-.9.27-1.48.27-.64 0-1.11-.16-1.42-.48-.29-.33-.44-.82-.44-1.48v-2.85h-.77v-.69l.9-.54.46-1.25h1.04v1.27h1.65v1.21h-1.65v2.85c0 .22.06.39.19.5s.3.17.52.17m3.82 1.19h-1.6v-5.92h1.6zm-1.71-6.58v-.15c.61-.69 1.03-1.22 1.25-1.58h1.81v.1c-.18.18-.49.46-.94.83l-1.04.79h-1.08zm5.91 5.39c.28 0 .61-.06 1-.19v1.21c-.41.18-.9.27-1.48.27-.64 0-1.11-.16-1.42-.48-.29-.33-.44-.82-.44-1.48v-2.85h-.77v-.69l.9-.54.46-1.25h1.04v1.27h1.65v1.21h-1.65v2.85c0 .22.06.39.19.5s.3.17.52.17m6.4 1.19l-.21-.75h-.08c-.18.27-.43.47-.75.63-.32.15-.68.23-1.08.23-.7 0-1.22-.19-1.58-.56-.35-.38-.52-.91-.52-1.6V76.8h1.63v3.46c0 .42.07.74.23.96.15.21.4.31.73.31.44 0 .76-.15.96-.44.21-.3.31-.81.31-1.52V76.8h1.63v5.92h-1.25zm4.55 0h-1.6v-8.25h1.6zm3-2.98q0 .9.27 1.35c.19.29.51.44.96.44s.73-.15.92-.44c.19-.3.29-.76.29-1.35s-.1-1.02-.29-1.31c-.2-.29-.51-.44-.94-.44s-.74.15-.94.44c-.18.29-.27.73-.27 1.31m4.08 0c0 .97-.26 1.73-.77 2.27q-.75.81-2.1.81c-.57 0-1.08-.13-1.52-.38a2.5 2.5 0 0 1-1-1.06c-.24-.47-.35-1.02-.35-1.65q0-1.44.75-2.25c.51-.54 1.23-.81 2.15-.81.57 0 1.07.13 1.5.38a2.38 2.38 0 0 1 1 1.08c.23.46.35.99.35 1.6z"/></g><g fill="#be1e2d"><path d="M131.63 157.43 39.75 65.56l29.68-29.68 91.88 91.88-19.39 9.57-10.29 20.11Z" clip-path="url(#B)"/><path d="m29.71 157.43 91.88-91.88-29.68-29.68L.03 127.75l19.39 9.57z" clip-path="url(#C)"/></g><path d="M145.18 64.51l-.31 6.32-.93 6.26a64.83 64.83 0 0 1-1.54 6.14l-2.13 5.96-2.71 5.72-3.26 5.43a62 62 0 0 1-3.77 5.08 63.06 63.06 0 0 1-4.25 4.69 64.808 64.808 0 0 1-9.77 8.02 68 68 0 0 1-5.43 3.26l-5.72 2.7-5.96 2.14-6.14 1.54q-3.105.615-6.27.93a63.52 63.52 0 0 1-6.32.31 63.52 63.52 0 0 1-6.32-.31c-2.1-.2-4.19-.52-6.26-.93a61.92 61.92 0 0 1-6.14-1.54l-5.96-2.14-5.72-2.7a65 65 0 0 1-10.51-7.03 63.06 63.06 0 0 1-4.69-4.25 65 65 0 0 1-4.25-4.69 69 69 0 0 1-3.77-5.08 68 68 0 0 1-3.26-5.43l-2.7-5.72-2.14-5.96a61.92 61.92 0 0 1-1.54-6.14l-.93-6.26-.31-6.32.31-6.32q.315-3.15.93-6.27c.41-2.07.92-4.11 1.54-6.14.61-2.02 1.32-4.01 2.14-5.96l2.7-5.72 3.26-5.43 3.77-5.09 4.25-4.69 4.69-4.25 5.08-3.77a65 65 0 0 1 5.43-3.26l5.72-2.71c1.95-.81 3.94-1.52 5.96-2.13l6.14-1.54L74.35.3l6.32-.3 6.32.31q3.15.315 6.27.93l6.14 1.54c2.02.61 4.01 1.32 5.96 2.13l5.72 2.71c1.86.99 3.67 2.08 5.43 3.26a62 62 0 0 1 5.08 3.77 63.06 63.06 0 0 1 4.69 4.25l4.25 4.69 3.77 5.09a65 65 0 0 1 3.26 5.43l2.71 5.72c.81 1.95 1.52 3.94 2.13 5.96l1.54 6.14q.615 3.105.93 6.27a63.52 63.52 0 0 1 .31 6.32z" fill="#737373" clip-path="url(#D)"/><path d="M142.85 64.51a61.8 61.8 0 0 1-1.2 12.13l-1.48 5.92c-.59 1.95-1.28 3.86-2.06 5.74a62 62 0 0 1-9.39 15.65c-1.29 1.58-2.66 3.08-4.1 4.52l-4.52 4.1-4.9 3.64-5.23 3.14q-2.7 1.44-5.52 2.61l-5.74 2.06-5.92 1.48a64.17 64.17 0 0 1-6.04.9 62 62 0 0 1-12.18 0l-6.04-.9-5.92-1.48c-1.95-.59-3.86-1.28-5.74-2.06a62 62 0 0 1-10.75-5.75 60 60 0 0 1-4.9-3.64 61 61 0 0 1-4.52-4.1 61 61 0 0 1-4.1-4.52 62 62 0 0 1-6.78-10.13q-1.44-2.685-2.61-5.52a65 65 0 0 1-2.06-5.74l-1.48-5.92-.9-6.04a62 62 0 0 1 0-12.18c.2-2.03.5-4.04.9-6.04l1.48-5.92c.59-1.95 1.28-3.86 2.06-5.74q1.17-2.82 2.61-5.52c.96-1.8 2.01-3.54 3.14-5.23l3.64-4.9 4.1-4.52 4.52-4.1 4.9-3.64 5.23-3.14q2.685-1.44 5.52-2.61L62.61 5l5.92-1.48 6.04-.9a62 62 0 0 1 12.18 0l6.04.9L98.71 5c1.95.59 3.86 1.28 5.74 2.06q2.82 1.17 5.52 2.61a62.137 62.137 0 0 1 10.13 6.78 62.591 62.591 0 0 1 8.62 8.62l3.64 4.9a61.805 61.805 0 0 1 5.75 10.75l2.06 5.74 1.48 5.92a62.076 62.076 0 0 1 1.2 12.13" fill="#a6a6a6"/><path d="M76.41 122.82h-.1c-1.16-.09-1.76-1.52-2.45-3.17-.31-.76-.84-2.02-1.17-2.22-.39.1-1.3 1.2-1.79 1.8-1.14 1.37-2.11 2.55-3.24 2.3-1.13-.26-1.51-1.76-1.94-3.5-.19-.74-.53-2.12-.82-2.38-.4.05-1.46 1-2.04 1.52-1.33 1.19-2.48 2.21-3.55 1.79-1.08-.42-1.22-1.96-1.39-3.74-.07-.77-.21-2.18-.46-2.48h-.01c-.41 0-1.59.77-2.23 1.19-1.49.97-2.79 1.82-3.79 1.24s-.92-2.13-.81-3.91c.04-.77.12-2.19-.08-2.52-.39-.07-1.69.52-2.39.84-1.63.74-3.03 1.38-3.93.66s-.58-2.23-.22-3.98c.16-.75.45-2.14.29-2.51-.38-.13-1.74.27-2.48.48-1.71.49-3.2.92-3.98.07-.79-.84-.26-2.29.36-3.96.27-.73.76-2.06.66-2.44-.35-.18-1.76 0-2.53.1-1.77.23-3.3.43-3.95-.52s.09-2.3.95-3.87c.37-.68 1.06-1.92 1.02-2.32-.32-.23-1.74-.26-2.51-.28-1.79-.03-3.33-.06-3.84-1.1-.5-1.04.44-2.27 1.52-3.68.47-.62 1.34-1.75 1.35-2.15-.29-.28-1.68-.52-2.44-.65-1.77-.3-3.29-.56-3.63-1.67-.34-1.1.77-2.17 2.05-3.4.56-.54 1.58-1.53 1.66-1.92-.24-.32-1.58-.76-2.31-1-1.7-.57-3.17-1.05-3.34-2.2-.17-1.14 1.08-2.02 2.53-3.05.64-.45 1.81-1.28 1.94-1.66-.19-.34-1.4-.96-2.13-1.33-1.6-.81-2.98-1.52-2.98-2.68s1.38-1.86 2.98-2.67c.73-.37 1.94-.98 2.13-1.33-.13-.38-1.3-1.21-1.94-1.66-1.45-1.03-2.7-1.92-2.53-3.06.17-1.15 1.64-1.64 3.34-2.2.73-.24 2.07-.69 2.31-1-.08-.39-1.1-1.39-1.66-1.92-1.29-1.24-2.39-2.3-2.05-3.41.34-1.1 1.86-1.36 3.63-1.67.76-.13 2.15-.37 2.44-.65-.02-.4-.88-1.53-1.35-2.15-1.08-1.42-2.02-2.64-1.52-3.68s2.05-1.07 3.84-1.1c.77-.02 2.18-.05 2.51-.28.04-.4-.64-1.64-1.02-2.32-.86-1.56-1.6-2.92-.95-3.87s2.18-.75 3.95-.52c.77.1 2.17.28 2.53.1.1-.39-.4-1.72-.66-2.45-.62-1.67-1.16-3.12-.37-3.97.79-.84 2.27-.42 3.99.07.74.21 2.11.61 2.48.48.16-.36-.13-1.76-.29-2.52-.36-1.74-.68-3.26.22-3.98s2.3-.08 3.93.66c.7.32 2 .91 2.39.84.21-.34.13-1.76.08-2.53-.1-1.79-.19-3.33.81-3.91s2.29.27 3.79 1.24c.65.42 1.84 1.21 2.24 1.19.25-.3.39-1.71.46-2.48.17-1.79.31-3.32 1.39-3.74 1.07-.42 2.22.6 3.55 1.79.58.52 1.65 1.46 2.04 1.51.3-.26.64-1.63.83-2.38.43-1.74.81-3.24 1.94-3.5 1.11-.26 2.1.93 3.23 2.3.49.6 1.41 1.7 1.79 1.8.33-.21.85-1.46 1.17-2.22.69-1.66 1.29-3.09 2.45-3.18 1.14-.08 1.93 1.23 2.85 2.76.4.67 1.15 1.9 1.51 2.05.36-.16 1.11-1.39 1.51-2.05.92-1.53 1.71-2.84 2.86-2.76 1.16.09 1.75 1.52 2.44 3.18.32.76.84 2.01 1.17 2.22.39-.1 1.3-1.2 1.79-1.8 1.14-1.37 2.12-2.55 3.24-2.3 1.13.26 1.51 1.76 1.94 3.5.19.74.53 2.11.83 2.38.4-.05 1.46-.99 2.04-1.51 1.33-1.19 2.47-2.21 3.55-1.79s1.22 1.96 1.39 3.74c.07.77.2 2.18.46 2.48h.01c.41 0 1.59-.77 2.23-1.19 1.49-.97 2.79-1.82 3.78-1.24 1 .58.92 2.13.81 3.91-.04.77-.12 2.19.08 2.53.39.07 1.69-.52 2.39-.84 1.63-.74 3.03-1.39 3.93-.66.9.72.58 2.23.22 3.98-.16.76-.44 2.15-.29 2.51.38.13 1.74-.27 2.48-.48 1.72-.49 3.2-.92 3.99-.07.78.84.25 2.29-.37 3.97-.27.72-.76 2.06-.66 2.44.35.18 1.76 0 2.53-.1 1.77-.23 3.3-.44 3.95.52s-.09 2.3-.95 3.87c-.37.68-1.06 1.92-1.02 2.32.32.23 1.74.26 2.51.27 1.79.04 3.33.07 3.84 1.11.5 1.04-.44 2.26-1.52 3.68-.47.61-1.34 1.74-1.35 2.14.29.28 1.68.52 2.44.65 1.77.31 3.29.56 3.63 1.67.34 1.1-.77 2.17-2.05 3.4-.56.54-1.58 1.54-1.66 1.93.24.31 1.58.76 2.31.99 1.7.57 3.17 1.05 3.34 2.2.17 1.14-1.08 2.02-2.53 3.05-.64.45-1.81 1.28-1.94 1.66.19.34 1.4.96 2.13 1.33 1.6.81 2.98 1.52 2.98 2.67s-1.39 1.86-2.98 2.68c-.73.37-1.94.98-2.13 1.33.13.38 1.3 1.21 1.94 1.66 1.45 1.03 2.7 1.92 2.53 3.05-.17 1.15-1.64 1.63-3.34 2.2-.73.24-2.07.69-2.31 1 .08.39 1.1 1.38 1.66 1.92 1.29 1.23 2.39 2.3 2.05 3.4-.34 1.11-1.86 1.37-3.63 1.67-.76.13-2.15.37-2.44.65.02.4.88 1.53 1.35 2.15 1.08 1.42 2.02 2.64 1.52 3.68-.51 1.04-2.05 1.07-3.84 1.1-.77.02-2.19.04-2.51.28-.04.4.65 1.64 1.02 2.32.86 1.56 1.6 2.91.95 3.86s-2.18.75-3.95.52c-.77-.1-2.17-.29-2.53-.1-.1.39.4 1.72.66 2.44.62 1.68 1.16 3.12.37 3.96-.79.85-2.27.43-3.99-.07-.74-.21-2.1-.61-2.48-.48-.15.36.14 1.76.29 2.52.36 1.74.68 3.26-.22 3.98-.91.72-2.31.08-3.93-.66-.7-.32-2-.91-2.39-.84-.2.34-.13 1.76-.08 2.52.1 1.79.19 3.33-.81 3.91s-2.29-.27-3.79-1.24c-.65-.42-1.82-1.19-2.23-1.19-.26.31-.39 1.71-.46 2.48-.17 1.78-.31 3.32-1.39 3.74-1.07.42-2.22-.6-3.55-1.79-.58-.52-1.65-1.47-2.04-1.52-.3.27-.64 1.64-.83 2.38-.43 1.74-.81 3.24-1.94 3.5-1.12.25-2.1-.93-3.24-2.3-.49-.6-1.41-1.7-1.79-1.8-.33.21-.85 1.47-1.17 2.22-.69 1.66-1.29 3.08-2.44 3.17-1.14.08-1.94-1.23-2.86-2.75-.4-.67-1.15-1.91-1.51-2.06-.36.16-1.11 1.39-1.51 2.06-.89 1.47-1.66 2.76-2.76 2.76h.01zm4.26-6.31c1.11 0 1.89 1.29 2.79 2.79.42.69 1.1 1.83 1.47 2.02.34-.23.88-1.53 1.18-2.24.66-1.59 1.24-2.97 2.32-3.13 1.09-.17 2.05.99 3.17 2.33.48.58 1.36 1.65 1.76 1.78.3-.28.64-1.65.82-2.39.42-1.68.78-3.13 1.83-3.45 1.06-.33 2.18.67 3.48 1.83.57.51 1.6 1.43 2.01 1.5.25-.32.39-1.72.45-2.48.16-1.72.31-3.21 1.3-3.69s2.25.34 3.71 1.29c.64.42 1.8 1.17 2.21 1.18.2-.36.12-1.76.08-2.52-.1-1.72-.18-3.22.72-3.84.92-.62 2.28 0 3.86.72.69.32 1.95.89 2.36.84.14-.39-.14-1.76-.3-2.5-.35-1.7-.66-3.17.15-3.92s2.24-.34 3.91.14c.73.21 2.08.59 2.47.48.08-.4-.4-1.71-.67-2.42-.6-1.63-1.12-3.04-.43-3.9s2.17-.67 3.89-.44c.76.1 2.14.28 2.52.11.02-.41-.65-1.63-1.02-2.29-.84-1.53-1.56-2.84-1.01-3.8.55-.95 2.05-.98 3.78-1.01.76-.02 2.16-.04 2.51-.27-.04-.41-.89-1.51-1.35-2.11-1.05-1.38-1.96-2.57-1.56-3.6.41-1.02 1.88-1.27 3.58-1.57.75-.13 2.13-.36 2.44-.64-.1-.4-1.1-1.36-1.65-1.89-1.25-1.21-2.33-2.25-2.09-3.33.24-1.07 1.66-1.54 3.3-2.08.73-.24 2.06-.68 2.32-1-.16-.38-1.29-1.18-1.91-1.62-1.43-1.01-2.65-1.88-2.57-2.98.08-1.09 1.41-1.77 2.95-2.55.69-.35 1.95-.98 2.16-1.34-.2-.35-1.46-.99-2.16-1.34-1.54-.78-2.87-1.45-2.95-2.55s1.14-1.97 2.57-2.98c.66-.47 1.74-1.24 1.91-1.61-.27-.32-1.59-.77-2.32-1.01-1.64-.55-3.06-1.01-3.3-2.08-.24-1.08.84-2.13 2.09-3.33.55-.53 1.55-1.49 1.65-1.89-.31-.28-1.69-.52-2.44-.64-1.71-.29-3.18-.55-3.58-1.57-.4-1.03.51-2.22 1.56-3.6.46-.6 1.31-1.71 1.35-2.11-.35-.23-1.74-.26-2.51-.27-1.73-.03-3.23-.06-3.78-1.01s.17-2.27 1.01-3.79c.37-.67 1.04-1.89 1.02-2.3-.38-.17-1.76.01-2.52.11-1.72.22-3.2.42-3.89-.44s-.17-2.27.43-3.9c.27-.71.75-2.02.67-2.42-.4-.11-1.73.27-2.47.48-1.67.48-3.11.89-3.91.14-.81-.75-.51-2.21-.15-3.91.16-.75.44-2.11.3-2.5-.41-.06-1.67.53-2.36.84-1.58.72-2.94 1.34-3.86.72-.91-.63-.82-2.11-.72-3.84.04-.77.12-2.16-.08-2.52-.41.01-1.58.77-2.21 1.18-1.45.95-2.71 1.77-3.71 1.29-.99-.47-1.13-1.96-1.3-3.69-.07-.76-.2-2.16-.45-2.48-.4.07-1.44.99-2.01 1.5-1.3 1.16-2.42 2.16-3.48 1.83-1.05-.32-1.41-1.77-1.83-3.45-.19-.74-.53-2.1-.82-2.39-.39.14-1.27 1.2-1.76 1.78-1.11 1.34-2.07 2.5-3.17 2.34-1.08-.16-1.66-1.54-2.32-3.14-.3-.71-.84-2.01-1.18-2.24-.36.19-1.05 1.33-1.47 2.02-.9 1.49-1.68 2.78-2.79 2.78s-1.89-1.29-2.79-2.78c-.42-.69-1.11-1.83-1.47-2.02-.34.23-.88 1.53-1.18 2.24-.67 1.59-1.24 2.97-2.32 3.14-1.09.16-2.06-.99-3.17-2.34-.48-.58-1.37-1.65-1.76-1.78-.3.29-.64 1.65-.83 2.39-.42 1.68-.78 3.13-1.83 3.45-1.06.32-2.18-.68-3.47-1.83-.57-.51-1.6-1.43-2.01-1.5-.25.33-.38 1.72-.45 2.48-.16 1.72-.3 3.21-1.29 3.69-1 .48-2.25-.34-3.71-1.29-.64-.42-1.8-1.18-2.21-1.19-.2.36-.12 1.76-.07 2.52.09 1.73.18 3.22-.73 3.84-.92.63-2.28 0-3.85-.72-.7-.32-1.96-.9-2.37-.84-.14.39.14 1.75.3 2.5.35 1.7.66 3.16-.15 3.92-.81.75-2.25.33-3.92-.15-.73-.21-2.07-.59-2.47-.48-.08.41.4 1.71.67 2.43.6 1.63 1.12 3.04.43 3.9s-2.17.67-3.89.44c-.76-.1-2.14-.28-2.52-.11-.02.41.65 1.63 1.02 2.3.84 1.52 1.56 2.83 1.01 3.79-.55.95-2.05.98-3.78 1.02-.77.01-2.16.04-2.51.27.04.41.89 1.52 1.35 2.11 1.05 1.38 1.96 2.58 1.56 3.6s-1.88 1.28-3.58 1.57c-.76.13-2.14.36-2.44.64.1.4 1.1 1.36 1.65 1.89 1.25 1.2 2.33 2.25 2.09 3.33-.24 1.07-1.66 1.54-3.3 2.08-.73.24-2.06.69-2.32 1.01.16.38 1.24 1.15 1.91 1.61 1.42 1.01 2.65 1.88 2.56 2.99-.08 1.09-1.41 1.76-2.95 2.54-.69.35-1.95.99-2.16 1.34.2.36 1.46 1 2.16 1.35 1.54.78 2.87 1.45 2.95 2.54.08 1.11-1.14 1.98-2.56 2.99-.66.47-1.75 1.24-1.91 1.61.26.32 1.59.76 2.32 1.01 1.65.54 3.06 1.01 3.3 2.08.24 1.08-.83 2.12-2.09 3.33-.55.53-1.55 1.49-1.65 1.89.31.28 1.69.51 2.44.64 1.7.29 3.18.55 3.58 1.57.4 1.03-.51 2.22-1.56 3.6-.46.6-1.31 1.7-1.35 2.11.35.22 1.74.25 2.51.27 1.73.03 3.22.06 3.78 1.02s-.17 2.27-1.01 3.79c-.36.67-1.04 1.89-1.02 2.3.38.17 1.76-.01 2.52-.11 1.72-.23 3.2-.42 3.89.44s.17 2.27-.43 3.9c-.27.72-.75 2.02-.67 2.43.4.11 1.74-.27 2.47-.48 1.67-.48 3.11-.9 3.92-.15.8.76.5 2.22.15 3.92-.16.75-.44 2.11-.3 2.5.41.05 1.67-.53 2.37-.84 1.58-.72 2.94-1.34 3.85-.72s.82 2.11.73 3.84c-.04.77-.12 2.16.07 2.52.41 0 1.58-.77 2.21-1.18 1.46-.95 2.71-1.77 3.71-1.29.99.48 1.13 1.97 1.29 3.69.07.76.2 2.15.45 2.48.41-.07 1.44-.99 2.01-1.5 1.3-1.16 2.42-2.16 3.47-1.83 1.05.32 1.41 1.77 1.83 3.45.19.74.53 2.1.83 2.39.39-.14 1.27-1.2 1.76-1.78 1.11-1.34 2.07-2.5 3.17-2.34 1.08.16 1.66 1.54 2.32 3.14.3.71.83 2.01 1.18 2.24.36-.19 1.05-1.32 1.47-2.02.9-1.49 1.68-2.78 2.79-2.78zm49.27-52l-.23 4.83-.71 4.78c-.31 1.58-.7 3.15-1.17 4.69l-1.63 4.55c-.61 1.49-1.31 2.95-2.07 4.37l-2.48 4.15-2.88 3.89-3.25 3.58a48 48 0 0 1-3.58 3.24 48 48 0 0 1-3.89 2.88c-1.34.9-2.72 1.73-4.15 2.49l-4.38 2.07-4.55 1.63-4.69 1.18-4.78.71a49 49 0 0 1-9.66 0l-4.78-.71-4.69-1.18a49.3 49.3 0 0 1-13.07-6.19 49.4 49.4 0 0 1-7.47-6.12 48 48 0 0 1-3.24-3.58 46 46 0 0 1-2.88-3.89c-.9-1.34-1.73-2.72-2.49-4.15l-2.07-4.37-1.63-4.55-1.18-4.69c-.32-1.58-.55-3.18-.71-4.78a48.5 48.5 0 0 1 0-9.66l.71-4.78c.31-1.58.71-3.15 1.18-4.69a48 48 0 0 1 1.63-4.55q.93-2.235 2.07-4.38a50 50 0 0 1 5.37-8.04l3.24-3.58a48 48 0 0 1 3.58-3.24c1.24-1.03 2.54-1.98 3.89-2.88 1.34-.9 2.72-1.72 4.15-2.48l4.37-2.07c1.49-.62 3.01-1.16 4.55-1.63l4.69-1.17a48.3 48.3 0 0 1 9.61-.94l4.83.23 4.78.71 4.69 1.17 4.55 1.63c1.49.61 2.95 1.31 4.38 2.07l4.15 2.48c1.35.89 2.64 1.85 3.89 2.88l3.58 3.24 3.25 3.58 2.88 3.89 2.48 4.15 2.07 4.38c.62 1.49 1.16 3.01 1.63 4.55A46.57 46.57 0 0 1 129 54.9a48.3 48.3 0 0 1 .94 9.61" fill="#737373"/><path d="M76.73 66.26c4.55-4.76 6.83-9.2 6.83-13.35 0-1.4-.31-2.48-.92-3.23-.61-.76-1.42-1.14-2.41-1.14-1.17 0-2.09.6-2.76 1.79-.67 1.2-.92 3.02-.74 5.47H57.91c.18-5.43 1.36-9.9 3.55-13.4 2.19-3.49 5.03-6.06 8.53-7.7s7.35-2.45 11.56-2.45c7.47 0 12.94 1.79 16.41 5.39 3.47 3.59 5.21 8.18 5.21 13.78 0 5.9-1.88 11.42-5.65 16.59-3.77 5.16-8.47 9.53-14.14 13.08h20.04v15.67H58.16V82.15c7.82-5.83 14.01-11.13 18.56-15.89Z" fill="#fff"/></svg>