<svg xmlns="http://www.w3.org/2000/svg" viewBox="0 0 160.86 157.35" xmlns:v="https://vecta.io/nano"><defs><clipPath id="A"><path d="M54.2 55.16h58.67v32H54.2z" fill="none"/></clipPath><clipPath id="B"><path d="M39.53 35.16h121.33v122.2H39.53z" fill="none"/></clipPath><clipPath id="C"><path d="M0 35.16h122.2v122.2H0z" fill="none"/></clipPath><clipPath id="D"><path d="M15.53 0h129.33v129.82H15.53z" fill="none"/></clipPath></defs><g clip-path="url(#A)"><path d="M56.58 67.35V59.6h1.65v7.75zm8.92 0h-1.6v-3.46c0-.43-.08-.75-.23-.96-.16-.22-.4-.33-.73-.33-.46 0-.79.16-1 .46-.2.31-.29.81-.29 1.5v2.79h-1.6v-5.92h1.23l.21.75h.1a1.64 1.64 0 0 1 .73-.65c.32-.15.68-.23 1.08-.23.69 0 1.21.19 1.56.56.36.38.54.92.54 1.63v3.85zm5.8-1.75c0 .6-.22 1.06-.65 1.38-.42.32-1.04.48-1.88.48a6.8 6.8 0 0 1-1.1-.08 3.66 3.66 0 0 1-.85-.25v-1.35c.3.16.65.28 1.02.38.38.08.7.13.98.13.59 0 .9-.17.9-.5 0-.13-.04-.23-.13-.31a1.91 1.91 0 0 0-.42-.27l-.75-.35c-.46-.19-.8-.36-1.02-.52-.21-.17-.36-.35-.46-.56s-.15-.46-.15-.77q0-.795.6-1.23c.42-.29 1-.44 1.75-.44.71 0 1.4.16 2.08.48l-.48 1.17a5.6 5.6 0 0 0-.85-.31 2.54 2.54 0 0 0-.77-.13c-.49 0-.73.13-.73.38 0 .16.07.29.23.4.17.1.51.25 1.02.46.46.18.79.35 1 .52.22.17.38.35.48.56.11.21.17.47.17.77zm3.7-3.14c-.33 0-.6.11-.79.33-.2.22-.31.53-.33.92h2.27c-.02-.39-.13-.69-.33-.92q-.3-.33-.81-.33zm.23 5c-.95 0-1.69-.26-2.23-.79s-.81-1.27-.81-2.23.25-1.77.75-2.31 1.19-.81 2.06-.81 1.48.24 1.94.73c.47.47.71 1.13.71 1.96v.79h-3.81c.01.46.15.82.4 1.08.26.25.63.38 1.08.38a4.52 4.52 0 0 0 1-.1c.32-.07.65-.19 1-.35v1.25c-.28.14-.58.24-.9.31s-.72.1-1.19.1zm7.04-6.15a2.23 2.23 0 0 1 .56.06l-.13 1.5c-.14-.03-.3-.04-.48-.04-.52 0-.92.14-1.21.4-.29.27-.44.64-.44 1.1v3.02h-1.6v-5.92h1.21l.25.98h.08c.18-.33.42-.59.73-.79a1.82 1.82 0 0 1 1.02-.31zm1.55-1.42c0-.53.3-.79.9-.79s.88.27.88.79c0 .25-.08.45-.23.58-.14.14-.35.21-.65.21-.6 0-.9-.26-.9-.79m1.69 7.46h-1.6v-5.92h1.6zm5-6.04a2.23 2.23 0 0 1 .56.06l-.13 1.5c-.14-.03-.3-.04-.48-.04-.52 0-.92.14-1.21.4-.29.27-.44.64-.44 1.1v3.02h-1.6v-5.92h1.21l.25.98h.08c.18-.33.42-.59.73-.79a1.82 1.82 0 0 1 1.02-.31zm8.64 6.04l-.21-.75h-.08c-.18.27-.43.47-.75.63-.32.15-.68.23-1.08.23-.7 0-1.22-.19-1.58-.56-.35-.38-.52-.91-.52-1.6v-3.85h1.63v3.46c0 .42.07.74.23.96.15.21.4.31.73.31.44 0 .76-.15.96-.44.21-.3.31-.81.31-1.52v-2.77h1.63v5.92h-1.25zm8.23 0h-1.6v-3.46c0-.43-.08-.75-.23-.96-.14-.22-.36-.33-.67-.33-.42 0-.72.16-.92.46q-.27.465-.27 1.5v2.79h-1.6v-5.92h1.23l.21.75h.1c.15-.28.38-.49.67-.65.3-.15.65-.23 1.04-.23.89 0 1.49.29 1.81.88h.15c.15-.28.38-.49.69-.65.32-.15.67-.23 1.06-.23.67 0 1.17.18 1.52.52.34.35.52.91.52 1.67v3.85h-1.63v-3.46c0-.43-.08-.75-.23-.96-.14-.22-.36-.33-.67-.33-.39 0-.69.15-.9.44-.2.28-.29.72-.29 1.33v2.98zM72.15 81.29c.28 0 .61-.06 1-.19v1.21c-.41.18-.9.27-1.48.27-.64 0-1.11-.16-1.42-.48-.29-.33-.44-.82-.44-1.48v-2.85h-.77v-.69l.9-.54.46-1.25h1.04v1.27h1.65v1.21h-1.65v2.85c0 .22.06.39.19.5s.3.17.52.17m3.82 1.18h-1.6v-5.92h1.6zm-1.71-6.58v-.15c.61-.69 1.03-1.22 1.25-1.58h1.81v.1c-.18.18-.49.46-.94.83l-1.04.79h-1.08zm5.92 5.4c.28 0 .61-.06 1-.19v1.21c-.41.18-.9.27-1.48.27-.64 0-1.11-.16-1.42-.48-.29-.33-.44-.82-.44-1.48v-2.85h-.77v-.69l.9-.54.46-1.25h1.04v1.27h1.65v1.21h-1.65v2.85c0 .22.06.39.19.5s.3.17.52.17m6.39 1.18l-.21-.75h-.08c-.18.27-.43.47-.75.63-.32.15-.68.23-1.08.23-.7 0-1.22-.19-1.58-.56-.35-.38-.52-.91-.52-1.6v-3.85h1.63v3.46c0 .42.07.74.23.96.15.21.4.31.73.31.44 0 .76-.15.96-.44.21-.3.31-.81.31-1.52v-2.77h1.63v5.92h-1.25zm4.55 0h-1.6v-8.25h1.6zm3-2.98q0 .9.27 1.35c.19.29.51.44.96.44s.73-.15.92-.44c.19-.3.29-.76.29-1.35s-.1-1.02-.29-1.31c-.2-.29-.51-.44-.94-.44s-.74.15-.94.44c-.18.29-.27.73-.27 1.31m4.08 0c0 .97-.26 1.73-.77 2.27q-.75.81-2.1.81c-.57 0-1.08-.13-1.52-.38a2.5 2.5 0 0 1-1-1.06c-.24-.47-.35-1.02-.35-1.65q0-1.44.75-2.25c.51-.54 1.23-.81 2.15-.81.57 0 1.07.13 1.5.38a2.38 2.38 0 0 1 1 1.08c.23.46.35.99.35 1.6z"/></g><g fill="#be1e2d"><path d="m131.23 156.96-91.6-91.6 29.59-29.59 91.6 91.6-19.33 9.53z" clip-path="url(#B)"/><path d="m29.62 156.96 91.6-91.6-29.59-29.59-91.6 91.61 19.33 9.53 10.26 20.06Z" clip-path="url(#C)"/></g><path d="M144.74 64.32a65.142 65.142 0 0 1-1.23 12.54c-.41 2.07-.93 4.11-1.54 6.13s-1.32 3.99-2.13 5.94q-1.215 2.91-2.7 5.7l-3.24 5.42a66 66 0 0 1-3.76 5.07l-4.24 4.68-4.68 4.24a66 66 0 0 1-5.07 3.76 65 65 0 0 1-5.42 3.24l-5.7 2.7-5.94 2.13-6.13 1.53-6.24.93a63.32 63.32 0 0 1-6.31.31c-2.11 0-4.21-.1-6.3-.31-2.1-.2-4.18-.52-6.24-.93l-6.13-1.53c-2.02-.61-3.99-1.32-5.94-2.13q-2.91-1.215-5.7-2.7a66 66 0 0 1-5.41-3.24 64.5 64.5 0 0 1-9.75-8l-4.24-4.68a66 66 0 0 1-3.76-5.07 62 62 0 0 1-3.24-5.42 64 64 0 0 1-2.7-5.7 70 70 0 0 1-2.13-5.94l-1.53-6.13q-.615-3.105-.93-6.24a63.12 63.12 0 0 1-.31-6.3l.31-6.3a65 65 0 0 1 2.46-12.37c.61-2.02 1.32-3.99 2.13-5.94q1.215-2.91 2.7-5.7a65 65 0 0 1 3.24-5.42 64 64 0 0 1 3.76-5.07l4.24-4.68 4.68-4.24 5.07-3.76L50.1 7.6q2.79-1.485 5.7-2.7l5.94-2.13 6.13-1.53q3.105-.615 6.24-.93A63.67 63.67 0 0 1 80.43 0l6.31.31c2.09.2 4.18.52 6.24.93l6.13 1.53c2.02.61 3.99 1.32 5.94 2.13l5.7 2.7c1.86.99 3.66 2.08 5.42 3.24l5.07 3.76 4.68 4.24 4.24 4.68 3.76 5.07a65 65 0 0 1 3.24 5.42q1.485 2.79 2.7 5.7 1.215 2.925 2.13 5.94l1.54 6.13.92 6.24a63.12 63.12 0 0 1 .31 6.3z" fill="#ff751f" clip-path="url(#D)"/><path d="M142.42 64.32l-.3 6.08c-.2 2.02-.5 4.03-.9 6.02l-1.48 5.9a62 62 0 0 1-7.78 16.45 60 60 0 0 1-3.63 4.89 65 65 0 0 1-4.08 4.51l-4.51 4.08-4.89 3.63a63 63 0 0 1-5.22 3.13c-1.79.96-3.63 1.83-5.5 2.6l-5.73 2.05-5.9 1.48-6.02.9a61.7 61.7 0 0 1-18.18-.9 62.04 62.04 0 0 1-17.13-6.13 60.04 60.04 0 0 1-5.22-3.13q-2.535-1.695-4.89-3.63l-4.51-4.08c-1.44-1.43-2.8-2.94-4.09-4.51l-3.63-4.89a63 63 0 0 1-3.13-5.22c-.96-1.79-1.83-3.63-2.6-5.5l-2.05-5.73-1.48-5.9c-.4-1.99-.69-3.99-.89-6.02a61.7 61.7 0 0 1 0-12.16l.89-6.02 1.48-5.9 2.05-5.73 2.6-5.5a60.04 60.04 0 0 1 3.13-5.22q1.695-2.535 3.63-4.89l4.09-4.51c1.44-1.44 2.94-2.8 4.51-4.08l4.89-3.63 5.22-3.13 5.5-2.6A62 62 0 0 1 68.3 3.5c1.99-.4 3.99-.69 6.02-.9a61.7 61.7 0 0 1 18.18.9 62.04 62.04 0 0 1 17.13 6.13 60.04 60.04 0 0 1 5.22 3.13q2.535 1.695 4.89 3.63l4.51 4.08 4.08 4.51 3.63 4.89a60.04 60.04 0 0 1 3.13 5.22l2.6 5.5a61.01 61.01 0 0 1 2.05 5.73l1.48 5.9.9 6.02.3 6.08" fill="#ff914d"/><path d="M76.18 122.46h-.1c-1.16-.09-1.75-1.51-2.44-3.17-.31-.76-.83-2.01-1.16-2.21-.39.1-1.3 1.2-1.79 1.8-1.13 1.37-2.11 2.55-3.23 2.29-1.13-.26-1.5-1.75-1.93-3.49-.19-.74-.53-2.11-.82-2.37-.4.05-1.46.99-2.04 1.51-1.33 1.18-2.47 2.21-3.54 1.79s-1.22-1.96-1.39-3.73c-.07-.77-.21-2.17-.46-2.47h-.01c-.41 0-1.58.77-2.22 1.18-1.49.97-2.78 1.81-3.77 1.23-1-.58-.91-2.11-.81-3.89.04-.77.12-2.18-.08-2.52-.39-.07-1.68.52-2.39.83-1.62.74-3.02 1.38-3.92.66s-.58-2.22-.22-3.97c.16-.76.44-2.14.29-2.51-.37-.13-1.73.27-2.47.47-1.71.49-3.19.92-3.97.07s-.25-2.29.36-3.95c.27-.72.76-2.05.66-2.44-.35-.18-1.76 0-2.52.1-1.77.23-3.29.43-3.94-.52s.09-2.29.95-3.85c.38-.68 1.06-1.92 1.02-2.31-.32-.23-1.73-.26-2.5-.28-1.79-.03-3.33-.06-3.83-1.1-.5-1.03.43-2.25 1.52-3.67.47-.61 1.33-1.74 1.35-2.14-.28-.28-1.67-.52-2.43-.65-1.76-.3-3.28-.56-3.62-1.66s.77-2.16 2.04-3.4c.56-.54 1.58-1.53 1.66-1.92-.23-.31-1.57-.76-2.3-.99-1.7-.56-3.17-1.05-3.33-2.19-.17-1.14 1.08-2.02 2.53-3.04.63-.45 1.8-1.28 1.93-1.65-.19-.34-1.39-.96-2.12-1.33-1.6-.81-2.97-1.51-2.97-2.66s1.38-1.86 2.97-2.67c.73-.37 1.93-.98 2.12-1.33-.13-.38-1.3-1.2-1.93-1.65-1.45-1.03-2.7-1.91-2.53-3.05.17-1.15 1.64-1.63 3.33-2.19.72-.24 2.06-.68 2.3-.99-.07-.39-1.1-1.38-1.66-1.92-1.28-1.23-2.38-2.3-2.04-3.4s1.86-1.36 3.62-1.66c.76-.13 2.15-.37 2.43-.65-.02-.4-.88-1.53-1.35-2.14-1.08-1.42-2.01-2.64-1.52-3.67.51-1.04 2.05-1.07 3.83-1.1.77-.02 2.18-.04 2.51-.28.04-.4-.64-1.64-1.02-2.31-.86-1.56-1.6-2.91-.95-3.85.65-.95 2.18-.75 3.94-.52.76.1 2.16.28 2.52.1.1-.39-.39-1.71-.66-2.44-.62-1.67-1.15-3.11-.37-3.96.78-.84 2.26-.42 3.98.07.74.21 2.1.6 2.47.47.16-.36-.13-1.75-.29-2.51-.36-1.74-.67-3.25.23-3.97.9-.71 2.29-.08 3.92.66.7.32 1.99.91 2.38.84.21-.34.13-1.75.08-2.52-.1-1.78-.19-3.32.81-3.9.99-.57 2.28.27 3.77 1.24.65.42 1.83 1.2 2.23 1.18.25-.3.39-1.71.46-2.47.17-1.78.31-3.31 1.39-3.73 1.07-.42 2.21.6 3.54 1.79.58.52 1.64 1.46 2.03 1.51.3-.26.64-1.63.82-2.37.43-1.73.81-3.23 1.94-3.49 1.11-.25 2.09.93 3.22 2.3.49.59 1.41 1.69 1.79 1.8.33-.21.85-1.46 1.17-2.22.69-1.65 1.28-3.08 2.44-3.16 1.14-.09 1.93 1.22 2.84 2.74.4.67 1.15 1.9 1.51 2.05.36-.16 1.1-1.39 1.51-2.05.92-1.52 1.7-2.83 2.85-2.74 1.16.08 1.75 1.51 2.44 3.16.31.76.83 2.01 1.16 2.22.39-.1 1.3-1.2 1.79-1.8 1.13-1.37 2.11-2.55 3.22-2.3 1.13.26 1.5 1.76 1.94 3.49.19.74.53 2.11.82 2.37.4-.04 1.45-.99 2.04-1.51 1.32-1.18 2.47-2.2 3.54-1.79 1.08.42 1.22 1.96 1.39 3.73.07.77.2 2.17.46 2.47h.01c.4 0 1.58-.77 2.22-1.18 1.49-.97 2.78-1.81 3.78-1.24.99.58.91 2.12.81 3.9-.04.77-.12 2.18.08 2.52.39.07 1.68-.52 2.39-.84 1.62-.74 3.02-1.38 3.92-.66s.58 2.22.22 3.97c-.16.75-.44 2.14-.29 2.51.38.13 1.74-.27 2.48-.48 1.71-.49 3.19-.92 3.97-.07.78.84.25 2.29-.36 3.95-.27.72-.76 2.05-.66 2.44.35.18 1.76 0 2.52-.1 1.77-.23 3.3-.43 3.94.52.65.95-.09 2.3-.95 3.86-.37.67-1.05 1.92-1.01 2.31.32.23 1.73.26 2.5.28 1.79.03 3.33.06 3.83 1.1s-.43 2.26-1.52 3.67c-.47.61-1.33 1.74-1.35 2.14.28.28 1.67.52 2.43.64 1.76.3 3.28.56 3.62 1.67.34 1.1-.77 2.16-2.05 3.4-.55.54-1.58 1.53-1.65 1.92.23.31 1.57.76 2.3.99 1.7.56 3.17 1.05 3.33 2.19.17 1.13-1.08 2.02-2.53 3.05-.64.45-1.8 1.28-1.93 1.65.19.34 1.4.95 2.13 1.32 1.6.81 2.97 1.51 2.97 2.67s-1.38 1.86-2.97 2.67c-.73.37-1.94.98-2.13 1.32.14.38 1.3 1.2 1.93 1.65 1.45 1.03 2.69 1.91 2.53 3.04-.17 1.15-1.64 1.63-3.33 2.19-.73.24-2.06.68-2.3.99.07.39 1.1 1.38 1.65 1.92 1.28 1.23 2.39 2.3 2.05 3.4s-1.86 1.36-3.62 1.67c-.76.13-2.15.36-2.43.64.02.4.88 1.53 1.35 2.14 1.08 1.41 2.02 2.63 1.52 3.66-.5 1.04-2.04 1.07-3.83 1.1-.77.02-2.18.04-2.5.28-.04.4.64 1.64 1.01 2.31.86 1.56 1.6 2.91.95 3.86s-2.18.74-3.94.52c-.76-.1-2.16-.28-2.52-.1-.1.39.39 1.71.66 2.44.61 1.67 1.15 3.11.36 3.95-.78.84-2.26.42-3.97-.07-.74-.21-2.1-.61-2.48-.48-.15.36.14 1.75.29 2.51.36 1.74.68 3.25-.22 3.97s-2.3.08-3.92-.66c-.7-.32-1.99-.9-2.39-.83-.2.34-.13 1.75-.08 2.52.1 1.78.19 3.32-.81 3.89-.99.58-2.28-.26-3.77-1.23-.65-.42-1.82-1.18-2.22-1.18h-.01c-.26.3-.39 1.71-.46 2.47-.17 1.78-.31 3.31-1.39 3.73-1.07.42-2.21-.6-3.54-1.79-.58-.52-1.64-1.46-2.03-1.51-.3.26-.64 1.63-.82 2.37-.44 1.73-.81 3.23-1.94 3.49-1.11.25-2.09-.93-3.22-2.3-.49-.6-1.41-1.69-1.79-1.8-.33.21-.85 1.46-1.16 2.22-.69 1.65-1.28 3.07-2.44 3.16-1.14.08-1.93-1.22-2.85-2.74-.4-.67-1.14-1.9-1.51-2.05-.36.16-1.11 1.39-1.51 2.05-.89 1.47-1.66 2.75-2.74 2.75zm4.25-6.29c1.11 0 1.89 1.29 2.78 2.78.42.69 1.1 1.82 1.46 2.01.34-.23.88-1.53 1.18-2.23.66-1.59 1.23-2.96 2.31-3.13 1.09-.17 2.05.99 3.16 2.33.48.58 1.36 1.65 1.75 1.78.3-.29.64-1.64.82-2.39.42-1.67.78-3.11 1.82-3.44 1.06-.33 2.17.67 3.47 1.82.57.51 1.6 1.43 2 1.49.25-.32.39-1.71.45-2.47.16-1.72.3-3.2 1.29-3.68s2.24.34 3.7 1.29c.64.41 1.8 1.17 2.2 1.18.2-.36.13-1.75.08-2.51-.09-1.72-.18-3.21.73-3.83s2.27 0 3.84.72c.69.32 1.95.89 2.36.84.14-.39-.14-1.75-.3-2.49-.35-1.69-.66-3.16.15-3.91.81-.74 2.24-.33 3.91.15.73.21 2.07.59 2.46.48.08-.41-.4-1.71-.66-2.42-.6-1.63-1.12-3.03-.43-3.89.68-.85 2.16-.66 3.88-.44.76.1 2.13.28 2.51.11.02-.41-.65-1.62-1.01-2.29-.84-1.52-1.56-2.83-1.01-3.78s2.04-.98 3.77-1.01c.76-.02 2.15-.04 2.49-.27-.04-.41-.88-1.51-1.34-2.11-1.05-1.38-1.96-2.57-1.56-3.59.41-1.02 1.87-1.27 3.57-1.56.75-.13 2.13-.36 2.43-.64-.1-.4-1.09-1.36-1.64-1.88-1.24-1.21-2.33-2.24-2.08-3.32.24-1.07 1.66-1.54 3.29-2.08.72-.24 2.05-.68 2.31-1-.16-.38-1.29-1.17-1.9-1.61-1.42-1.01-2.64-1.88-2.56-2.98.08-1.09 1.41-1.76 2.94-2.54.69-.35 1.95-.98 2.15-1.34-.2-.35-1.46-.99-2.15-1.34-1.54-.78-2.86-1.45-2.94-2.54-.08-1.1 1.14-1.97 2.56-2.98.66-.47 1.74-1.24 1.9-1.61-.26-.32-1.59-.76-2.31-1-1.64-.55-3.05-1.01-3.29-2.08-.24-1.08.83-2.11 2.08-3.32.55-.53 1.54-1.48 1.64-1.88-.3-.28-1.68-.51-2.43-.64-1.7-.29-3.17-.54-3.57-1.56-.4-1.03.51-2.22 1.56-3.59.46-.6 1.3-1.7 1.34-2.11-.34-.22-1.73-.25-2.49-.27-1.73-.03-3.22-.06-3.77-1.01s.17-2.27 1.01-3.78c.36-.67 1.03-1.88 1.01-2.29-.38-.17-1.75.01-2.51.11-1.72.22-3.2.42-3.88-.44-.69-.86-.17-2.26.43-3.89.26-.71.74-2.02.66-2.42-.4-.11-1.73.27-2.46.48-1.66.48-3.1.89-3.91.14-.8-.75-.5-2.21-.15-3.9.16-.75.44-2.11.3-2.49-.41-.05-1.67.53-2.36.84-1.58.72-2.94 1.34-3.84.72s-.82-2.11-.73-3.83c.04-.77.13-2.15-.08-2.52-.41.01-1.57.77-2.2 1.18-1.45.95-2.71 1.76-3.7 1.28-.99-.47-1.13-1.96-1.29-3.68-.07-.76-.2-2.15-.45-2.47-.4.07-1.44.99-2 1.49-1.29 1.15-2.41 2.15-3.47 1.82-1.04-.32-1.4-1.77-1.82-3.44-.18-.74-.52-2.1-.82-2.39-.39.14-1.27 1.19-1.75 1.78-1.11 1.34-2.07 2.49-3.16 2.33-1.08-.16-1.65-1.53-2.31-3.12-.3-.71-.83-2-1.18-2.24-.36.19-1.05 1.32-1.46 2.01-.9 1.49-1.67 2.78-2.78 2.78s-1.89-1.29-2.78-2.78c-.42-.69-1.1-1.82-1.46-2.01-.34.23-.88 1.53-1.17 2.24-.66 1.59-1.23 2.96-2.32 3.12-1.09.17-2.05-.99-3.16-2.33-.48-.58-1.36-1.64-1.75-1.78-.3.29-.64 1.64-.82 2.39-.42 1.67-.78 3.11-1.82 3.44-1.06.33-2.17-.67-3.47-1.82-.56-.51-1.6-1.43-2-1.49-.25.32-.38 1.71-.45 2.47-.16 1.72-.3 3.2-1.29 3.68s-2.24-.34-3.7-1.29c-.64-.41-1.8-1.17-2.2-1.18-.2.36-.13 1.75-.08 2.51.09 1.73.18 3.22-.73 3.83-.91.62-2.27 0-3.84-.72-.69-.32-1.95-.89-2.36-.84-.14.39.14 1.74.3 2.49.35 1.69.66 3.16-.15 3.91s-2.24.33-3.91-.14c-.73-.21-2.07-.6-2.46-.48-.08.4.4 1.7.66 2.42.6 1.63 1.11 3.03.43 3.89-.69.86-2.17.66-3.88.44-.76-.1-2.14-.28-2.51-.11-.03.41.65 1.62 1.01 2.29.83 1.52 1.56 2.83 1.01 3.78s-2.04.98-3.77 1.01c-.76.02-2.15.04-2.49.27.04.41.88 1.51 1.34 2.11 1.05 1.38 1.96 2.56 1.56 3.59-.4 1.02-1.86 1.27-3.57 1.56-.75.13-2.13.36-2.43.64.1.4 1.09 1.36 1.64 1.88 1.24 1.2 2.33 2.24 2.08 3.32-.24 1.07-1.66 1.54-3.29 2.08-.72.24-2.05.68-2.32 1 .16.38 1.24 1.15 1.9 1.61 1.42 1.01 2.64 1.88 2.56 2.98-.08 1.09-1.41 1.76-2.94 2.54-.69.35-1.95.98-2.15 1.34.2.35 1.46.99 2.15 1.34 1.53.78 2.86 1.45 2.94 2.54.08 1.1-1.14 1.97-2.56 2.98-.66.47-1.74 1.24-1.9 1.61.27.32 1.59.76 2.32 1 1.64.55 3.05 1.01 3.29 2.08.24 1.08-.83 2.12-2.08 3.32-.55.53-1.54 1.48-1.64 1.88.3.28 1.68.52 2.43.64 1.7.29 3.17.55 3.57 1.56.41 1.03-.5 2.22-1.56 3.59-.46.6-1.3 1.7-1.34 2.11.34.22 1.73.25 2.49.27 1.73.03 3.22.06 3.77 1.01s-.17 2.27-1.01 3.78c-.36.67-1.04 1.88-1.01 2.29.37.17 1.75-.01 2.51-.11 1.71-.22 3.19-.42 3.88.44.68.86.17 2.26-.43 3.89-.26.71-.74 2.02-.66 2.42.4.11 1.73-.27 2.46-.48 1.66-.47 3.1-.89 3.91-.14.8.75.5 2.21.15 3.9-.16.75-.44 2.11-.3 2.49.41.05 1.67-.53 2.36-.84 1.58-.72 2.94-1.34 3.84-.72.91.63.82 2.11.73 3.83-.04.77-.12 2.15.08 2.52.41-.01 1.57-.77 2.2-1.18 1.45-.94 2.7-1.76 3.7-1.28.98.47 1.13 1.96 1.29 3.68.07.76.2 2.15.45 2.47.4-.07 1.44-.99 2-1.49 1.29-1.16 2.41-2.15 3.47-1.83 1.05.32 1.41 1.77 1.82 3.44.19.74.53 2.09.82 2.38.39-.13 1.27-1.19 1.75-1.78 1.1-1.33 2.06-2.49 3.16-2.33 1.08.16 1.66 1.54 2.32 3.13.3.71.83 2 1.17 2.23.36-.19 1.05-1.32 1.46-2.02.9-1.48 1.68-2.77 2.78-2.77zm49.12-51.85l-.23 4.81-.71 4.77c-.31 1.58-.7 3.14-1.17 4.68l-1.63 4.54c-.61 1.49-1.3 2.94-2.06 4.36l-2.48 4.14c-.89 1.34-1.85 2.63-2.87 3.88l-3.23 3.57c-1.13 1.14-2.33 2.22-3.57 3.24a47 47 0 0 1-3.88 2.87 47 47 0 0 1-4.14 2.48 48 48 0 0 1-4.35 2.06l-4.54 1.63q-2.31.69-4.68 1.17l-4.77.71c-1.6.16-3.21.23-4.82.23s-3.21-.08-4.81-.23l-4.77-.71q-2.37-.48-4.68-1.17l-4.54-1.63c-1.49-.61-2.94-1.3-4.36-2.06l-4.14-2.48c-1.34-.89-2.63-1.85-3.87-2.87l-3.57-3.24a50 50 0 0 1-3.24-3.57 47 47 0 0 1-2.87-3.88 47 47 0 0 1-2.48-4.14l-2.06-4.36-1.63-4.54q-.69-2.31-1.17-4.68a48 48 0 0 1-.7-4.77 48.3 48.3 0 0 1 0-9.63l.7-4.77q.48-2.37 1.17-4.68l1.63-4.54c.61-1.49 1.3-2.94 2.06-4.36l2.48-4.14c.89-1.34 1.85-2.63 2.87-3.88a49.7 49.7 0 0 1 6.81-6.81l3.87-2.87c1.34-.9 2.72-1.72 4.14-2.48l4.36-2.06 4.54-1.63q2.31-.69 4.68-1.17l4.77-.71a48.25 48.25 0 0 1 4.81-.23l4.82.23 4.77.71q2.37.48 4.68 1.17l4.54 1.63a46.68 46.68 0 0 1 4.35 2.06l4.14 2.48c1.34.89 2.63 1.85 3.88 2.87q1.86 1.53 3.57 3.24l3.23 3.57c1.02 1.24 1.98 2.54 2.87 3.88a47 47 0 0 1 2.48 4.14c.76 1.42 1.45 2.87 2.06 4.36l1.63 4.54c.47 1.55.86 3.1 1.17 4.68l.71 4.77c.16 1.6.23 3.21.23 4.82" fill="#ff751f"/><path d="M64.56 37.53q5.67-5.37 16.08-5.37c4.49 0 8.33.77 11.52 2.3 3.18 1.53 5.58 3.61 7.21 6.22 1.62 2.62 2.43 5.57 2.43 8.88 0 3.98-.94 7.09-2.81 9.34s-3.98 3.77-6.31 4.56v.34c6.82 2.56 10.23 7.31 10.23 14.24 0 3.64-.85 6.85-2.56 9.64s-4.14 4.94-7.29 6.48c-3.16 1.53-6.9 2.3-11.22 2.3-7.4 0-13.19-1.77-17.4-5.29s-6.37-9.04-6.48-16.55h18.43q-.18 3.075.9 4.65c.71 1.05 1.94 1.58 3.71 1.58 1.03 0 1.88-.39 2.56-1.15q1.02-1.155 1.02-3.03c0-1.59-.53-2.8-1.58-3.63s-2.83-1.24-5.33-1.24h-3.15V56.53h3.07c3.86.23 5.8-1.31 5.8-4.6 0-1.42-.3-2.47-.9-3.16-.59-.68-1.35-1.02-2.26-1.02-2.1 0-3.15 1.76-3.15 5.29H58.65c.17-6.77 2.15-11.94 5.93-15.53Z" fill="#fff"/></svg>