<?xml version="1.0" standalone="no"?>
<!DOCTYPE svg PUBLIC "-//W3C//DTD SVG 20010904//EN"
 "http://www.w3.org/TR/2001/REC-SVG-20010904/DTD/svg10.dtd">
<svg version="1.0" xmlns="http://www.w3.org/2000/svg"
 width="512.000000pt" height="512.000000pt" viewBox="0 0 512.000000 512.000000"
 preserveAspectRatio="xMidYMid meet">

<g transform="translate(0.000000,512.000000) scale(0.100000,-0.100000)"
fill="#000000" stroke="none">
<path d="M3015 4625 c-236 -51 -428 -238 -490 -475 -22 -84 -22 -236 0 -320
20 -77 64 -168 115 -236 l38 -51 -56 -13 c-31 -6 -84 -23 -117 -36 l-60 -24
-15 22 c-110 165 -273 269 -464 298 -297 45 -599 -142 -695 -428 -41 -122 -45
-275 -10 -397 16 -56 71 -163 108 -209 17 -22 28 -42 24 -46 -5 -3 -33 -12
-63 -19 -30 -7 -104 -37 -165 -66 -187 -91 -317 -221 -411 -410 -74 -149 -86
-214 -91 -476 l-5 -225 -47 -17 c-117 -41 -245 -156 -300 -270 -140 -286 -28
-618 254 -757 122 -61 93 -60 1315 -60 1235 0 1191 -2 1327 65 129 64 249 211
284 348 10 42 15 48 33 44 209 -51 363 -60 513 -32 588 111 971 678 848 1254
-58 272 -224 520 -444 661 -58 38 -70 50 -75 80 -21 109 -81 246 -151 345 -50
70 -159 177 -228 224 -72 49 -204 108 -285 127 l-70 17 38 51 c87 115 131 243
132 384 1 119 -16 190 -69 301 -107 223 -333 362 -583 360 -41 0 -102 -7 -135
-14z m258 -160 c85 -22 154 -61 219 -123 103 -98 151 -213 150 -357 -1 -143
-53 -258 -159 -355 -246 -225 -626 -146 -772 160 -33 68 -36 84 -39 180 -3 88
0 116 18 170 82 245 339 389 583 325z m-1235 -855 c226 -79 365 -318 318 -546
-8 -43 -28 -103 -43 -133 -40 -83 -135 -173 -230 -219 -77 -37 -79 -37 -203
-37 -124 0 -126 0 -203 37 -105 50 -185 130 -235 235 -37 77 -37 79 -37 203 0
123 0 126 37 202 110 230 363 340 596 258z m917 -237 c69 -23 97 -27 205 -27
113 0 133 3 205 29 79 28 82 28 181 17 211 -23 401 -127 520 -285 41 -54 129
-216 121 -223 -1 -2 -39 7 -82 19 -68 18 -106 22 -255 22 -149 0 -187 -4 -255
-22 -161 -44 -295 -113 -423 -216 -72 -58 -186 -191 -228 -266 l-28 -49 -70
72 c-75 76 -155 135 -246 181 -62 32 -185 75 -211 75 -30 0 -30 16 2 56 101
126 153 322 129 481 -14 90 -14 90 84 123 135 45 244 49 351 13z m1072 -618
c232 -49 433 -181 564 -371 47 -68 107 -201 130 -289 31 -114 31 -326 1 -440
-125 -466 -587 -753 -1057 -656 -330 68 -599 325 -686 656 -31 115 -31 327 0
440 23 88 83 221 130 289 129 187 330 320 561 372 78 17 275 17 357 -1z
m-2354 -215 c132 -46 279 -46 417 0 133 45 323 11 493 -88 72 -42 173 -136
221 -205 l36 -52 -14 -53 c-40 -150 -44 -337 -10 -487 9 -38 18 -82 21 -98 l5
-27 -1008 2 -1009 3 0 200 c1 223 9 275 69 400 74 155 192 273 351 350 151 74
315 94 428 55z m1301 -1255 c71 -104 186 -220 282 -284 40 -27 78 -51 86 -53
11 -4 10 -18 -5 -73 -39 -152 -153 -262 -305 -294 -37 -8 -377 -11 -1155 -11
-946 0 -1111 2 -1160 15 -126 33 -208 99 -264 213 -36 73 -38 80 -38 177 0 93
2 105 32 166 51 104 129 173 242 214 29 11 255 14 1132 14 l1095 1 58 -85z"/>
<path d="M3599 2504 c-23 -25 -24 -32 -27 -190 l-4 -164 -162 0 c-226 0 -211
19 -211 -277 l0 -225 28 -24 c27 -23 33 -24 187 -24 l158 0 4 -166 3 -166 28
-24 c28 -24 30 -24 251 -24 l223 0 24 26 c23 25 24 32 27 190 l3 164 160 0
161 0 29 29 29 29 0 212 c0 214 -4 240 -39 267 -11 9 -67 12 -178 13 l-163 0
0 149 c0 82 -5 162 -10 177 -20 52 -28 53 -271 54 l-226 0 -24 -26z m371 -299
c0 -163 0 -166 25 -190 24 -25 27 -25 190 -25 l165 0 0 -115 0 -115 -164 0
c-150 0 -165 -2 -190 -21 l-26 -20 0 -170 0 -169 -114 0 -114 0 -4 166 -3 166
-28 24 c-27 23 -33 24 -193 24 l-164 0 0 115 0 115 164 0 c160 0 166 1 193 24
l28 24 4 166 3 166 114 0 114 0 0 -165z"/>
<path d="M919 1250 l-30 -29 3 -257 c3 -255 3 -256 27 -275 30 -24 72 -24 102
0 23 18 24 27 29 160 l5 141 143 -155 c150 -162 175 -180 221 -154 49 27 51
45 49 307 l-3 244 -29 25 c-23 19 -36 24 -60 19 -58 -11 -66 -33 -66 -182 0
-74 -3 -134 -7 -133 -5 0 -69 67 -143 149 -168 184 -186 195 -241 140z"/>
<path d="M1629 1251 l-29 -29 0 -242 c0 -251 6 -288 45 -304 9 -3 97 -6 196
-6 178 0 180 0 204 25 27 26 32 70 12 96 -25 32 -56 39 -176 39 l-121 0 0 30
0 30 68 0 c76 0 112 14 129 52 16 31 1 83 -27 98 -10 6 -53 10 -94 10 l-76 0
0 35 0 35 128 0 c121 0 130 1 150 23 32 34 30 89 -4 116 -25 19 -40 21 -201
21 l-175 0 -29 -29z"/>
<path d="M2213 1270 c-51 -21 -54 -38 -51 -310 3 -251 3 -252 27 -271 13 -10
37 -19 55 -19 27 0 47 17 151 126 l121 126 69 -73 c164 -174 170 -179 204
-179 21 0 41 9 56 25 l25 24 0 251 0 252 -29 29 c-32 31 -50 35 -84 17 -42
-22 -46 -37 -47 -178 l0 -135 -83 83 c-109 109 -115 109 -224 0 l-83 -83 0
132 c0 72 -3 139 -6 148 -6 15 -54 46 -71 44 -4 0 -18 -4 -30 -9z"/>
</g>
</svg>
