<?xml version="1.0" standalone="no"?>
<!DOCTYPE svg PUBLIC "-//W3C//DTD SVG 20010904//EN"
 "http://www.w3.org/TR/2001/REC-SVG-20010904/DTD/svg10.dtd">
<svg version="1.0" xmlns="http://www.w3.org/2000/svg"
 width="512.000000pt" height="512.000000pt" viewBox="0 0 512.000000 512.000000"
 preserveAspectRatio="xMidYMid meet">

<g transform="translate(0.000000,512.000000) scale(0.100000,-0.100000)"
fill="#000000" stroke="none">
<path d="M2312 5025 c-104 -23 -207 -80 -291 -162 -46 -44 -100 -84 -137 -103
-115 -56 -191 -168 -200 -297 -4 -54 1 -92 24 -185 l29 -118 -28 -56 c-50 -99
-35 -189 46 -269 56 -57 102 -75 187 -75 l55 0 5 -89 c4 -72 11 -102 36 -154
28 -61 85 -129 144 -172 l28 -20 -17 -65 c-9 -36 -17 -66 -18 -68 -1 -2 -18 6
-36 17 -19 10 -65 30 -104 42 -64 21 -95 23 -340 28 l-270 6 -31 340 -31 340
55 60 c94 102 122 206 86 321 -26 84 -115 172 -198 198 -107 34 -229 5 -319
-74 -19 -16 -49 -58 -68 -92 l-34 -63 -3 -667 -3 -668 -50 -50 c-107 -107
-129 -220 -81 -412 l29 -118 -28 -56 c-50 -99 -35 -189 46 -269 56 -57 102
-75 187 -75 l55 0 5 -89 c4 -72 11 -102 36 -154 28 -61 85 -129 144 -172 l28
-20 -17 -65 c-9 -36 -17 -66 -18 -67 0 -2 -41 -14 -91 -28 -162 -47 -315 -130
-454 -246 -34 -28 -63 -49 -64 -47 -2 1 -12 104 -23 228 l-19 225 54 60 c94
102 122 207 86 321 -26 84 -115 172 -198 198 -107 34 -229 5 -319 -74 -19 -16
-49 -58 -68 -92 l-34 -63 0 -685 0 -685 24 -60 c18 -44 42 -78 90 -126 88 -87
150 -113 276 -114 93 0 95 1 238 73 4 2 7 -51 7 -117 l0 -121 1840 0 1840 0 0
121 c0 66 3 119 8 117 142 -72 144 -73 237 -73 126 1 188 27 276 114 48 48 72
82 90 126 l24 60 0 680 0 680 -26 55 c-36 77 -77 121 -151 161 -57 30 -71 33
-148 34 -73 0 -92 -4 -135 -27 -27 -14 -66 -42 -84 -62 -19 -20 -38 -36 -42
-36 -4 0 -15 21 -24 47 -13 36 -19 100 -25 253 -7 181 -11 215 -34 285 -36
114 -89 198 -181 290 -91 91 -175 144 -290 182 -79 26 -85 27 -350 27 -148 1
-288 -1 -310 -3 -28 -3 -67 6 -125 27 -47 17 -103 36 -126 42 -39 10 -40 11
-57 77 l-16 68 27 20 c59 44 116 111 144 172 25 52 32 82 36 154 l5 89 55 0
c85 0 131 18 187 75 79 78 95 166 50 262 l-24 53 25 97 c43 165 22 329 -59
473 -39 71 -166 198 -237 237 -127 71 -156 76 -465 79 -213 3 -295 0 -343 -11z
m589 -155 c125 -23 252 -115 317 -231 59 -102 77 -266 42 -366 l-12 -33 -144
0 -144 0 0 -296 c0 -204 -4 -310 -12 -338 -16 -55 -99 -138 -154 -154 -56 -16
-412 -16 -468 0 -55 16 -138 99 -154 154 -8 28 -12 134 -12 338 l0 296 -139 0
-139 0 -21 85 c-11 46 -21 99 -21 117 1 80 69 163 159 193 40 13 58 27 86 65
56 77 148 138 247 164 64 18 485 22 569 6z m-1627 -484 c36 -15 71 -57 81 -99
15 -58 -3 -97 -82 -179 l-76 -78 32 -357 c17 -197 34 -374 37 -394 5 -35 4
-36 -59 -68 -35 -18 -87 -53 -116 -78 l-51 -45 0 586 c0 389 4 594 11 613 33
89 137 135 223 99z m726 -386 l0 -80 -55 0 c-67 0 -105 29 -105 80 0 51 38 80
105 80 l55 0 0 -80z m1255 55 c16 -15 25 -36 25 -55 0 -51 -38 -80 -105 -80
l-55 0 0 80 0 80 55 0 c46 0 60 -4 80 -25z m-484 -831 c15 -65 13 -67 -71 -86
-101 -23 -298 -11 -349 21 -12 8 -13 18 -2 65 l12 56 199 0 199 0 12 -56z
m-830 -114 c125 -23 252 -115 317 -231 59 -102 77 -266 42 -366 l-12 -33 -233
0 c-329 0 -457 27 -623 131 -35 21 -67 39 -73 39 -5 0 -67 -38 -137 -85 l-127
-85 -86 0 -87 0 -21 85 c-11 46 -21 99 -21 117 1 80 69 163 159 193 40 13 58
27 86 65 56 77 148 138 247 164 64 18 485 22 569 6z m1008 -119 c-64 -46 -174
-167 -212 -232 -71 -122 -88 -197 -97 -429 -6 -175 -10 -213 -29 -261 -26 -68
-68 -132 -114 -177 l-35 -34 39 -90 c70 -164 195 -322 320 -405 l40 -26 -63
-34 c-35 -18 -102 -63 -150 -99 l-88 -65 -87 66 c-105 79 -275 165 -397 200
-50 14 -91 26 -91 28 -1 1 -9 31 -18 67 l-17 65 28 20 c59 43 116 111 144 172
25 52 32 82 36 154 l5 89 55 0 c85 0 131 18 187 75 79 78 95 166 50 262 l-24
53 25 96 c13 55 24 125 24 164 0 78 -30 203 -65 275 -13 27 -23 50 -22 51 1 1
22 -2 47 -6 112 -22 282 -3 399 44 47 19 62 21 100 12 l44 -10 -34 -25z m837
-42 c95 -17 210 -78 282 -149 71 -70 104 -123 140 -219 22 -59 25 -89 32 -271
6 -173 11 -215 29 -270 28 -79 44 -112 86 -171 38 -53 36 -62 -30 -165 -72
-111 -176 -206 -292 -263 -52 -26 -65 -29 -95 -21 -34 10 -35 11 -58 110 l-24
100 47 45 c60 58 119 148 148 228 20 55 23 87 27 275 2 118 0 212 -5 212 -33
0 -319 56 -413 81 -123 33 -304 101 -412 155 l-67 34 -48 -54 c-64 -73 -119
-167 -144 -246 -27 -82 -37 -278 -20 -375 21 -120 89 -241 180 -321 l35 -31
-24 -102 c-23 -99 -24 -101 -57 -110 -25 -7 -43 -6 -70 5 -124 52 -278 196
-346 322 l-38 71 36 49 c84 118 115 233 115 438 0 175 11 238 60 340 71 148
231 273 385 302 70 14 469 14 541 1z m-2353 -520 c139 -71 305 -109 475 -109
l92 0 0 -216 c0 -141 -4 -231 -12 -258 -16 -55 -99 -138 -154 -154 -56 -16
-412 -16 -468 0 -55 16 -138 99 -154 154 -8 27 -12 121 -12 276 l0 235 78 52
c42 28 81 51 85 51 4 0 36 -14 70 -31z m1874 -5 c169 -71 359 -127 513 -154
113 -19 103 -4 98 -155 -3 -129 -4 -134 -41 -207 -44 -91 -102 -147 -195 -191
-61 -29 -76 -32 -162 -32 -86 0 -101 3 -162 32 -92 43 -151 100 -195 190 -34
70 -37 82 -41 187 -5 134 7 202 54 296 20 39 37 70 40 70 2 0 43 -16 91 -36z
m-2267 -184 l0 -80 -55 0 c-67 0 -105 29 -105 80 0 51 38 80 105 80 l55 0 0
-80z m1255 55 c16 -15 25 -36 25 -55 0 -51 -38 -80 -105 -80 l-55 0 0 80 0 80
55 0 c46 0 60 -4 80 -25z m-1821 -309 c36 -15 71 -57 81 -99 15 -58 -3 -97
-82 -179 l-76 -77 7 -78 c3 -43 9 -104 13 -135 l6 -58 -92 0 -91 0 0 249 c0
152 4 261 11 278 33 89 137 135 223 99z m4293 3 c15 -5 41 -22 57 -37 53 -50
56 -69 56 -342 l0 -250 -91 0 -92 0 6 58 c4 31 10 92 13 135 l7 78 -75 77
c-79 81 -95 115 -84 177 17 87 115 138 203 104z m-246 -386 l36 -38 -20 -225
c-11 -124 -21 -226 -22 -228 -2 -2 -41 28 -88 66 -47 37 -122 89 -166 113
l-80 46 64 47 c71 52 161 147 203 213 15 24 29 43 32 43 3 0 22 -17 41 -37z
m-1116 -68 c77 -19 154 -19 234 0 48 12 66 13 72 4 11 -18 33 -129 26 -135
-10 -11 -114 -34 -177 -40 -62 -6 -133 3 -222 26 -40 11 -40 12 -34 48 9 56
26 112 34 112 4 -1 34 -7 67 -15z m-1594 -71 c15 -65 13 -67 -71 -86 -71 -16
-209 -16 -280 0 -84 19 -86 21 -71 86 l12 56 199 0 199 0 12 -56z m-411 -237
c50 -15 95 -20 195 -21 133 -1 197 11 300 54 40 17 44 17 125 -7 98 -27 225
-86 308 -140 31 -21 97 -76 145 -123 191 -183 296 -404 323 -677 l7 -73 -162
0 -161 0 0 240 0 240 -80 0 -80 0 0 -240 0 -240 -262 0 -262 0 157 159 c171
172 195 210 204 311 9 93 -18 162 -91 235 -46 46 -74 65 -115 78 -106 34 -207
14 -296 -59 l-55 -44 -55 44 c-89 73 -190 93 -296 59 -41 -13 -69 -32 -115
-78 -73 -73 -100 -142 -91 -235 9 -101 33 -139 204 -311 l157 -159 -262 0
-262 0 0 240 0 240 -80 0 -80 0 0 -68 c0 -63 -3 -73 -37 -122 -21 -29 -54 -66
-73 -81 -105 -84 -267 -51 -337 68 l-28 48 -3 318 -3 317 99 0 98 0 18 -197
c9 -109 19 -219 23 -245 l5 -47 47 5 c25 3 60 7 78 10 l32 5 -6 79 -6 79 78
80 c132 136 294 233 475 285 79 22 87 23 120 9 19 -9 64 -25 100 -36z m1972
-11 c139 -29 298 -15 429 39 l56 22 84 -24 c179 -51 343 -149 474 -284 l78
-80 -6 -79 c-7 -91 -14 -84 94 -94 l57 -4 5 46 c4 26 14 136 23 245 l18 197
98 0 99 0 -3 -317 -3 -318 -28 -48 c-70 -119 -232 -152 -337 -68 -19 15 -52
52 -72 81 -35 49 -38 59 -38 122 l0 68 -80 0 -80 0 0 -240 0 -240 -262 0 -262
0 157 159 c171 172 195 210 204 311 9 93 -18 162 -91 235 -46 46 -74 65 -115
78 -106 34 -207 14 -296 -59 l-55 -44 -55 44 c-89 73 -190 93 -296 59 -41 -13
-69 -32 -115 -78 -73 -73 -100 -142 -91 -235 9 -101 33 -139 204 -311 l157
-159 -181 0 -180 0 -7 82 c-20 228 -105 459 -231 626 l-54 72 62 50 c80 64
259 153 366 184 l84 23 56 -22 c31 -13 91 -30 133 -39z m-1975 -347 c15 -6 60
-42 99 -80 97 -94 110 -93 213 5 87 83 123 97 192 77 71 -21 114 -109 90 -182
-7 -23 -73 -96 -201 -224 l-190 -190 -190 190 c-202 201 -219 227 -206 298 16
87 109 138 193 106z m1920 0 c15 -6 60 -42 99 -80 97 -94 110 -93 213 5 87 83
123 97 192 77 71 -21 114 -109 90 -182 -7 -23 -73 -96 -201 -224 l-190 -190
-190 190 c-202 201 -219 227 -206 298 16 87 109 138 193 106z"/>
<path d="M2315 4478 c-33 -17 -61 -32 -63 -33 -3 -3 146 -305 154 -314 4 -5
144 60 144 66 0 15 -157 313 -165 313 -5 -1 -37 -15 -70 -32z"/>
<path d="M2635 4478 c-33 -17 -61 -32 -63 -33 -3 -3 146 -305 154 -314 4 -5
144 60 144 66 0 15 -157 313 -165 313 -5 -1 -37 -15 -70 -32z"/>
</g>
</svg>
